<svg xmlns="http://www.w3.org/2000/svg" xmlns:xlink="http://www.w3.org/1999/xlink" width="268.497" height="385.601" viewBox="0 0 268.497 385.601">
  <defs>
    <clipPath id="clip-path">
      <rect id="Rectangle_96" data-name="Rectangle 96" width="268.497" height="385.601" fill="none" stroke="#000091" stroke-width="0.75"/>
    </clipPath>
    <clipPath id="clip-path-2">
      <rect id="Rectangle_69" data-name="Rectangle 69" width="129.95" height="103.368" fill="#000091" stroke="#000091" stroke-width="1"/>
    </clipPath>
  </defs>
  <g id="Groupe_120" data-name="Groupe 120" transform="translate(-515.477 -232.784)">
    <g id="Groupe_115" data-name="Groupe 115" transform="translate(515.477 232.784)">
      <g id="Groupe_114" data-name="Groupe 114" clip-path="url(#clip-path)">
        <path id="Tracé_146" data-name="Tracé 146" d="M19.613,19.879c-11.869,7.276-5.668,66.266,5.212,101.336l25.026-7.563S31.43,35.486,38.715,24.577,51.476,9.516,51.476,9.516Z" transform="translate(-3.628 -2.62)" fill="#fff" stroke="#000091" stroke-width="0.75"/>
        <path id="Tracé_147" data-name="Tracé 147" d="M19.613,19.879c-11.869,7.276-5.668,66.266,5.212,101.336l25.026-7.563S31.43,35.486,38.715,24.577,51.476,9.516,51.476,9.516Z" transform="translate(-3.628 -2.62)" fill="none" stroke="#000091" stroke-miterlimit="10" stroke-width="0.75"/>
        <path id="Tracé_148" data-name="Tracé 148" d="M80.278,53.885S76.29,27.873,69.13,13.5c-8.112-16.282-31.58-6.473-47.071,5.11,0,0,16.326-1.3,20.771,11.171,6.307,17.7,8.665,37.617,8.665,37.617Z" transform="translate(-6.074 -1.351)" fill="#fff" stroke="#000091" stroke-width="0.75"/>
        <path id="Tracé_149" data-name="Tracé 149" d="M80.278,53.885S76.29,27.873,69.13,13.5c-8.112-16.282-31.58-6.473-47.071,5.11,0,0,16.326-1.3,20.771,11.171,6.307,17.7,8.665,37.617,8.665,37.617Z" transform="translate(-6.074 -1.351)" fill="none" stroke="#000091" stroke-miterlimit="10" stroke-width="0.75"/>
        <path id="Tracé_150" data-name="Tracé 150" d="M337.828,19.879c11.869,7.276,5.668,66.266-5.211,101.336l-25.026-7.563s18.42-78.165,11.136-89.074S305.964,9.516,305.964,9.516Z" transform="translate(-84.247 -2.62)" fill="#fff" stroke="#000091" stroke-width="0.75"/>
        <path id="Tracé_151" data-name="Tracé 151" d="M337.828,19.879c11.869,7.276,5.668,66.266-5.211,101.336l-25.026-7.563s18.42-78.165,11.136-89.074S305.964,9.516,305.964,9.516Z" transform="translate(-84.247 -2.62)" fill="none" stroke="#000091" stroke-miterlimit="10" stroke-width="0.75"/>
        <path id="Tracé_152" data-name="Tracé 152" d="M269.594,53.885s3.989-26.011,11.149-40.385c8.112-16.282,31.58-6.473,47.071,5.11,0,0-16.327-1.3-20.771,11.171-6.307,17.7-8.665,37.617-8.665,37.617Z" transform="translate(-74.232 -1.351)" fill="#fff" stroke="#000091" stroke-width="0.75"/>
        <path id="Tracé_153" data-name="Tracé 153" d="M269.594,53.885s3.989-26.011,11.149-40.385c8.112-16.282,31.58-6.473,47.071,5.11,0,0-16.327-1.3-20.771,11.171-6.307,17.7-8.665,37.617-8.665,37.617Z" transform="translate(-74.232 -1.351)" fill="none" stroke="#000091" stroke-miterlimit="10" stroke-width="0.75"/>
        <path id="Tracé_154" data-name="Tracé 154" d="M268.271,301.157c0,1.3,0,2.6-.012,3.872-.229,36.69-3.165,63.853-7.812,68.777-15.346,16.271-66.87,20.918-126.057,20.918S23.677,390.076,8.331,373.805C3.684,368.881.743,341.718.512,305.029.5,303.753.5,302.461.5,301.157c-.028-17.54.546-37.08,1.821-57.315.259-4.039.541-8.112.851-12.2,5.648-74.1,20.77-153.76,50.1-176.277,15.891-12.2,38.367-20.919,81.118-20.919s65.22,8.716,81.11,20.919c29.577,22.706,44.7,103.525,50.237,178.149q.465,6.189.833,12.3c1.189,19.528,1.73,38.373,1.7,55.339" transform="translate(-0.138 -9.485)" fill="#fff" stroke="#000091" stroke-width="0.75"/>
        <path id="Tracé_155" data-name="Tracé 155" d="M268.271,301.157c0,1.3,0,2.6-.012,3.872-.229,36.69-3.165,63.853-7.812,68.777-15.346,16.271-66.87,20.918-126.057,20.918S23.677,390.076,8.331,373.805C3.684,368.881.743,341.718.512,305.029.5,303.753.5,302.461.5,301.157c-.028-17.54.546-37.08,1.821-57.315.259-4.039.541-8.112.851-12.2,5.648-74.1,20.77-153.76,50.1-176.277,15.891-12.2,38.367-20.919,81.118-20.919s65.22,8.716,81.11,20.919c29.577,22.706,44.7,103.525,50.237,178.149q.465,6.189.833,12.3C267.759,265.346,268.3,284.19,268.271,301.157Z" transform="translate(-0.138 -9.485)" fill="none" stroke="#000091" stroke-miterlimit="10" stroke-width="0.75"/>
        <path id="Tracé_156" data-name="Tracé 156" d="M265.9,310.015c-2.119-1.2-4.216-2.439-6.344-3.612,3.875,37.787,3.756,106.323-6.107,133.23C238.464,480.529,56.87,468.877,25.7,450.357c-28.553-16.963-11.933-146.6-11.933-146.6-.428.375-9.99,9.139-11.152,9.926-.1,1.439-.2,2.879-.288,4.311C1.046,338.23.472,357.769.5,375.309c0,1.3,0,2.6.012,3.872.23,36.69,3.172,63.853,7.82,68.777,15.345,16.271,66.864,20.919,126.057,20.919s110.711-4.648,126.057-20.919c4.648-4.924,7.584-32.087,7.813-68.777.012-1.276.012-2.568.012-3.872.028-16.966-.512-35.81-1.7-55.339q-.3-4.948-.666-9.956" transform="translate(-0.138 -83.639)" fill="#fff" stroke="#000091" stroke-width="0.75"/>
        <path id="Tracé_157" data-name="Tracé 157" d="M265.9,310.015c-2.119-1.2-4.216-2.439-6.344-3.612,3.875,37.787,3.756,106.323-6.107,133.23C238.464,480.529,56.87,468.877,25.7,450.357c-28.553-16.963-11.933-146.6-11.933-146.6-.428.375-9.99,9.139-11.152,9.926-.1,1.439-.2,2.879-.288,4.311C1.046,338.23.472,357.769.5,375.309c0,1.3,0,2.6.012,3.872.23,36.69,3.172,63.853,7.82,68.777,15.345,16.271,66.864,20.919,126.057,20.919s110.711-4.648,126.057-20.919c4.648-4.924,7.584-32.087,7.813-68.777.012-1.276.012-2.568.012-3.872.028-16.966-.512-35.81-1.7-55.339Q266.271,315.022,265.9,310.015Z" transform="translate(-0.138 -83.639)" fill="none" stroke="#000091" stroke-miterlimit="10" stroke-width="0.75"/>
        <path id="Tracé_158" data-name="Tracé 158" d="M255.414,234.357c-3-30.246-7.168-57.05-12.384-79.667-8.188-35.549-18.92-59.672-31.038-69.765-11.452-9.539-30.2-20.487-73.867-20.487S75.7,75.387,64.253,84.926c-20.008,16.668-35.394,69.387-43.323,148.447l-6.86-.688c3.681-36.691,9.014-68.072,15.853-93.274,8.112-29.888,18.177-50,29.918-59.782,18.337-15.274,42.481-22.084,78.285-22.084s59.943,6.81,78.278,22.084c13.476,11.223,24.695,35.956,33.345,73.513,5.281,22.9,9.5,50,12.526,80.535Z" transform="translate(-3.874 -15.845)" fill="#fff" stroke="#000091" stroke-width="0.75"/>
        <path id="Tracé_159" data-name="Tracé 159" d="M255.414,234.357c-3-30.246-7.168-57.05-12.384-79.667-8.188-35.549-18.92-59.672-31.038-69.765-11.452-9.539-30.2-20.487-73.867-20.487S75.7,75.387,64.253,84.926c-20.008,16.668-35.394,69.387-43.323,148.447l-6.86-.688c3.681-36.691,9.014-68.072,15.853-93.274,8.112-29.888,18.177-50,29.918-59.782,18.337-15.274,42.481-22.084,78.285-22.084s59.943,6.81,78.278,22.084c13.476,11.223,24.695,35.956,33.345,73.513,5.281,22.9,9.5,50,12.526,80.535Z" transform="translate(-3.874 -15.845)" fill="none" stroke="#000091" stroke-miterlimit="10" stroke-width="0.75"/>
        <path id="Tracé_160" data-name="Tracé 160" d="M354.172,312.331A127.492,127.492,0,0,0,319.8,285.489l-1.149-9.48c13.467,4.171,26.13,15.139,34.69,24.021q.465,6.189.834,12.3" transform="translate(-87.739 -75.998)" fill="#fff" stroke="#000091" stroke-width="0.75"/>
        <path id="Tracé_161" data-name="Tracé 161" d="M354.172,312.331A127.492,127.492,0,0,0,319.8,285.489l-1.149-9.48c13.467,4.171,26.13,15.139,34.69,24.021Q353.8,306.219,354.172,312.331Z" transform="translate(-87.739 -75.998)" fill="none" stroke="#000091" stroke-miterlimit="10" stroke-width="0.75"/>
        <path id="Tracé_162" data-name="Tracé 162" d="M36.716,276.009l-1.149,9.48A127.269,127.269,0,0,0,3.014,310.355c.259-4.039.541-8.113.85-12.2,8.481-8.5,20.316-18.264,32.852-22.148" transform="translate(-0.83 -75.998)" fill="#fff" stroke="#000091" stroke-width="0.75"/>
        <path id="Tracé_163" data-name="Tracé 163" d="M36.716,276.009l-1.149,9.48A127.269,127.269,0,0,0,3.014,310.355c.259-4.039.541-8.113.85-12.2C12.345,289.66,24.18,279.893,36.716,276.009Z" transform="translate(-0.83 -75.998)" fill="none" stroke="#000091" stroke-miterlimit="10" stroke-width="0.75"/>
        <path id="Tracé_164" data-name="Tracé 164" d="M252.415,329.583c0,1.143,0,2.27-.012,3.4-.184,32.161-2.562,55.97-6.32,60.291-5.407,6.21-16.351,10.49-30.95,13.34-18.925,3.7-43.986,5-71.022,5-47.887,0-89.563-4.073-101.973-18.338-3.764-4.321-6.136-28.13-6.326-60.291-.006-1.126-.006-2.253-.006-3.4-.109-74.149,11.1-189.2,42.682-215.477,12.858-10.7,31.036-18.339,65.623-18.339s52.758,7.641,65.617,18.339c12.059,10.031,21.148,33.018,27.767,61.722,10.726,46.462,14.984,107.925,14.921,153.755" transform="translate(-9.859 -26.369)" fill="#fff" stroke="#000091" stroke-width="0.75"/>
        <path id="Tracé_165" data-name="Tracé 165" d="M252.415,329.583c0,1.143,0,2.27-.012,3.4-.184,32.161-2.562,55.97-6.32,60.291-5.407,6.21-16.351,10.49-30.95,13.34-18.925,3.7-43.986,5-71.022,5-47.887,0-89.563-4.073-101.973-18.338-3.764-4.321-6.136-28.13-6.326-60.291-.006-1.126-.006-2.253-.006-3.4-.109-74.149,11.1-189.2,42.682-215.477,12.858-10.7,31.036-18.339,65.623-18.339s52.758,7.641,65.617,18.339c12.059,10.031,21.148,33.018,27.767,61.722C248.22,222.289,252.478,283.753,252.415,329.583Z" transform="translate(-9.859 -26.369)" fill="none" stroke="#000091" stroke-miterlimit="10" stroke-width="0.75"/>
        <path id="Tracé_166" data-name="Tracé 166" d="M305.634,206.248C316.36,252.71,320.617,314.173,320.554,360c0,1.143,0,2.269-.012,3.4-.184,32.162-2.562,55.97-6.32,60.291-5.407,6.211-16.351,10.491-30.95,13.341" transform="translate(-77.999 -56.79)" fill="#fff" stroke="#000091" stroke-width="0.75"/>
        <path id="Tracé_167" data-name="Tracé 167" d="M305.634,206.248C316.36,252.71,320.617,314.173,320.554,360c0,1.143,0,2.269-.012,3.4-.184,32.162-2.562,55.97-6.32,60.291-5.407,6.211-16.351,10.491-30.95,13.341" transform="translate(-77.999 -56.79)" fill="none" stroke="#000091" stroke-miterlimit="10" stroke-width="0.75"/>
        <path id="Tracé_168" data-name="Tracé 168" d="M214.771,44.739c-8.818,0-14.263-7-20.028-14.4-7.241-9.3-14.729-18.922-30-18.922-16.265,0-25.555,10.856-33.751,20.434-5.918,6.915-11.029,12.888-18.1,12.888a5.458,5.458,0,0,1,0-10.916c2.049,0,6.352-5.028,9.809-9.069C131.456,14.518,143.451.5,164.742.5c20.607,0,31.015,13.371,38.615,23.134,4.256,5.468,7.932,10.189,11.414,10.189a5.458,5.458,0,1,1,0,10.916" transform="translate(-29.581 -0.138)" fill="#fff" stroke="#000091" stroke-width="0.75"/>
        <path id="Tracé_169" data-name="Tracé 169" d="M214.771,44.739c-8.818,0-14.263-7-20.028-14.4-7.241-9.3-14.729-18.922-30-18.922-16.265,0-25.555,10.856-33.751,20.434-5.918,6.915-11.029,12.888-18.1,12.888a5.458,5.458,0,0,1,0-10.916c2.049,0,6.352-5.028,9.809-9.069C131.456,14.518,143.451.5,164.742.5c20.607,0,31.015,13.371,38.615,23.134,4.256,5.468,7.932,10.189,11.414,10.189a5.458,5.458,0,1,1,0,10.916Z" transform="translate(-29.581 -0.138)" fill="none" stroke="#000091" stroke-miterlimit="10" stroke-width="0.75"/>
      </g>
    </g>
    <g id="Groupe_58" data-name="Groupe 58" transform="translate(584.75 411.22)">
      <g id="Groupe_38" data-name="Groupe 38" transform="translate(0 0)">
        <g id="Groupe_37" data-name="Groupe 37" clip-path="url(#clip-path-2)">
          <path id="Tracé_94" data-name="Tracé 94" d="M107.528,63.294c10.021-5.406,16.7-15.107,16.7-29.9C124.226,7.633,105.145,0,82.879,0H0L27.355,21.628H80.971c10.813,0,16.539,2.864,16.539,11.768S91.784,47.071,80.971,47.071H40.645v.015l41.808,1.6L38.908,50.226l41.718,1.538L37.175,53.308,78.8,54.844,35.437,56.391l41.542,1.533L33.7,59.468,75.153,61,31.969,62.55l41.36,1.538-43.1,1.54L71.5,67.166,28.5,68.7H81.607l17.812,34.668H129.95Z" transform="translate(0 0)" fill="#000091" stroke="#000091" stroke-width="1"/>
          <path id="Tracé_95" data-name="Tracé 95" d="M109.125,21.628a20.77,20.77,0,0,1,14.757,6.13C121.247,6.513,103.424,0,82.878,0H0L27.355,21.628h81.769Z" transform="translate(0 0)" fill="#000091" stroke="#000091" stroke-width="1"/>
          <path id="Tracé_96" data-name="Tracé 96" d="M91.247,50.3c.031-.016.059-.035.092-.053-6.995,3.658-15.794,5.207-25.2,5.4l-3.152.063h2.336L83.138,90.38h30.53Z" transform="translate(16.281 12.989)" fill="#000091" stroke="#000091" stroke-width="1"/>
        </g>
      </g>
    </g>
  </g>
</svg>
