<?xml version="1.0" encoding="UTF-8" standalone="no"?>
<!-- Generator: Adobe Illustrator 26.0.3, SVG Export Plug-In . SVG Version: 6.00 Build 0)  -->

<svg
   version="1.1"
   id="Calque_1"
   x="0px"
   y="0px"
   viewBox="0 0 100 100"
   style="enable-background:new 0 0 100 100;"
   xml:space="preserve"
   sodipodi:docname="logo_SAD_only.svg"
   inkscape:version="1.1.1 (1:1.1+202109281949+c3084ef5ed)"
   xmlns:inkscape="http://www.inkscape.org/namespaces/inkscape"
   xmlns:sodipodi="http://sodipodi.sourceforge.net/DTD/sodipodi-0.dtd"
   xmlns:xlink="http://www.w3.org/1999/xlink"
   xmlns="http://www.w3.org/2000/svg"
   xmlns:svg="http://www.w3.org/2000/svg"><defs
   id="defs194" /><sodipodi:namedview
   id="namedview192"
   pagecolor="#ffffff"
   bordercolor="#666666"
   borderopacity="1.0"
   inkscape:pageshadow="2"
   inkscape:pageopacity="0.0"
   inkscape:pagecheckerboard="0"
   showgrid="false"
   inkscape:zoom="4.245"
   inkscape:cx="108.00942"
   inkscape:cy="34.628975"
   inkscape:window-width="1920"
   inkscape:window-height="1015"
   inkscape:window-x="0"
   inkscape:window-y="0"
   inkscape:window-maximized="1"
   inkscape:current-layer="Calque_1" />
<style
   type="text/css"
   id="style2">
	.st0{display:none;}
	.st1{display:inline;}
	.st2{fill:#283376;}
	.st3{fill:none;stroke:#293173;}
	.st4{clip-path:url(#SVGID_00000026852789604948510580000002671438761652793530_);}
	.st5{fill:#283376;stroke:#FFFFFF;stroke-width:0.75;}
	.st6{fill:#283376;stroke:#FFFFFF;stroke-width:0.75;stroke-miterlimit:10;}
	.st7{clip-path:url(#SVGID_00000113344689394952442840000005389351224340292763_);}
	.st8{fill:#FFFFFF;}
	.st9{fill:none;stroke:#CECECE;}
	.st10{clip-path:url(#SVGID_00000103974067066877457690000008579491274842597000_);}
	.st11{fill:#FFFFFF;stroke:#CECECE;stroke-width:0.5;}
	.st12{fill:#FFFFFF;stroke:#CECECE;stroke-width:0.5;stroke-miterlimit:10;}
	.st13{clip-path:url(#SVGID_00000043434681354226318270000009867601491852133815_);}
	.st14{fill:#CECECE;}
	.st15{clip-path:url(#SVGID_00000137110884000408494040000009648434861092546225_);}
	.st16{fill:#FFFFFF;stroke:#000091;stroke-width:0.5;}
	.st17{fill:#FFFFFF;stroke:#000091;stroke-width:0.5;stroke-miterlimit:10;}
	.st18{clip-path:url(#SVGID_00000022534891834268412730000001676783359029745074_);}
	.st19{fill:#000091;}
	.st20{fill:#000091;stroke:#000091;}
</style>
<g
   id="Calque_1_00000109009668445588046740000007315548561085702282_"
   class="st0">
	<g
   id="Groupe_136"
   transform="translate(-1172 -604)"
   class="st1">
		<g
   id="Groupe_117">
			<g
   id="Composant_4_1"
   transform="translate(1202 634)">
				<g
   transform="matrix(1, 0, 0, 1, -30, -30)"
   id="g11">
					<g
   id="Ellipse_1-2"
   transform="translate(30 30)">
						<g
   id="g8">
							<circle
   class="st2"
   cx="19.8"
   cy="20"
   r="31"
   id="circle4" />
							<circle
   class="st3"
   cx="19.8"
   cy="20"
   r="30.5"
   id="circle6" />
						</g>
					</g>
				</g>
				<g
   id="Groupe_115"
   transform="translate(17.422 11.5)">
					<g
   id="g46">
						<g
   id="g44">
							<defs
   id="defs14">
								<rect
   id="SVGID_1_"
   x="-11.2"
   y="-11"
   width="27.2"
   height="39" />
							</defs>
							<clipPath
   id="SVGID_00000049211936430973370350000008524814899358048420_">
								<use
   xlink:href="#SVGID_1_"
   style="overflow:visible;"
   id="use16" />
							</clipPath>
							<g
   id="Groupe_114"
   style="clip-path:url(#SVGID_00000049211936430973370350000008524814899358048420_);"
   clip-path="url(#SVGID_00000049211936430973370350000008524814899358048420_)">
								<path
   id="Tracé_146"
   class="st5"
   d="M-9.6-9.2C-10.8-8.5-10.1-2.6-9,1l2.5-0.8c0,0-1.9-7.9-1.1-9c0.3-0.6,0.8-1.1,1.3-1.5          L-9.6-9.2z" />
								<path
   id="Tracé_147"
   class="st6"
   d="M-9.6-9.2C-10.8-8.5-10.1-2.6-9,1l2.5-0.8c0,0-1.9-7.9-1.1-9c0.3-0.6,0.8-1.1,1.3-1.5          L-9.6-9.2z" />
								<path
   id="Tracé_148"
   class="st5"
   d="M-3.7-5.7c-0.2-1.4-0.6-2.8-1.1-4.1c-0.8-1.7-3.2-0.7-4.8,0.5c0,0,1.7-0.1,2.1,1.1          c0.4,1.2,0.7,2.5,0.9,3.8L-3.7-5.7z" />
								<path
   id="Tracé_149"
   class="st6"
   d="M-3.7-5.7c-0.2-1.4-0.6-2.8-1.1-4.1c-0.8-1.7-3.2-0.7-4.8,0.5c0,0,1.7-0.1,2.1,1.1          c0.4,1.2,0.7,2.5,0.9,3.8L-3.7-5.7z" />
								<path
   id="Tracé_150"
   class="st5"
   d="M14.5-9.2C15.7-8.5,15-2.6,13.9,1l-2.5-0.8c0,0,1.9-7.9,1.1-9          c-0.4-0.6-0.8-1.1-1.3-1.5L14.5-9.2z" />
								<path
   id="Tracé_151"
   class="st6"
   d="M14.5-9.2C15.7-8.5,15-2.6,13.9,1l-2.5-0.8c0,0,1.9-7.9,1.1-9          c-0.4-0.6-0.8-1.1-1.3-1.5L14.5-9.2z" />
								<path
   id="Tracé_152"
   class="st5"
   d="M8.6-5.7c0.2-1.4,0.6-2.8,1.1-4.1c0.8-1.6,3.2-0.6,4.8,0.5c0,0-1.6-0.1-2.1,1.1          c-0.4,1.2-0.7,2.5-0.9,3.8L8.6-5.7z" />
								<path
   id="Tracé_153"
   class="st6"
   d="M8.6-5.7c0.2-1.4,0.6-2.8,1.1-4.1c0.8-1.6,3.2-0.6,4.8,0.5c0,0-1.6-0.1-2.1,1.1          c-0.4,1.2-0.7,2.5-0.9,3.8L8.6-5.7z" />
								<path
   id="Tracé_154"
   class="st5"
   d="M15.9,18.5c0,0.1,0,0.3,0,0.4c0,3.7-0.3,6.5-0.8,7C13.6,27.5,8.4,28,2.4,28          s-11.2-0.5-12.8-2.1c-0.5-0.5-0.8-3.2-0.8-7c0-0.1,0-0.3,0-0.4c0-1.8,0.1-3.8,0.2-5.8c0-0.4,0.1-0.8,0.1-1.2          C-10.3,4-8.8-4.1-5.8-6.4c1.6-1.2,3.9-2.1,8.2-2.1S9-7.6,10.6-6.4c3,2.3,4.5,10.5,5.1,18c0,0.4,0.1,0.8,0.1,1.2          C15.9,14.9,15.9,16.8,15.9,18.5" />
								<path
   id="Tracé_155"
   class="st6"
   d="M15.9,18.5c0,0.1,0,0.3,0,0.4c0,3.7-0.3,6.5-0.8,7C13.6,27.5,8.4,28,2.4,28          s-11.2-0.5-12.8-2.1c-0.5-0.5-0.8-3.2-0.8-7c0-0.1,0-0.3,0-0.4c0-1.8,0.1-3.8,0.2-5.8c0-0.4,0.1-0.8,0.1-1.2          C-10.3,4-8.8-4.1-5.8-6.4c1.6-1.2,3.9-2.1,8.2-2.1S9-7.6,10.6-6.4c3,2.3,4.5,10.5,5.1,18c0,0.4,0.1,0.8,0.1,1.2          C15.9,14.9,15.9,16.8,15.9,18.5z" />
								<path
   id="Tracé_156"
   class="st5"
   d="M15.7,11.9c-0.2-0.1-0.4-0.2-0.6-0.4c0.4,3.8,0.4,10.8-0.6,13.5          c-1.5,4.1-19.9,3-23,1.1c-2.9-1.7-1.2-14.8-1.2-14.8c0,0-1,0.9-1.1,1c0,0.1,0,0.3,0,0.4c-0.1,2.1-0.2,4-0.2,5.8          c0,0.1,0,0.3,0,0.4c0,3.7,0.3,6.5,0.8,7C-8.8,27.5-3.6,28,2.4,28s11.2-0.5,12.8-2.1c0.5-0.5,0.8-3.2,0.8-7          c0-0.1,0-0.3,0-0.4c0-1.7-0.1-3.6-0.2-5.6C15.7,12.6,15.7,12.2,15.7,11.9" />
								<path
   id="Tracé_157"
   class="st6"
   d="M15.7,11.9c-0.2-0.1-0.4-0.2-0.6-0.4c0.4,3.8,0.4,10.8-0.6,13.5          c-1.5,4.1-19.9,3-23,1.1c-2.9-1.7-1.2-14.8-1.2-14.8c0,0-1,0.9-1.1,1c0,0.1,0,0.3,0,0.4c-0.1,2.1-0.2,4-0.2,5.8          c0,0.1,0,0.3,0,0.4c0,3.7,0.3,6.5,0.8,7C-8.8,27.5-3.6,28,2.4,28s11.2-0.5,12.8-2.1c0.5-0.5,0.8-3.2,0.8-7          c0-0.1,0-0.3,0-0.4c0-1.7-0.1-3.6-0.2-5.6C15.7,12.6,15.7,12.2,15.7,11.9z" />
								<path
   id="Tracé_158"
   class="st5"
   d="M14.2,11.1C14,8.4,13.6,5.7,13,3C12.2-0.5,11.1-3,9.9-4c-1.1-1-3-2.1-7.5-2.1          S-3.9-5-5.1-4c-2,1.7-3.6,7-4.4,15l-0.7-0.1c0.3-3.2,0.8-6.3,1.6-9.4c0.8-3,1.8-5.1,3-6.1c1.8-1.5,4.3-2.2,7.9-2.2          s6.1,0.7,7.9,2.2c1.4,1.1,2.5,3.6,3.4,7.4c0.6,2.7,1,5.4,1.3,8.1L14.2,11.1z" />
								<path
   id="Tracé_159"
   class="st6"
   d="M14.2,11.1C14,8.4,13.6,5.7,13,3C12.2-0.5,11.1-3,9.9-4c-1.1-1-3-2.1-7.5-2.1          S-3.9-5-5.1-4c-2,1.7-3.6,7-4.4,15l-0.7-0.1c0.3-3.2,0.8-6.3,1.6-9.4c0.8-3,1.8-5.1,3-6.1c1.8-1.5,4.3-2.2,7.9-2.2          s6.1,0.7,7.9,2.2c1.4,1.1,2.5,3.6,3.4,7.4c0.6,2.7,1,5.4,1.3,8.1L14.2,11.1z" />
								<path
   id="Tracé_160"
   class="st5"
   d="M15.8,12.9c-1-1.1-2.2-2-3.5-2.7l-0.1-1c1.4,0.5,2.6,1.4,3.5,2.4          C15.7,12.1,15.7,12.5,15.8,12.9" />
								<path
   id="Tracé_161"
   class="st6"
   d="M15.8,12.9c-1-1.1-2.2-2-3.5-2.7l-0.1-1c1.4,0.5,2.6,1.4,3.5,2.4          C15.7,12.1,15.7,12.5,15.8,12.9z" />
								<path
   id="Tracé_162"
   class="st5"
   d="M-7.6,9.2l-0.1,1c-1.2,0.7-2.3,1.5-3.3,2.5c0-0.4,0.1-0.8,0.1-1.2          C-10,10.5-8.8,9.7-7.6,9.2" />
								<path
   id="Tracé_163"
   class="st6"
   d="M-7.6,9.2l-0.1,1c-1.2,0.7-2.3,1.5-3.3,2.5c0-0.4,0.1-0.8,0.1-1.2          C-10,10.5-8.8,9.7-7.6,9.2z" />
								<path
   id="Tracé_164"
   class="st5"
   d="M13.4,19.7c0,0.1,0,0.2,0,0.3c0,3.2-0.3,5.7-0.6,6.1c-0.9,0.8-2,1.2-3.1,1.4          C7.2,27.8,4.8,28,2.4,28c-4.8,0-9.1-0.4-10.3-1.9c-0.4-0.4-0.6-2.9-0.6-6.1c0-0.1,0-0.2,0-0.3c0-7.5,1.1-19.1,4.3-21.8          C-2.9-3.2-1.1-4,2.4-4S7.8-3.2,9-2.1c1.2,1,2.1,3.3,2.8,6.2C12.9,9.2,13.4,14.4,13.4,19.7" />
								<path
   id="Tracé_165"
   class="st6"
   d="M13.4,19.7c0,0.1,0,0.2,0,0.3c0,3.2-0.3,5.7-0.6,6.1c-0.9,0.8-2,1.2-3.1,1.4          C7.2,27.8,4.8,28,2.4,28c-4.8,0-9.1-0.4-10.3-1.9c-0.4-0.4-0.6-2.9-0.6-6.1c0-0.1,0-0.2,0-0.3c0-7.5,1.1-19.1,4.3-21.8          C-2.9-3.2-1.1-4,2.4-4S7.8-3.2,9-2.1c1.2,1,2.1,3.3,2.8,6.2C12.9,9.2,13.4,14.4,13.4,19.7z" />
								<path
   id="Tracé_166"
   class="st5"
   d="M11.8,4.1c1,5.1,1.5,10.3,1.5,15.6c0,0.1,0,0.2,0,0.3c0,3.2-0.3,5.7-0.6,6.1          c-0.9,0.8-2,1.2-3.1,1.4" />
								<path
   id="Tracé_167"
   class="st6"
   d="M11.8,4.1c1,5.1,1.5,10.3,1.5,15.6c0,0.1,0,0.2,0,0.3c0,3.2-0.3,5.7-0.6,6.1          c-0.9,0.8-2,1.2-3.1,1.4" />
								<path
   id="Tracé_168"
   class="st5"
   d="M7.5-6.5c-0.9,0-1.4-0.7-2-1.5C4.8-8.9,4-9.9,2.5-9.9c-1.6,0-2.6,1.1-3.4,2.1          C-1.5-7.1-2-6.5-2.8-6.5c-0.3,0-0.5-0.3-0.5-0.6c0-0.3,0.2-0.5,0.5-0.5c0.2,0,0.6-0.5,1-0.9c0.9-1,2.1-2.4,4.2-2.4          c1.6,0.1,3.1,0.9,3.9,2.3c0.4,0.6,0.8,1,1.2,1C7.8-7.6,8.1-7.3,8-7C8-6.7,7.8-6.5,7.5-6.5" />
								<path
   id="Tracé_169"
   class="st6"
   d="M7.5-6.5c-0.9,0-1.4-0.7-2-1.5C4.8-8.9,4-9.9,2.5-9.9c-1.6,0-2.6,1.1-3.4,2.1          C-1.5-7.1-2-6.5-2.8-6.5c-0.3,0-0.5-0.3-0.5-0.6c0-0.3,0.2-0.5,0.5-0.5c0.2,0,0.6-0.5,1-0.9c0.9-1,2.1-2.4,4.2-2.4          c1.6,0.1,3.1,0.9,3.9,2.3c0.4,0.6,0.8,1,1.2,1C7.8-7.6,8.1-7.3,8-7C8-6.7,7.8-6.5,7.5-6.5L7.5-6.5z" />
							</g>
						</g>
					</g>
				</g>
			</g>
			<g
   id="Groupe_116"
   transform="translate(1211.42 638.426)">
				<g
   id="Groupe_38"
   transform="translate(14.955 25.574)">
					<g
   id="g62">
						<g
   id="g60">
							<defs
   id="defs51">
								<rect
   id="SVGID_00000121979590861867065560000011583659507770326671_"
   x="-11.2"
   y="-11"
   width="13.2"
   height="10.5" />
							</defs>
							<clipPath
   id="SVGID_00000033368785716189236240000015990920822403029906_">
								<use
   xlink:href="#SVGID_00000121979590861867065560000011583659507770326671_"
   style="overflow:visible;"
   id="use53" />
							</clipPath>
							
								<g
   id="Groupe_37"
   transform="translate(0 0)"
   style="clip-path:url(#SVGID_00000033368785716189236240000015990920822403029906_);"
   clip-path="url(#SVGID_00000033368785716189236240000015990920822403029906_)">
								<path
   id="Tracé_94"
   class="st8"
   d="M-0.2-4.5c1.1-0.6,1.8-1.8,1.7-3.1c0-2.6-1.9-3.4-4.2-3.4h-8.4l2.8,2.2h5.5          c1.1,0,1.7,0.3,1.7,1.2s-0.6,1.4-1.7,1.4H-7l0,0L-2.8-6l-4.4,0.2L-3-5.7l-4.4,0.2l4.2,0.2l-4.4,0.2l4.2,0.2l-4.4,0.2          l4.2,0.2l-4.4,0.2l4.2,0.2l-4.4,0.1l4.2,0.2L-8.3-4h5.4L-1-0.5h3.1L-0.2-4.5z" />
								<path
   id="Tracé_95"
   class="st8"
   d="M-0.1-8.8c0.6,0,1.1,0.2,1.5,0.6C1.2-10.3-0.6-11-2.7-11h-8.4l2.8,2.2L-0.1-8.8          L-0.1-8.8z" />
								<path
   id="Tracé_96"
   class="st8"
   d="M-0.2-4.5L-0.2-4.5C-1-4.2-1.9-4-2.8-4l-0.3,0h0.2L-1-0.5h3.1L-0.2-4.5z" />
							</g>
						</g>
					</g>
				</g>
			</g>
		</g>
	</g>
</g>
<g
   id="Calque_2_00000154389847604031421540000015960802120216242833_"
   class="st0">
	<g
   id="Groupe_118"
   transform="translate(-1172 -604)"
   class="st1">
		<g
   id="Composant_4_33"
   transform="translate(1202 634)">
			<g
   transform="matrix(1, 0, 0, 1, -30, -30)"
   id="g76">
				<g
   id="Ellipse_1-3"
   transform="translate(30 30)">
					<g
   id="g73">
						<circle
   class="st8"
   cx="19.8"
   cy="20.1"
   r="31"
   id="circle69" />
						<circle
   class="st9"
   cx="19.8"
   cy="20.1"
   r="30.5"
   id="circle71" />
					</g>
				</g>
			</g>
			<g
   id="Groupe_115_00000150816509747070425500000012548562954071229343_"
   transform="translate(17.422 11.5)">
				<g
   id="g111">
					<g
   id="g109">
						<defs
   id="defs79">
							<rect
   id="SVGID_00000095307374563687829710000004341371660270587792_"
   x="-11.2"
   y="-10.9"
   width="27.2"
   height="39" />
						</defs>
						<clipPath
   id="SVGID_00000038384484031068639710000006821554103317956780_">
							<use
   xlink:href="#SVGID_00000095307374563687829710000004341371660270587792_"
   style="overflow:visible;"
   id="use81" />
						</clipPath>
						
							<g
   id="Groupe_114_00000144308591498119330500000002969195572171470726_"
   style="clip-path:url(#SVGID_00000038384484031068639710000006821554103317956780_);"
   clip-path="url(#SVGID_00000038384484031068639710000006821554103317956780_)">
							<path
   id="Tracé_146_00000091699159162005896580000016504284330004176295_"
   class="st11"
   d="M-9.6-9.2         c-1.2,0.7-0.6,6.7,0.5,10.2l2.5-0.8c0,0-1.9-7.9-1.1-9c0.3-0.6,0.8-1.1,1.3-1.5L-9.6-9.2z" />
							<path
   id="Tracé_147_00000119826452993041688250000018013541907205191297_"
   class="st12"
   d="M-9.6-9.2         c-1.2,0.7-0.6,6.7,0.5,10.2l2.5-0.8c0,0-1.9-7.9-1.1-9c0.3-0.6,0.8-1.1,1.3-1.5L-9.6-9.2z" />
							<path
   id="Tracé_148_00000173144101698866105650000011199294258605285566_"
   class="st11"
   d="M-3.7-5.6         C-3.9-7-4.3-8.4-4.8-9.7c-0.8-1.6-3.2-0.7-4.8,0.5c0,0,1.7-0.1,2.1,1.1c0.4,1.2,0.7,2.5,0.9,3.8L-3.7-5.6z" />
							<path
   id="Tracé_149_00000158002172672167419740000012589955925868752808_"
   class="st12"
   d="M-3.7-5.6         C-3.9-7-4.3-8.4-4.8-9.7c-0.8-1.6-3.2-0.7-4.8,0.5c0,0,1.7-0.1,2.1,1.1c0.4,1.2,0.7,2.5,0.9,3.8L-3.7-5.6z" />
							<path
   id="Tracé_150_00000089575970445923761990000016058476838093169342_"
   class="st11"
   d="M14.4-9.2         c1.2,0.7,0.6,6.7-0.5,10.2l-2.5-0.8c0,0,1.9-7.9,1.1-9c-0.4-0.6-0.8-1.1-1.3-1.5L14.4-9.2z" />
							<path
   id="Tracé_151_00000073002561187702130060000004149732431732570539_"
   class="st12"
   d="M14.4-9.2         c1.2,0.7,0.6,6.7-0.5,10.2l-2.5-0.8c0,0,1.9-7.9,1.1-9c-0.4-0.6-0.8-1.1-1.3-1.5L14.4-9.2z" />
							<path
   id="Tracé_152_00000145772503157958614100000010800504639725476543_"
   class="st11"
   d="M8.6-5.6C8.8-7,9.1-8.4,9.7-9.7         c0.8-1.6,3.2-0.6,4.8,0.5c0,0-1.6-0.1-2.1,1.1c-0.4,1.2-0.7,2.5-0.9,3.8L8.6-5.6z" />
							<path
   id="Tracé_153_00000115475296949754831420000006535645310117148547_"
   class="st12"
   d="M8.6-5.6C8.8-7,9.1-8.4,9.7-9.7         c0.8-1.6,3.2-0.6,4.8,0.5c0,0-1.6-0.1-2.1,1.1c-0.4,1.2-0.7,2.5-0.9,3.8L8.6-5.6z" />
							<path
   id="Tracé_154_00000088093676486419587570000006243184720617738626_"
   class="st11"
   d="M15.9,18.6c0,0.1,0,0.3,0,0.4         c0,3.7-0.3,6.5-0.8,7c-1.6,1.6-6.8,2.1-12.8,2.1S-8.8,27.6-10.4,26c-0.5-0.5-0.8-3.2-0.8-7c0-0.1,0-0.3,0-0.4         c0-1.8,0.1-3.8,0.2-5.8c0-0.4,0.1-0.8,0.1-1.2C-10.3,4.1-8.8-4-5.8-6.3c1.6-1.2,3.9-2.1,8.2-2.1S9-7.5,10.6-6.3         c3,2.3,4.5,10.5,5.1,18c0,0.4,0.1,0.8,0.1,1.2C15.9,15,15.9,16.9,15.9,18.6" />
							<path
   id="Tracé_155_00000036940411885016664280000002340491836829031853_"
   class="st12"
   d="M15.9,18.6c0,0.1,0,0.3,0,0.4         c0,3.7-0.3,6.5-0.8,7c-1.6,1.6-6.8,2.1-12.8,2.1S-8.8,27.6-10.4,26c-0.5-0.5-0.8-3.2-0.8-7c0-0.1,0-0.3,0-0.4         c0-1.8,0.1-3.8,0.2-5.8c0-0.4,0.1-0.8,0.1-1.2C-10.3,4.1-8.8-4-5.8-6.3c1.6-1.2,3.9-2.1,8.2-2.1S9-7.5,10.6-6.3         c3,2.3,4.5,10.5,5.1,18c0,0.4,0.1,0.8,0.1,1.2C15.9,15,15.9,16.9,15.9,18.6z" />
							<path
   id="Tracé_156_00000169528056596256857720000013465719563913204157_"
   class="st11"
   d="M15.7,12         c-0.2-0.1-0.4-0.2-0.6-0.4c0.4,3.8,0.4,10.7-0.6,13.5c-1.5,4.1-19.9,3-23,1.1c-2.9-1.7-1.2-14.8-1.2-14.8c0,0-1,0.9-1.1,1         c0,0.1,0,0.3,0,0.4c-0.1,2.1-0.2,4-0.2,5.8c0,0.1,0,0.3,0,0.4c0,3.7,0.3,6.5,0.8,7c1.6,1.6,6.8,2.1,12.8,2.1         s11.2-0.5,12.8-2.1c0.5-0.5,0.8-3.2,0.8-7c0-0.1,0-0.3,0-0.4c0-1.7-0.1-3.6-0.2-5.6C15.7,12.7,15.7,12.3,15.7,12" />
							<path
   id="Tracé_157_00000044170672048404656890000017628536912278173110_"
   class="st12"
   d="M15.7,12         c-0.2-0.1-0.4-0.2-0.6-0.4c0.4,3.8,0.4,10.7-0.6,13.5c-1.5,4.1-19.9,3-23,1.1c-2.9-1.7-1.2-14.8-1.2-14.8c0,0-1,0.9-1.1,1         c0,0.1,0,0.3,0,0.4c-0.1,2.1-0.2,4-0.2,5.8c0,0.1,0,0.3,0,0.4c0,3.7,0.3,6.5,0.8,7c1.6,1.6,6.8,2.1,12.8,2.1         s11.2-0.5,12.8-2.1c0.5-0.5,0.8-3.2,0.8-7c0-0.1,0-0.3,0-0.4c0-1.7-0.1-3.6-0.2-5.6C15.7,12.7,15.7,12.3,15.7,12z" />
							<path
   id="Tracé_158_00000129192713295033881610000001391188183810362252_"
   class="st11"
   d="M14.2,11.2         C14,8.5,13.6,5.8,13,3.1c-0.8-3.6-1.9-6-3.1-7.1C8.7-4.9,6.8-6,2.4-6S-4-4.9-5.1-3.9c-2,1.7-3.6,7-4.4,15l-0.7-0.1         c0.3-3.2,0.8-6.3,1.6-9.4c0.8-3,1.8-5.1,3-6.1C-3.7-6-1.2-6.7,2.4-6.7S8.4-6,10.3-4.4c1.4,1.1,2.5,3.6,3.4,7.4         c0.6,2.7,1,5.4,1.3,8.1L14.2,11.2z" />
							<path
   id="Tracé_159_00000079444473208179484060000008927940492031595703_"
   class="st12"
   d="M14.2,11.2         C14,8.5,13.6,5.8,13,3.1c-0.8-3.6-1.9-6-3.1-7.1C8.7-4.9,6.8-6,2.4-6S-4-4.9-5.1-3.9c-2,1.7-3.6,7-4.4,15l-0.7-0.1         c0.3-3.2,0.8-6.3,1.6-9.4c0.8-3,1.8-5.1,3-6.1C-3.7-6-1.2-6.7,2.4-6.7S8.4-6,10.3-4.4c1.4,1.1,2.5,3.6,3.4,7.4         c0.6,2.7,1,5.4,1.3,8.1L14.2,11.2z" />
							<path
   id="Tracé_160_00000013899851009297608080000011609248511245098117_"
   class="st11"
   d="M15.7,13c-1-1.1-2.2-2-3.5-2.7         l-0.1-1c1.4,0.5,2.6,1.4,3.5,2.4C15.7,12.2,15.7,12.6,15.7,13" />
							<path
   id="Tracé_161_00000060748478363266605570000007239782862599905210_"
   class="st12"
   d="M15.7,13c-1-1.1-2.2-2-3.5-2.7         l-0.1-1c1.4,0.5,2.6,1.4,3.5,2.4C15.7,12.2,15.7,12.6,15.7,13z" />
							<path
   id="Tracé_162_00000056396486537806905490000011312851905030238339_"
   class="st11"
   d="M-7.6,9.3l-0.1,1         c-1.2,0.7-2.3,1.5-3.3,2.5c0-0.4,0.1-0.8,0.1-1.2C-10,10.6-8.8,9.8-7.6,9.3" />
							<path
   id="Tracé_163_00000083784090181667292760000012716401177496426153_"
   class="st12"
   d="M-7.6,9.3l-0.1,1         c-1.2,0.7-2.3,1.5-3.3,2.5c0-0.4,0.1-0.8,0.1-1.2C-10,10.6-8.9,9.8-7.6,9.3z" />
							<path
   id="Tracé_164_00000168117715615511697460000018294041567328792200_"
   class="st11"
   d="M13.3,19.8c0,0.1,0,0.2,0,0.3         c0,3.2-0.3,5.7-0.6,6.1c-0.9,0.8-2,1.2-3.1,1.4c-2.4,0.4-4.8,0.5-7.2,0.5c-4.8,0-9.1-0.4-10.3-1.9c-0.4-0.4-0.6-2.9-0.6-6.1         c0-0.1,0-0.2,0-0.3c0-7.5,1.1-19.1,4.3-21.8C-3-3.1-1.1-3.9,2.4-3.9S7.7-3.1,9-2c1.2,1,2.1,3.3,2.8,6.2         C12.9,9.3,13.4,14.5,13.3,19.8" />
							<path
   id="Tracé_165_00000060003387543556724980000014076186678998690465_"
   class="st12"
   d="M13.3,19.8c0,0.1,0,0.2,0,0.3         c0,3.2-0.3,5.7-0.6,6.1c-0.9,0.8-2,1.2-3.1,1.4c-2.4,0.4-4.8,0.5-7.2,0.5c-4.8,0-9.1-0.4-10.3-1.9c-0.4-0.4-0.6-2.9-0.6-6.1         c0-0.1,0-0.2,0-0.3c0-7.5,1.1-19.1,4.3-21.8C-3-3.1-1.1-3.9,2.4-3.9S7.7-3.1,9-2c1.2,1,2.1,3.3,2.8,6.2         C12.9,9.3,13.4,14.5,13.3,19.8z" />
							<path
   id="Tracé_166_00000021829911733072900950000003366167026679412919_"
   class="st11"
   d="M11.8,4.2         c1,5.1,1.5,10.3,1.5,15.6c0,0.1,0,0.2,0,0.3c0,3.2-0.3,5.7-0.6,6.1c-0.9,0.8-2,1.2-3.1,1.4" />
							<path
   id="Tracé_167_00000129914326156037043050000002525128271365199772_"
   class="st12"
   d="M11.8,4.2         c1,5.1,1.5,10.3,1.5,15.6c0,0.1,0,0.2,0,0.3c0,3.2-0.3,5.7-0.6,6.1c-0.9,0.8-2,1.2-3.1,1.4" />
							<path
   id="Tracé_168_00000155136393725246865990000000516252536329527984_"
   class="st11"
   d="M7.5-6.4c-0.9,0-1.4-0.7-2-1.5         C4.8-8.8,4-9.8,2.5-9.8C0.8-9.8-0.1-8.7-1-7.7C-1.6-7-2.1-6.4-2.8-6.4c-0.3,0-0.5-0.3-0.5-0.6c0-0.3,0.2-0.5,0.5-0.5         c0.2,0,0.6-0.5,1-0.9c0.9-1,2.1-2.4,4.2-2.4c1.6,0.1,3.1,0.9,3.9,2.3c0.4,0.6,0.8,1,1.2,1c0.3,0,0.5,0.3,0.5,0.6         C8-6.6,7.8-6.4,7.5-6.4" />
							<path
   id="Tracé_169_00000140718837226658696040000002546566768834997392_"
   class="st12"
   d="M7.5-6.4c-0.9,0-1.4-0.7-2-1.5         C4.8-8.8,4-9.8,2.5-9.8C0.8-9.8-0.1-8.7-1-7.7C-1.6-7-2.1-6.4-2.8-6.4c-0.3,0-0.5-0.3-0.5-0.6c0-0.3,0.2-0.5,0.5-0.5         c0.2,0,0.6-0.5,1-0.9c0.9-1,2.1-2.4,4.2-2.4c1.6,0.1,3.1,0.9,3.9,2.3c0.4,0.6,0.8,1,1.2,1c0.3,0,0.5,0.3,0.5,0.6         C8-6.6,7.8-6.4,7.5-6.4L7.5-6.4z" />
						</g>
					</g>
				</g>
			</g>
		</g>
		<g
   id="Groupe_116_00000139286290725659005090000013492273111780707491_"
   transform="translate(1211.42 638.426)">
			<g
   id="Groupe_38_00000030474805126169390050000003072242319841308578_"
   transform="translate(14.955 25.574)">
				<g
   id="g127">
					<g
   id="g125">
						<defs
   id="defs116">
							<rect
   id="SVGID_00000172414224759242927760000005481092551114271889_"
   x="-11.2"
   y="-10.9"
   width="13.2"
   height="10.5" />
						</defs>
						<clipPath
   id="SVGID_00000160182412043803234970000000782549614501563784_">
							<use
   xlink:href="#SVGID_00000172414224759242927760000005481092551114271889_"
   style="overflow:visible;"
   id="use118" />
						</clipPath>
						
							<g
   id="Groupe_37_00000140016339796689595910000001850352383717662351_"
   transform="translate(0 0)"
   style="clip-path:url(#SVGID_00000160182412043803234970000000782549614501563784_);"
   clip-path="url(#SVGID_00000160182412043803234970000000782549614501563784_)">
							<path
   id="Tracé_94_00000104703646358340073670000008164298160844676258_"
   class="st14"
   d="M-0.3-4.4C0.9-5,1.5-6.2,1.4-7.5         c0-2.6-1.9-3.4-4.2-3.4h-8.4l2.8,2.2H-3c1.1,0,1.7,0.3,1.7,1.2S-1.8-6.1-3-6.1h-4.1l0,0L-2.8-6l-4.4,0.2L-3-5.6l-4.4,0.2         l4.2,0.2l-4.4,0.2L-3.4-5l-4.4,0.2l4.2,0.2l-4.4,0.2l4.2,0.2l-4.4,0.2L-3.9-4l-4.4,0.1h5.4l1.8,3.5H2L-0.3-4.4z" />
							<path
   id="Tracé_95_00000166649685149052389970000018050356424584148105_"
   class="st14"
   d="M-0.1-8.7c0.6,0,1.1,0.2,1.5,0.6         c-0.3-2.2-2.1-2.8-4.2-2.8h-8.4l2.8,2.2L-0.1-8.7L-0.1-8.7z" />
							<path
   id="Tracé_96_00000034056354088063091220000012959068659273059515_"
   class="st14"
   d="M-0.3-4.4L-0.3-4.4         C-1-4.1-1.9-3.9-2.8-3.9h-0.3h0.2l1.8,3.5H2L-0.3-4.4z" />
						</g>
					</g>
				</g>
			</g>
		</g>
	</g>
</g>
<g
   id="Calque_3"
   transform="matrix(1.692056,0,0,1.692056,-33.350319,-31.760354)">
	<g
   id="Groupe_134"
   transform="translate(-1172,-604)">
		<g
   id="Groupe_118_00000120559138033952768360000006175539663244424834_">
			<g
   id="Composant_4_2"
   transform="translate(1202,634)">
				<g
   id="g169">
					<g
   id="Groupe_115_00000167363713339741942720000004718382773616133028_"
   transform="translate(17.422,11.5)">
						<g
   id="g166">
							<g
   id="g164">
								<defs
   id="defs134">
									<rect
   id="SVGID_00000099662108908764090080000016511920163426336654_"
   x="-17.9"
   y="-22.4"
   width="40.900002"
   height="58.700001" />
								</defs>
								<clipPath
   id="SVGID_00000168825610031041479660000014941846879458158495_">
									<use
   xlink:href="#SVGID_00000099662108908764090080000016511920163426336654_"
   style="overflow:visible"
   id="use136"
   x="0"
   y="0"
   width="100%"
   height="100%" />
								</clipPath>
								
									<g
   id="Groupe_114_00000129188774639491718570000008866292749510581128_"
   clip-path="url(#SVGID_00000168825610031041479660000014941846879458158495_)">
									<path
   id="Tracé_146_00000096739658380624773870000003911208149408800416_"
   class="st16"
   d="m -15.4,-19.7 c -1.8,1.1 -0.9,10.1 0.8,15.4 l 3.8,-1.1 c 0,0 -2.8,-11.9 -1.7,-13.6 0.5,-0.9 1.2,-1.6 1.9,-2.3 z" />
									<path
   id="Tracé_147_00000088823955281045419600000015924845672840657085_"
   class="st17"
   d="m -15.4,-19.7 c -1.8,1.1 -0.9,10.1 0.8,15.4 l 3.8,-1.1 c 0,0 -2.8,-11.9 -1.7,-13.6 0.5,-0.9 1.2,-1.6 1.9,-2.3 z" />
									<path
   id="Tracé_148_00000112599269343789740880000013284133405774890640_"
   class="st16"
   d="m -6.6,-14.4 c -0.3,-2.1 -0.9,-4.2 -1.7,-6.1 -1.2,-2.5 -4.8,-1 -7.2,0.8 0,0 2.5,-0.2 3.2,1.7 0.6,1.9 1.1,3.8 1.3,5.7 z" />
									<path
   id="Tracé_149_00000039128755757667449660000010789348187391217339_"
   class="st17"
   d="m -6.6,-14.4 c -0.3,-2.1 -0.9,-4.2 -1.7,-6.1 -1.2,-2.5 -4.8,-1 -7.2,0.8 0,0 2.5,-0.2 3.2,1.7 0.6,1.9 1.1,3.8 1.3,5.7 z" />
									<path
   id="Tracé_150_00000164485059678566856870000000258775024476150971_"
   class="st16"
   d="m 20.7,-19.7 c 1.8,1.1 0.9,10.1 -0.8,15.4 l -3.8,-1.1 c 0,0 2.8,-11.9 1.7,-13.6 -0.5,-0.9 -1.2,-1.6 -1.9,-2.3 z" />
									<path
   id="Tracé_151_00000142160361773281460870000009729253443423095685_"
   class="st17"
   d="m 20.7,-19.7 c 1.8,1.1 0.9,10.1 -0.8,15.4 l -3.8,-1.1 c 0,0 2.8,-11.9 1.7,-13.6 -0.5,-0.9 -1.2,-1.6 -1.9,-2.3 z" />
									<path
   id="Tracé_152_00000000921544611748827140000002464667424305694880_"
   class="st16"
   d="m 11.9,-14.4 c 0.3,-2.1 0.9,-4.2 1.7,-6.2 1.2,-2.5 4.8,-1 7.2,0.8 0,0 -2.5,-0.2 -3.2,1.7 -0.6,1.9 -1.1,3.8 -1.3,5.7 z" />
									<path
   id="Tracé_153_00000004532906003338878870000012690581489628355495_"
   class="st17"
   d="m 11.9,-14.4 c 0.3,-2.1 0.9,-4.2 1.7,-6.2 1.2,-2.5 4.8,-1 7.2,0.8 0,0 -2.5,-0.2 -3.2,1.7 -0.6,1.9 -1.1,3.8 -1.3,5.7 z" />
									<path
   id="Tracé_154_00000181068875718363414400000012712788411994546069_"
   class="st16"
   d="m 23,22 c 0,0.2 0,0.4 0,0.6 0,5.6 -0.5,9.7 -1.2,10.5 -2.3,2.5 -10.2,3.2 -19.2,3.2 -9,0 -16.9,-0.7 -19.2,-3.2 -0.7,-0.8 -1.2,-4.9 -1.2,-10.5 0,-0.2 0,-0.4 0,-0.6 0,-2.7 0.1,-5.6 0.3,-8.7 0,-0.6 0.1,-1.2 0.1,-1.9 0.9,-11.3 3.2,-23.4 7.6,-26.8 2.4,-1.9 5.8,-3.2 12.3,-3.2 6.5,0 9.9,1.3 12.3,3.2 4.5,3.5 6.8,15.8 7.6,27.1 0,0.6 0.1,1.2 0.1,1.9 0.4,3 0.5,5.9 0.5,8.4" />
									<path
   id="Tracé_155_00000094608300835588069870000017770421069506634680_"
   class="st17"
   d="m 23,22 c 0,0.2 0,0.4 0,0.6 0,5.6 -0.5,9.7 -1.2,10.5 -2.3,2.5 -10.2,3.2 -19.2,3.2 -9,0 -16.9,-0.7 -19.2,-3.2 -0.7,-0.8 -1.2,-4.9 -1.2,-10.5 0,-0.2 0,-0.4 0,-0.6 0,-2.7 0.1,-5.6 0.3,-8.7 0,-0.6 0.1,-1.2 0.1,-1.9 0.9,-11.3 3.2,-23.4 7.6,-26.8 2.4,-1.9 5.8,-3.2 12.3,-3.2 6.5,0 9.9,1.3 12.3,3.2 4.5,3.5 6.8,15.8 7.6,27.1 0,0.6 0.1,1.2 0.1,1.9 0.4,3 0.5,5.9 0.5,8.4 z" />
									<path
   id="Tracé_156_00000036246311023762181170000008017899955955516340_"
   class="st16"
   d="m 22.6,12.1 c -0.3,-0.2 -0.6,-0.4 -1,-0.5 0.6,5.8 0.6,16.2 -0.9,20.3 -2.3,6.2 -29.9,4.5 -34.7,1.6 -4.4,-2.6 -1.8,-22.3 -1.8,-22.3 -0.1,0.1 -1.5,1.4 -1.7,1.5 0,0.2 0,0.4 0,0.7 -0.2,3.1 -0.3,6.1 -0.3,8.7 0,0.2 0,0.4 0,0.6 0,5.6 0.5,9.7 1.2,10.5 2.3,2.5 10.2,3.2 19.2,3.2 9,0 16.9,-0.7 19.2,-3.2 0.7,-0.8 1.2,-4.9 1.2,-10.5 0,-0.2 0,-0.4 0,-0.6 0,-2.6 -0.1,-5.4 -0.3,-8.4 0,-0.6 -0.1,-1.1 -0.1,-1.6" />
									<path
   id="Tracé_157_00000067226447760671562140000004960534878654754725_"
   class="st17"
   d="m 22.6,12.1 c -0.3,-0.2 -0.6,-0.4 -1,-0.5 0.6,5.8 0.6,16.2 -0.9,20.3 -2.3,6.2 -29.9,4.5 -34.7,1.6 -4.4,-2.6 -1.8,-22.3 -1.8,-22.3 -0.1,0.1 -1.5,1.4 -1.7,1.5 0,0.2 0,0.4 0,0.7 -0.2,3.1 -0.3,6.1 -0.3,8.7 0,0.2 0,0.4 0,0.6 0,5.6 0.5,9.7 1.2,10.5 2.3,2.5 10.2,3.2 19.2,3.2 9,0 16.9,-0.7 19.2,-3.2 0.7,-0.8 1.2,-4.9 1.2,-10.5 0,-0.2 0,-0.4 0,-0.6 0,-2.6 -0.1,-5.4 -0.3,-8.4 0,-0.6 -0.1,-1.1 -0.1,-1.6 z" />
									<path
   id="Tracé_158_00000175310638125699492650000002706611178565496727_"
   class="st16"
   d="M 20.4,10.9 C 20,6.8 19.4,2.8 18.5,-1.2 17.3,-6.6 15.6,-10.3 13.8,-11.8 12.1,-13.3 9.2,-15 2.6,-15 c -6.6,0 -9.5,1.7 -11.2,3.1 -3.1,2.5 -5.4,10.6 -6.6,22.6 l -1,-0.1 c 0.4,-4.8 1.2,-9.5 2.4,-14.2 1.2,-4.5 2.8,-7.6 4.6,-9.1 2.6,-2.3 6.3,-3.3 11.8,-3.3 5.5,0 9.1,1 11.9,3.4 2,1.7 3.8,5.5 5.1,11.2 0.9,4 1.5,8.1 1.9,12.3 z" />
									<path
   id="Tracé_159_00000020362192624387435680000009076220330549811865_"
   class="st17"
   d="M 20.4,10.9 C 20,6.8 19.4,2.8 18.5,-1.2 17.3,-6.6 15.6,-10.3 13.8,-11.8 12.1,-13.3 9.2,-15 2.6,-15 c -6.6,0 -9.5,1.7 -11.2,3.1 -3.1,2.5 -5.4,10.6 -6.6,22.6 l -1,-0.1 c 0.4,-4.8 1.2,-9.5 2.4,-14.2 1.2,-4.5 2.8,-7.6 4.6,-9.1 2.6,-2.3 6.3,-3.3 11.8,-3.3 5.5,0 9.1,1 11.9,3.4 2,1.7 3.8,5.5 5.1,11.2 0.9,4 1.5,8.1 1.9,12.3 z" />
									<path
   id="Tracé_160_00000085943347858154592020000015102683858908878517_"
   class="st16"
   d="m 22.7,13.6 c -1.5,-1.7 -3.3,-3 -5.2,-4.1 L 17.3,8.1 c 2,0.8 3.8,2 5.3,3.7 0,0.6 0.1,1.2 0.1,1.8" />
									<path
   id="Tracé_161_00000159446065817927028520000012145348635221432466_"
   class="st17"
   d="m 22.7,13.6 c -1.5,-1.7 -3.3,-3 -5.2,-4.1 L 17.3,8.1 c 2,0.8 3.8,2 5.3,3.7 0,0.6 0.1,1.2 0.1,1.8 z" />
									<path
   id="Tracé_162_00000161609991849533951720000000125847845558520465_"
   class="st16"
   d="m -12.4,8.1 -0.2,1.4 c -1.9,1 -3.5,2.3 -5,3.8 0,-0.6 0.1,-1.2 0.1,-1.9 1.5,-1.4 3.2,-2.6 5.1,-3.3" />
									<path
   id="Tracé_163_00000075866336315852849490000015066323648879454854_"
   class="st17"
   d="m -12.4,8.1 -0.2,1.4 c -1.9,1 -3.5,2.3 -5,3.8 0,-0.6 0.1,-1.2 0.1,-1.9 1.5,-1.4 3.2,-2.6 5.1,-3.3 z" />
									<path
   id="Tracé_164_00000093871631371184026250000005675367087254147743_"
   class="st16"
   d="m 19.1,23.8 c 0,0.2 0,0.3 0,0.5 0,4.9 -0.4,8.5 -1,9.2 -1.3,1.1 -3,1.9 -4.7,2 -3.6,0.6 -7.2,0.8 -10.8,0.8 -7.3,0 -13.6,-0.6 -15.5,-2.8 -0.6,-0.7 -0.9,-4.3 -1,-9.2 0,-0.2 0,-0.3 0,-0.5 0,-11.3 1.7,-28.8 6.5,-32.8 2,-1.6 4.7,-2.8 10,-2.8 5.3,0 8,1.2 10,2.8 1.8,1.5 3.2,5 4.2,9.4 1.6,7.7 2.3,15.5 2.3,23.4" />
									<path
   id="Tracé_165_00000000219164298917727430000002533110708944196782_"
   class="st17"
   d="m 19.1,23.8 c 0,0.2 0,0.3 0,0.5 0,4.9 -0.4,8.5 -1,9.2 -1.3,1.1 -3,1.9 -4.7,2 -3.6,0.6 -7.2,0.8 -10.8,0.8 -7.3,0 -13.6,-0.6 -15.5,-2.8 -0.6,-0.7 -0.9,-4.3 -1,-9.2 0,-0.2 0,-0.3 0,-0.5 0,-11.3 1.7,-28.8 6.5,-32.8 2,-1.6 4.7,-2.8 10,-2.8 5.3,0 8,1.2 10,2.8 1.8,1.5 3.2,5 4.2,9.4 1.6,7.7 2.3,15.5 2.3,23.4 z" />
									<path
   id="Tracé_166_00000150794107771622078670000004334539257303094670_"
   class="st16"
   d="m 16.8,0.4 c 1.6,7.7 2.3,15.6 2.3,23.4 0,0.2 0,0.3 0,0.5 0,4.9 -0.4,8.5 -1,9.2 -1.3,1.1 -3,1.9 -4.7,2" />
									<path
   id="Tracé_167_00000067925222158715039140000012404784198143348157_"
   class="st17"
   d="m 16.8,0.4 c 1.6,7.7 2.3,15.6 2.3,23.4 0,0.2 0,0.3 0,0.5 0,4.9 -0.4,8.5 -1,9.2 -1.3,1.1 -3,1.9 -4.7,2" />
									<path
   id="Tracé_168_00000169516393003452001850000013653343782953943966_"
   class="st16"
   d="m 10.3,-15.6 c -1.3,0 -2.2,-1.1 -3.1,-2.2 -1.1,-1.4 -2.2,-2.9 -4.6,-2.9 -2.5,0 -3.9,1.7 -5.1,3.1 -0.9,1.1 -1.7,2 -2.8,2 -0.5,0 -0.8,-0.4 -0.8,-0.9 0,-0.4 0.4,-0.7 0.8,-0.8 0.3,0 1,-0.8 1.5,-1.4 1.3,-1.6 3.2,-3.7 6.4,-3.7 2.4,0.1 4.6,1.4 5.9,3.5 0.6,0.8 1.2,1.6 1.7,1.6 0.5,0 0.8,0.4 0.8,0.9 0.1,0.5 -0.3,0.8 -0.7,0.8" />
									<path
   id="Tracé_169_00000043452901378253095180000018029562400206809503_"
   class="st17"
   d="m 10.3,-15.6 c -1.3,0 -2.2,-1.1 -3.1,-2.2 -1.1,-1.4 -2.2,-2.9 -4.6,-2.9 -2.5,0 -3.9,1.7 -5.1,3.1 -0.9,1.1 -1.7,2 -2.8,2 -0.5,0 -0.8,-0.4 -0.8,-0.9 0,-0.4 0.4,-0.7 0.8,-0.8 0.3,0 1,-0.8 1.5,-1.4 1.3,-1.6 3.2,-3.7 6.4,-3.7 2.4,0.1 4.6,1.4 5.9,3.5 0.6,0.8 1.2,1.6 1.7,1.6 0.5,0 0.8,0.4 0.8,0.9 0.1,0.5 -0.3,0.8 -0.7,0.8 z" />
								</g>
							</g>
						</g>
					</g>
				</g>
			</g>
			<g
   id="Groupe_116_00000145018903136645093050000003298565733876842125_"
   transform="translate(1211.42,638.426)">
				<g
   id="Groupe_38_00000090979673018905110060000009789749513669359500_"
   transform="translate(14.955,25.574)">
					<g
   id="g184">
						<g
   id="g182">
							<defs
   id="defs173">
								<rect
   id="SVGID_00000005973737638930113410000016887342973974504637_"
   x="-14.4"
   y="-13"
   width="19.9"
   height="15.9" />
							</defs>
							<clipPath
   id="SVGID_00000140006317629631476080000003633206832735508896_">
								<use
   xlink:href="#SVGID_00000005973737638930113410000016887342973974504637_"
   style="overflow:visible"
   id="use175"
   x="0"
   y="0"
   width="100%"
   height="100%" />
							</clipPath>
							
								<g
   id="Groupe_37_00000030485424024868715270000000042387382180658623_"
   clip-path="url(#SVGID_00000140006317629631476080000003633206832735508896_)">
								<path
   id="Tracé_94_00000131352398602145989750000000215776096207891079_"
   class="st19"
   d="m 2.1,-3.3 c 1.7,-0.9 2.7,-2.7 2.6,-4.6 0,-4 -2.9,-5.1 -6.3,-5.1 h -12.7 l 4.2,3.3 h 8.2 c 1.7,0 2.5,0.4 2.5,1.8 0,1.4 -0.9,2.1 -2.5,2.1 h -6.2 v 0 l 6.4,0.2 -6.7,0.2 6.4,0.3 -6.7,0.2 6.4,0.2 -6.7,0.3 6.4,0.2 -6.6,0.2 6.4,0.2 -6.6,0.2 6.4,0.2 -6.6,0.2 6.3,0.2 -6.7,0.5 h 8.1 l 2.7,5.3 h 4.7 z" />
								<path
   id="Tracé_95_00000070102942899451667620000012534579970403492273_"
   class="st19"
   d="m 2.4,-9.7 c 0.8,0 1.7,0.3 2.3,0.9 C 4.3,-12 1.5,-13 -1.6,-13 h -12.7 l 4.2,3.3 z" />
								<path
   id="Tracé_96_00000134212572142938307820000002520280407586450621_"
   class="st20"
   d="m 2.1,-3.3 v 0 c -1.1,0.6 -2.5,0.8 -3.8,0.8 h -0.5 0.4 l 2.7,5.3 h 4.7 z" />
							</g>
						</g>
					</g>
				</g>
			</g>
		</g>
	</g>
</g>
</svg>
