<?xml version="1.0" encoding="UTF-8" standalone="no"?>
<!-- Generator: Adobe Illustrator 26.0.3, SVG Export Plug-In . SVG Version: 6.00 Build 0)  -->

<svg
   version="1.1"
   id="Calque_1"
   x="0px"
   y="0px"
   viewBox="0 0 340 100"
   style="enable-background:new 0 0 340 100;"
   xml:space="preserve"
   sodipodi:docname="logo_SAD_Rizomo.svg"
   inkscape:version="1.1.1 (1:1.1+202109281949+c3084ef5ed)"
   xmlns:inkscape="http://www.inkscape.org/namespaces/inkscape"
   xmlns:sodipodi="http://sodipodi.sourceforge.net/DTD/sodipodi-0.dtd"
   xmlns:xlink="http://www.w3.org/1999/xlink"
   xmlns="http://www.w3.org/2000/svg"
   xmlns:svg="http://www.w3.org/2000/svg"><defs
   id="defs211" /><sodipodi:namedview
   id="namedview209"
   pagecolor="#ffffff"
   bordercolor="#666666"
   borderopacity="1.0"
   inkscape:pageshadow="2"
   inkscape:pageopacity="0.0"
   inkscape:pagecheckerboard="0"
   showgrid="false"
   inkscape:zoom="3.6352941"
   inkscape:cx="169.86246"
   inkscape:cy="50.064725"
   inkscape:window-width="1920"
   inkscape:window-height="1015"
   inkscape:window-x="0"
   inkscape:window-y="0"
   inkscape:window-maximized="1"
   inkscape:current-layer="Calque_1" />
<style
   type="text/css"
   id="style2">
	.st0{display:none;}
	.st1{display:inline;}
	.st2{fill:#283376;}
	.st3{fill:none;stroke:#293173;}
	.st4{clip-path:url(#SVGID_00000119084394747960884030000015610911358754432177_);}
	.st5{fill:#283376;stroke:#FFFFFF;stroke-width:0.75;}
	.st6{fill:#283376;stroke:#FFFFFF;stroke-width:0.75;stroke-miterlimit:10;}
	.st7{clip-path:url(#SVGID_00000141413847636841516730000008379233204419411625_);}
	.st8{fill:#FFFFFF;}
	.st9{fill:none;stroke:#CECECE;}
	.st10{clip-path:url(#SVGID_00000047023411560656960130000001988814763794663846_);}
	.st11{fill:#FFFFFF;stroke:#CECECE;stroke-width:0.5;}
	.st12{fill:#FFFFFF;stroke:#CECECE;stroke-width:0.5;stroke-miterlimit:10;}
	.st13{clip-path:url(#SVGID_00000107566717206670083360000001019226661891085996_);}
	.st14{fill:#CECECE;}
	.st15{clip-path:url(#SVGID_00000052096817786456754790000002037411145197002371_);}
	.st16{fill:#FFFFFF;stroke:#000091;stroke-width:0.5;}
	.st17{fill:#FFFFFF;stroke:#000091;stroke-width:0.5;stroke-miterlimit:10;}
	.st18{clip-path:url(#SVGID_00000013909644071838108210000013567134331178381754_);}
	.st19{fill:#000091;}
	.st20{fill:#000091;stroke:#000091;}
	.st21{font-family:'Montserrat-Bold';}
	.st22{font-size:50.373px;}
	.st23{clip-path:url(#SVGID_00000085216179833729137430000013455525247358624916_);}
</style>
<g
   id="Calque_1_00000109009668445588046740000007315548561085702282_"
   class="st0">
	<g
   id="Groupe_136"
   transform="translate(-1172 -604)"
   class="st1">
		<g
   id="Groupe_117">
			<g
   id="Composant_4_1"
   transform="translate(1202 634)">
				<g
   transform="matrix(1, 0, 0, 1, -30, -30)"
   id="g11">
					<g
   id="Ellipse_1-2"
   transform="translate(30 30)">
						<g
   id="g8">
							<circle
   class="st2"
   cx="139.8"
   cy="20"
   r="31"
   id="circle4" />
							<circle
   class="st3"
   cx="139.8"
   cy="20"
   r="30.5"
   id="circle6" />
						</g>
					</g>
				</g>
				<g
   id="Groupe_115"
   transform="translate(17.422 11.5)">
					<g
   id="g46">
						<g
   id="g44">
							<defs
   id="defs14">
								<rect
   id="SVGID_1_"
   x="108.8"
   y="-11"
   width="27.2"
   height="39" />
							</defs>
							<clipPath
   id="SVGID_00000167370180062731593500000013710276695523905943_">
								<use
   xlink:href="#SVGID_1_"
   style="overflow:visible;"
   id="use16" />
							</clipPath>
							<g
   id="Groupe_114"
   style="clip-path:url(#SVGID_00000167370180062731593500000013710276695523905943_);"
   clip-path="url(#SVGID_00000167370180062731593500000013710276695523905943_)">
								<path
   id="Tracé_146"
   class="st5"
   d="M110.4-9.2c-1.2,0.7-0.6,6.7,0.5,10.2l2.5-0.8c0,0-1.9-7.9-1.1-9          c0.3-0.6,0.8-1.1,1.3-1.5L110.4-9.2z" />
								<path
   id="Tracé_147"
   class="st6"
   d="M110.4-9.2c-1.2,0.7-0.6,6.7,0.5,10.2l2.5-0.8c0,0-1.9-7.9-1.1-9          c0.3-0.6,0.8-1.1,1.3-1.5L110.4-9.2z" />
								<path
   id="Tracé_148"
   class="st5"
   d="M116.3-5.7c-0.2-1.4-0.6-2.8-1.1-4.1c-0.8-1.7-3.2-0.7-4.8,0.5c0,0,1.7-0.1,2.1,1.1          c0.4,1.2,0.7,2.5,0.9,3.8L116.3-5.7z" />
								<path
   id="Tracé_149"
   class="st6"
   d="M116.3-5.7c-0.2-1.4-0.6-2.8-1.1-4.1c-0.8-1.7-3.2-0.7-4.8,0.5c0,0,1.7-0.1,2.1,1.1          c0.4,1.2,0.7,2.5,0.9,3.8L116.3-5.7z" />
								<path
   id="Tracé_150"
   class="st5"
   d="M134.5-9.2c1.2,0.7,0.6,6.7-0.5,10.2l-2.5-0.8c0,0,1.9-7.9,1.1-9          c-0.4-0.6-0.8-1.1-1.3-1.5L134.5-9.2z" />
								<path
   id="Tracé_151"
   class="st6"
   d="M134.5-9.2c1.2,0.7,0.6,6.7-0.5,10.2l-2.5-0.8c0,0,1.9-7.9,1.1-9          c-0.4-0.6-0.8-1.1-1.3-1.5L134.5-9.2z" />
								<path
   id="Tracé_152"
   class="st5"
   d="M128.6-5.7c0.2-1.4,0.6-2.8,1.1-4.1c0.8-1.6,3.2-0.6,4.8,0.5c0,0-1.7-0.1-2.1,1.1          c-0.4,1.2-0.7,2.5-0.9,3.8L128.6-5.7z" />
								<path
   id="Tracé_153"
   class="st6"
   d="M128.6-5.7c0.2-1.4,0.6-2.8,1.1-4.1c0.8-1.6,3.2-0.6,4.8,0.5c0,0-1.7-0.1-2.1,1.1          c-0.4,1.2-0.7,2.5-0.9,3.8L128.6-5.7z" />
								<path
   id="Tracé_154"
   class="st5"
   d="M135.9,18.5c0,0.1,0,0.3,0,0.4c0,3.7-0.3,6.5-0.8,7c-1.6,1.6-6.8,2.1-12.8,2.1          c-6,0-11.2-0.5-12.8-2.1c-0.5-0.5-0.8-3.2-0.8-7c0-0.1,0-0.3,0-0.4c0-1.8,0.1-3.8,0.2-5.8c0-0.4,0.1-0.8,0.1-1.2          c0.6-7.5,2.1-15.6,5.1-17.8c1.6-1.2,3.9-2.1,8.2-2.1s6.6,0.9,8.2,2.1c3,2.3,4.5,10.5,5.1,18c0,0.4,0.1,0.8,0.1,1.2          C135.9,14.9,135.9,16.8,135.9,18.5" />
								<path
   id="Tracé_155"
   class="st6"
   d="M135.9,18.5c0,0.1,0,0.3,0,0.4c0,3.7-0.3,6.5-0.8,7c-1.6,1.6-6.8,2.1-12.8,2.1          c-6,0-11.2-0.5-12.8-2.1c-0.5-0.5-0.8-3.2-0.8-7c0-0.1,0-0.3,0-0.4c0-1.8,0.1-3.8,0.2-5.8c0-0.4,0.1-0.8,0.1-1.2          c0.6-7.5,2.1-15.6,5.1-17.8c1.6-1.2,3.9-2.1,8.2-2.1s6.6,0.9,8.2,2.1c3,2.3,4.5,10.5,5.1,18c0,0.4,0.1,0.8,0.1,1.2          C135.9,14.9,135.9,16.8,135.9,18.5z" />
								<path
   id="Tracé_156"
   class="st5"
   d="M135.7,11.9c-0.2-0.1-0.4-0.2-0.6-0.4c0.4,3.8,0.4,10.8-0.6,13.5          c-1.5,4.1-19.9,3-23,1.1c-2.9-1.7-1.2-14.8-1.2-14.8c0,0-1,0.9-1.1,1c0,0.1,0,0.3,0,0.4c-0.1,2.1-0.2,4-0.2,5.8          c0,0.1,0,0.3,0,0.4c0,3.7,0.3,6.5,0.8,7c1.6,1.6,6.8,2.1,12.8,2.1s11.2-0.5,12.8-2.1c0.5-0.5,0.8-3.2,0.8-7          c0-0.1,0-0.3,0-0.4c0-1.7-0.1-3.6-0.2-5.6C135.7,12.6,135.7,12.2,135.7,11.9" />
								<path
   id="Tracé_157"
   class="st6"
   d="M135.7,11.9c-0.2-0.1-0.4-0.2-0.6-0.4c0.4,3.8,0.4,10.8-0.6,13.5          c-1.5,4.1-19.9,3-23,1.1c-2.9-1.7-1.2-14.8-1.2-14.8c0,0-1,0.9-1.1,1c0,0.1,0,0.3,0,0.4c-0.1,2.1-0.2,4-0.2,5.8          c0,0.1,0,0.3,0,0.4c0,3.7,0.3,6.5,0.8,7c1.6,1.6,6.8,2.1,12.8,2.1s11.2-0.5,12.8-2.1c0.5-0.5,0.8-3.2,0.8-7          c0-0.1,0-0.3,0-0.4c0-1.7-0.1-3.6-0.2-5.6C135.7,12.6,135.7,12.2,135.7,11.9z" />
								<path
   id="Tracé_158"
   class="st5"
   d="M134.2,11.1C134,8.4,133.6,5.7,133,3c-0.8-3.6-1.9-6-3.1-7.1c-1.1-1-3.1-2.1-7.5-2.1          S116.1-5,114.9-4c-2,1.7-3.6,7-4.4,15l-0.7-0.1c0.3-3.2,0.8-6.3,1.6-9.4c0.8-3,1.8-5.1,3-6.1c1.8-1.5,4.3-2.2,7.9-2.2          c3.6,0,6.1,0.7,7.9,2.2c1.4,1.1,2.5,3.6,3.4,7.4c0.6,2.7,1,5.4,1.3,8.1L134.2,11.1z" />
								<path
   id="Tracé_159"
   class="st6"
   d="M134.2,11.1C134,8.4,133.6,5.7,133,3c-0.8-3.6-1.9-6-3.1-7.1c-1.1-1-3.1-2.1-7.5-2.1          S116.1-5,114.9-4c-2,1.7-3.6,7-4.4,15l-0.7-0.1c0.3-3.2,0.8-6.3,1.6-9.4c0.8-3,1.8-5.1,3-6.1c1.8-1.5,4.3-2.2,7.9-2.2          c3.6,0,6.1,0.7,7.9,2.2c1.4,1.1,2.5,3.6,3.4,7.4c0.6,2.7,1,5.4,1.3,8.1L134.2,11.1z" />
								<path
   id="Tracé_160"
   class="st5"
   d="M135.8,12.9c-1-1.1-2.2-2-3.5-2.7l-0.1-1c1.3,0.5,2.6,1.4,3.5,2.4          C135.7,12.1,135.7,12.5,135.8,12.9" />
								<path
   id="Tracé_161"
   class="st6"
   d="M135.8,12.9c-1-1.1-2.2-2-3.5-2.7l-0.1-1c1.3,0.5,2.6,1.4,3.5,2.4          C135.7,12.1,135.7,12.5,135.8,12.9z" />
								<path
   id="Tracé_162"
   class="st5"
   d="M112.4,9.2l-0.1,1c-1.2,0.7-2.3,1.5-3.3,2.5c0-0.4,0.1-0.8,0.1-1.2          C110,10.5,111.2,9.7,112.4,9.2" />
								<path
   id="Tracé_163"
   class="st6"
   d="M112.4,9.2l-0.1,1c-1.2,0.7-2.3,1.5-3.3,2.5c0-0.4,0.1-0.8,0.1-1.2          C110,10.5,111.2,9.7,112.4,9.2z" />
								<path
   id="Tracé_164"
   class="st5"
   d="M133.4,19.7c0,0.1,0,0.2,0,0.3c0,3.2-0.3,5.7-0.6,6.1c-0.9,0.8-2,1.2-3.1,1.4          c-2.4,0.4-4.8,0.5-7.2,0.5c-4.8,0-9.1-0.4-10.3-1.9c-0.4-0.4-0.6-2.9-0.6-6.1c0-0.1,0-0.2,0-0.3c0-7.5,1.1-19.1,4.3-21.8          c1.3-1.1,3.1-1.9,6.6-1.9c3.5,0,5.3,0.8,6.6,1.9c1.2,1,2.1,3.3,2.8,6.2C132.9,9.2,133.4,14.4,133.4,19.7" />
								<path
   id="Tracé_165"
   class="st6"
   d="M133.4,19.7c0,0.1,0,0.2,0,0.3c0,3.2-0.3,5.7-0.6,6.1c-0.9,0.8-2,1.2-3.1,1.4          c-2.4,0.4-4.8,0.5-7.2,0.5c-4.8,0-9.1-0.4-10.3-1.9c-0.4-0.4-0.6-2.9-0.6-6.1c0-0.1,0-0.2,0-0.3c0-7.5,1.1-19.1,4.3-21.8          c1.3-1.1,3.1-1.9,6.6-1.9c3.5,0,5.3,0.8,6.6,1.9c1.2,1,2.1,3.3,2.8,6.2C132.9,9.2,133.4,14.4,133.4,19.7z" />
								<path
   id="Tracé_166"
   class="st5"
   d="M131.8,4.1c1,5.1,1.5,10.3,1.5,15.6c0,0.1,0,0.2,0,0.3c0,3.2-0.3,5.7-0.6,6.1          c-0.9,0.8-2,1.2-3.1,1.4" />
								<path
   id="Tracé_167"
   class="st6"
   d="M131.8,4.1c1,5.1,1.5,10.3,1.5,15.6c0,0.1,0,0.2,0,0.3c0,3.2-0.3,5.7-0.6,6.1          c-0.9,0.8-2,1.2-3.1,1.4" />
								<path
   id="Tracé_168"
   class="st5"
   d="M127.5-6.5c-0.9,0-1.4-0.7-2-1.5c-0.7-0.9-1.5-1.9-3-1.9c-1.6,0-2.6,1.1-3.4,2.1          c-0.6,0.7-1.1,1.3-1.8,1.3c-0.3,0-0.5-0.3-0.5-0.6c0-0.3,0.2-0.5,0.5-0.5c0.2,0,0.6-0.5,1-0.9c0.9-1,2.1-2.4,4.2-2.4          c1.6,0.1,3.1,0.9,3.9,2.3c0.4,0.6,0.8,1,1.2,1c0.3,0,0.5,0.3,0.5,0.6C128-6.7,127.8-6.5,127.5-6.5" />
								<path
   id="Tracé_169"
   class="st6"
   d="M127.5-6.5c-0.9,0-1.4-0.7-2-1.5c-0.7-0.9-1.5-1.9-3-1.9c-1.6,0-2.6,1.1-3.4,2.1          c-0.6,0.7-1.1,1.3-1.8,1.3c-0.3,0-0.5-0.3-0.5-0.6c0-0.3,0.2-0.5,0.5-0.5c0.2,0,0.6-0.5,1-0.9c0.9-1,2.1-2.4,4.2-2.4          c1.6,0.1,3.1,0.9,3.9,2.3c0.4,0.6,0.8,1,1.2,1c0.3,0,0.5,0.3,0.5,0.6C128-6.7,127.8-6.5,127.5-6.5L127.5-6.5z" />
							</g>
						</g>
					</g>
				</g>
			</g>
			<g
   id="Groupe_116"
   transform="translate(1211.42 638.426)">
				<g
   id="Groupe_38"
   transform="translate(14.955 25.574)">
					<g
   id="g62">
						<g
   id="g60">
							<defs
   id="defs51">
								<rect
   id="SVGID_00000155826578540112520830000018312937847525926308_"
   x="108.8"
   y="-11"
   width="13.2"
   height="10.5" />
							</defs>
							<clipPath
   id="SVGID_00000169560329223861502450000012453916276938413722_">
								<use
   xlink:href="#SVGID_00000155826578540112520830000018312937847525926308_"
   style="overflow:visible;"
   id="use53" />
							</clipPath>
							
								<g
   id="Groupe_37"
   transform="translate(0 0)"
   style="clip-path:url(#SVGID_00000169560329223861502450000012453916276938413722_);"
   clip-path="url(#SVGID_00000169560329223861502450000012453916276938413722_)">
								<path
   id="Tracé_94"
   class="st8"
   d="M119.8-4.5c1.1-0.6,1.8-1.8,1.7-3.1c0-2.6-1.9-3.4-4.2-3.4h-8.4l2.8,2.2h5.5          c1.1,0,1.7,0.3,1.7,1.2s-0.6,1.4-1.7,1.4H113l0,0l4.3,0.2l-4.4,0.2l4.2,0.2l-4.4,0.2l4.2,0.2l-4.4,0.2l4.2,0.2l-4.4,0.2          l4.2,0.2l-4.4,0.2l4.2,0.2l-4.4,0.1l4.2,0.2L111.7-4h5.4l1.8,3.5h3.1L119.8-4.5z" />
								<path
   id="Tracé_95"
   class="st8"
   d="M119.9-8.8c0.6,0,1.1,0.2,1.5,0.6c-0.3-2.2-2.1-2.8-4.2-2.8h-8.5l2.8,2.2L119.9-8.8          L119.9-8.8z" />
								<path
   id="Tracé_96"
   class="st8"
   d="M119.8-4.5L119.8-4.5C119-4.2,118.1-4,117.2-4l-0.3,0h0.2l1.8,3.5h3.1L119.8-4.5z" />
							</g>
						</g>
					</g>
				</g>
			</g>
		</g>
	</g>
</g>
<g
   id="Calque_2_00000154389847604031421540000015960802120216242833_"
   class="st0">
	<g
   id="Groupe_118"
   transform="translate(-1172 -604)"
   class="st1">
		<g
   id="Composant_4_33"
   transform="translate(1202 634)">
			<g
   transform="matrix(1, 0, 0, 1, -30, -30)"
   id="g76">
				<g
   id="Ellipse_1-3"
   transform="translate(30 30)">
					<g
   id="g73">
						<circle
   class="st8"
   cx="139.8"
   cy="20.1"
   r="31"
   id="circle69" />
						<circle
   class="st9"
   cx="139.8"
   cy="20.1"
   r="30.5"
   id="circle71" />
					</g>
				</g>
			</g>
			<g
   id="Groupe_115_00000150816509747070425500000012548562954071229343_"
   transform="translate(17.422 11.5)">
				<g
   id="g111">
					<g
   id="g109">
						<defs
   id="defs79">
							<rect
   id="SVGID_00000163070280776146784290000004656978282479980710_"
   x="108.8"
   y="-10.9"
   width="27.2"
   height="39" />
						</defs>
						<clipPath
   id="SVGID_00000050633993664198742170000014546980432950018981_">
							<use
   xlink:href="#SVGID_00000163070280776146784290000004656978282479980710_"
   style="overflow:visible;"
   id="use81" />
						</clipPath>
						
							<g
   id="Groupe_114_00000144308591498119330500000002969195572171470726_"
   style="clip-path:url(#SVGID_00000050633993664198742170000014546980432950018981_);"
   clip-path="url(#SVGID_00000050633993664198742170000014546980432950018981_)">
							<path
   id="Tracé_146_00000091699159162005896580000016504284330004176295_"
   class="st11"
   d="M110.4-9.2         c-1.2,0.7-0.6,6.7,0.5,10.2l2.5-0.8c0,0-1.9-7.9-1.1-9c0.4-0.6,0.8-1.1,1.3-1.5L110.4-9.2z" />
							<path
   id="Tracé_147_00000119826452993041688250000018013541907205191297_"
   class="st12"
   d="M110.4-9.2         c-1.2,0.7-0.6,6.7,0.5,10.2l2.5-0.8c0,0-1.9-7.9-1.1-9c0.4-0.6,0.8-1.1,1.3-1.5L110.4-9.2z" />
							<path
   id="Tracé_148_00000173144101698866105650000011199294258605285566_"
   class="st11"
   d="M116.3-5.6         c-0.2-1.4-0.6-2.8-1.1-4.1c-0.8-1.6-3.2-0.7-4.8,0.5c0,0,1.7-0.1,2.1,1.1c0.4,1.2,0.7,2.5,0.9,3.8L116.3-5.6z" />
							<path
   id="Tracé_149_00000158002172672167419740000012589955925868752808_"
   class="st12"
   d="M116.3-5.6         c-0.2-1.4-0.6-2.8-1.1-4.1c-0.8-1.6-3.2-0.7-4.8,0.5c0,0,1.7-0.1,2.1,1.1c0.4,1.2,0.7,2.5,0.9,3.8L116.3-5.6z" />
							<path
   id="Tracé_150_00000089575970445923761990000016058476838093169342_"
   class="st11"
   d="M134.4-9.2         c1.2,0.7,0.6,6.7-0.5,10.2l-2.5-0.8c0,0,1.9-7.9,1.1-9c-0.3-0.6-0.8-1.1-1.3-1.5L134.4-9.2z" />
							<path
   id="Tracé_151_00000073002561187702130060000004149732431732570539_"
   class="st12"
   d="M134.4-9.2         c1.2,0.7,0.6,6.7-0.5,10.2l-2.5-0.8c0,0,1.9-7.9,1.1-9c-0.3-0.6-0.8-1.1-1.3-1.5L134.4-9.2z" />
							<path
   id="Tracé_152_00000145772503157958614100000010800504639725476543_"
   class="st11"
   d="M128.6-5.6         c0.2-1.4,0.6-2.8,1.1-4.1c0.8-1.6,3.2-0.6,4.8,0.5c0,0-1.7-0.1-2.1,1.1c-0.4,1.2-0.7,2.5-0.9,3.8L128.6-5.6z" />
							<path
   id="Tracé_153_00000115475296949754831420000006535645310117148547_"
   class="st12"
   d="M128.6-5.6         c0.2-1.4,0.6-2.8,1.1-4.1c0.8-1.6,3.2-0.6,4.8,0.5c0,0-1.7-0.1-2.1,1.1c-0.4,1.2-0.7,2.5-0.9,3.8L128.6-5.6z" />
							<path
   id="Tracé_154_00000088093676486419587570000006243184720617738626_"
   class="st11"
   d="M135.9,18.6c0,0.1,0,0.3,0,0.4         c0,3.7-0.3,6.5-0.8,7c-1.6,1.6-6.8,2.1-12.7,2.1c-6,0-11.2-0.5-12.8-2.1c-0.5-0.5-0.8-3.2-0.8-7c0-0.1,0-0.3,0-0.4         c0-1.8,0-3.8,0.2-5.8c0-0.4,0-0.8,0.1-1.2c0.6-7.5,2.1-15.6,5.1-17.8c1.6-1.2,3.9-2.1,8.2-2.1s6.6,0.9,8.2,2.1         c3,2.3,4.5,10.5,5.1,18c0,0.4,0.1,0.8,0.1,1.2C135.9,15,135.9,16.9,135.9,18.6" />
							<path
   id="Tracé_155_00000036940411885016664280000002340491836829031853_"
   class="st12"
   d="M135.9,18.6c0,0.1,0,0.3,0,0.4         c0,3.7-0.3,6.5-0.8,7c-1.6,1.6-6.8,2.1-12.7,2.1c-6,0-11.2-0.5-12.8-2.1c-0.5-0.5-0.8-3.2-0.8-7c0-0.1,0-0.3,0-0.4         c0-1.8,0-3.8,0.2-5.8c0-0.4,0-0.8,0.1-1.2c0.6-7.5,2.1-15.6,5.1-17.8c1.6-1.2,3.9-2.1,8.2-2.1s6.6,0.9,8.2,2.1         c3,2.3,4.5,10.5,5.1,18c0,0.4,0.1,0.8,0.1,1.2C135.9,15,135.9,16.9,135.9,18.6z" />
							<path
   id="Tracé_156_00000169528056596256857720000013465719563913204157_"
   class="st11"
   d="M135.7,12         c-0.2-0.1-0.4-0.2-0.6-0.4c0.4,3.8,0.4,10.7-0.6,13.5c-1.5,4.1-19.9,3-23,1.1c-2.9-1.7-1.2-14.8-1.2-14.8c0,0-1,0.9-1.1,1         c0,0.1,0,0.3,0,0.4c-0.1,2.1-0.2,4-0.2,5.8c0,0.1,0,0.3,0,0.4c0,3.7,0.3,6.5,0.8,7c1.5,1.6,6.8,2.1,12.8,2.1         c6,0,11.2-0.5,12.8-2.1c0.5-0.5,0.8-3.2,0.8-7c0-0.1,0-0.3,0-0.4c0-1.7-0.1-3.6-0.2-5.6C135.7,12.7,135.7,12.3,135.7,12" />
							<path
   id="Tracé_157_00000044170672048404656890000017628536912278173110_"
   class="st12"
   d="M135.7,12         c-0.2-0.1-0.4-0.2-0.6-0.4c0.4,3.8,0.4,10.7-0.6,13.5c-1.5,4.1-19.9,3-23,1.1c-2.9-1.7-1.2-14.8-1.2-14.8c0,0-1,0.9-1.1,1         c0,0.1,0,0.3,0,0.4c-0.1,2.1-0.2,4-0.2,5.8c0,0.1,0,0.3,0,0.4c0,3.7,0.3,6.5,0.8,7c1.5,1.6,6.8,2.1,12.8,2.1         c6,0,11.2-0.5,12.8-2.1c0.5-0.5,0.8-3.2,0.8-7c0-0.1,0-0.3,0-0.4c0-1.7-0.1-3.6-0.2-5.6C135.7,12.7,135.7,12.3,135.7,12z" />
							<path
   id="Tracé_158_00000129192713295033881610000001391188183810362252_"
   class="st11"
   d="M134.2,11.2         c-0.2-2.7-0.7-5.4-1.2-8.1c-0.8-3.6-1.9-6-3.1-7.1c-1.2-1-3-2.1-7.5-2.1c-4.4,0-6.3,1.1-7.5,2.1c-2,1.7-3.6,7-4.4,15         l-0.7-0.1c0.3-3.2,0.8-6.3,1.6-9.4c0.8-3,1.8-5.1,3-6.1c1.9-1.5,4.3-2.2,7.9-2.2c3.6,0,6.1,0.7,7.9,2.2         c1.4,1.1,2.5,3.6,3.4,7.4c0.6,2.7,1,5.4,1.3,8.1L134.2,11.2z" />
							<path
   id="Tracé_159_00000079444473208179484060000008927940492031595703_"
   class="st12"
   d="M134.2,11.2         c-0.2-2.7-0.7-5.4-1.2-8.1c-0.8-3.6-1.9-6-3.1-7.1c-1.2-1-3-2.1-7.5-2.1c-4.4,0-6.3,1.1-7.5,2.1c-2,1.7-3.6,7-4.4,15         l-0.7-0.1c0.3-3.2,0.8-6.3,1.6-9.4c0.8-3,1.8-5.1,3-6.1c1.9-1.5,4.3-2.2,7.9-2.2c3.6,0,6.1,0.7,7.9,2.2         c1.4,1.1,2.5,3.6,3.4,7.4c0.6,2.7,1,5.4,1.3,8.1L134.2,11.2z" />
							<path
   id="Tracé_160_00000013899851009297608080000011609248511245098117_"
   class="st11"
   d="M135.7,13c-1-1.1-2.2-2-3.5-2.7         l-0.1-1c1.4,0.5,2.6,1.4,3.5,2.4C135.7,12.2,135.7,12.6,135.7,13" />
							<path
   id="Tracé_161_00000060748478363266605570000007239782862599905210_"
   class="st12"
   d="M135.7,13c-1-1.1-2.2-2-3.5-2.7         l-0.1-1c1.4,0.5,2.6,1.4,3.5,2.4C135.7,12.2,135.7,12.6,135.7,13z" />
							<path
   id="Tracé_162_00000056396486537806905490000011312851905030238339_"
   class="st11"
   d="M112.4,9.3l-0.1,1         c-1.2,0.7-2.3,1.5-3.3,2.5c0-0.4,0-0.8,0.1-1.2C110,10.6,111.2,9.8,112.4,9.3" />
							<path
   id="Tracé_163_00000083784090181667292760000012716401177496426153_"
   class="st12"
   d="M112.4,9.3l-0.1,1         c-1.2,0.7-2.3,1.5-3.3,2.5c0-0.4,0-0.8,0.1-1.2C110,10.6,111.2,9.8,112.4,9.3z" />
							<path
   id="Tracé_164_00000168117715615511697460000018294041567328792200_"
   class="st11"
   d="M133.3,19.8c0,0.1,0,0.2,0,0.3         c0,3.2-0.3,5.7-0.6,6.1c-0.9,0.8-2,1.2-3.1,1.4c-2.4,0.4-4.8,0.5-7.2,0.5c-4.8,0-9.1-0.4-10.3-1.9c-0.4-0.4-0.6-2.9-0.6-6.1         c0-0.1,0-0.2,0-0.3c0-7.5,1.1-19.1,4.3-21.8c1.3-1.1,3.1-1.9,6.6-1.9s5.3,0.8,6.6,1.9c1.2,1,2.1,3.3,2.8,6.2         C132.9,9.3,133.4,14.5,133.3,19.8" />
							<path
   id="Tracé_165_00000060003387543556724980000014076186678998690465_"
   class="st12"
   d="M133.3,19.8c0,0.1,0,0.2,0,0.3         c0,3.2-0.3,5.7-0.6,6.1c-0.9,0.8-2,1.2-3.1,1.4c-2.4,0.4-4.8,0.5-7.2,0.5c-4.8,0-9.1-0.4-10.3-1.9c-0.4-0.4-0.6-2.9-0.6-6.1         c0-0.1,0-0.2,0-0.3c0-7.5,1.1-19.1,4.3-21.8c1.3-1.1,3.1-1.9,6.6-1.9s5.3,0.8,6.6,1.9c1.2,1,2.1,3.3,2.8,6.2         C132.9,9.3,133.4,14.5,133.3,19.8z" />
							<path
   id="Tracé_166_00000021829911733072900950000003366167026679412919_"
   class="st11"
   d="M131.8,4.2         c1,5.1,1.5,10.3,1.5,15.6c0,0.1,0,0.2,0,0.3c0,3.2-0.3,5.7-0.6,6.1c-0.9,0.8-2,1.2-3.1,1.4" />
							<path
   id="Tracé_167_00000129914326156037043050000002525128271365199772_"
   class="st12"
   d="M131.8,4.2         c1,5.1,1.5,10.3,1.5,15.6c0,0.1,0,0.2,0,0.3c0,3.2-0.3,5.7-0.6,6.1c-0.9,0.8-2,1.2-3.1,1.4" />
							<path
   id="Tracé_168_00000155136393725246865990000000516252536329527984_"
   class="st11"
   d="M127.5-6.4c-0.9,0-1.4-0.7-2-1.5         c-0.7-0.9-1.5-1.9-3-1.9c-1.6,0-2.6,1.1-3.4,2.1c-0.6,0.7-1.1,1.3-1.8,1.3c-0.3,0-0.5-0.3-0.5-0.6c0-0.3,0.2-0.5,0.5-0.5         c0.2,0,0.6-0.5,1-0.9c0.9-1,2.1-2.4,4.2-2.4c1.6,0.1,3.1,0.9,3.9,2.3c0.4,0.6,0.8,1,1.1,1c0.3,0,0.5,0.3,0.5,0.6         C128-6.6,127.8-6.4,127.5-6.4" />
							<path
   id="Tracé_169_00000140718837226658696040000002546566768834997392_"
   class="st12"
   d="M127.5-6.4c-0.9,0-1.4-0.7-2-1.5         c-0.7-0.9-1.5-1.9-3-1.9c-1.6,0-2.6,1.1-3.4,2.1c-0.6,0.7-1.1,1.3-1.8,1.3c-0.3,0-0.5-0.3-0.5-0.6c0-0.3,0.2-0.5,0.5-0.5         c0.2,0,0.6-0.5,1-0.9c0.9-1,2.1-2.4,4.2-2.4c1.6,0.1,3.1,0.9,3.9,2.3c0.4,0.6,0.8,1,1.1,1c0.3,0,0.5,0.3,0.5,0.6         C128-6.6,127.8-6.4,127.5-6.4L127.5-6.4z" />
						</g>
					</g>
				</g>
			</g>
		</g>
		<g
   id="Groupe_116_00000139286290725659005090000013492273111780707491_"
   transform="translate(1211.42 638.426)">
			<g
   id="Groupe_38_00000030474805126169390050000003072242319841308578_"
   transform="translate(14.955 25.574)">
				<g
   id="g127">
					<g
   id="g125">
						<defs
   id="defs116">
							<rect
   id="SVGID_00000103232050465921243920000003964061924953154746_"
   x="108.8"
   y="-10.9"
   width="13.2"
   height="10.5" />
						</defs>
						<clipPath
   id="SVGID_00000017509327045800082150000004297526141642530707_">
							<use
   xlink:href="#SVGID_00000103232050465921243920000003964061924953154746_"
   style="overflow:visible;"
   id="use118" />
						</clipPath>
						
							<g
   id="Groupe_37_00000140016339796689595910000001850352383717662351_"
   transform="translate(0 0)"
   style="clip-path:url(#SVGID_00000017509327045800082150000004297526141642530707_);"
   clip-path="url(#SVGID_00000017509327045800082150000004297526141642530707_)">
							<path
   id="Tracé_94_00000104703646358340073670000008164298160844676258_"
   class="st14"
   d="M119.8-4.4         c1.1-0.6,1.8-1.8,1.7-3.1c0-2.6-1.9-3.4-4.2-3.4h-8.4l2.8,2.2h5.5c1.1,0,1.7,0.3,1.7,1.2s-0.6,1.4-1.7,1.4h-4.1l0,0l4.3,0.2         l-4.4,0.2l4.2,0.2l-4.4,0.2l4.2,0.2l-4.4,0.2l4.2,0.2l-4.4,0.2l4.2,0.2l-4.4,0.2l4.2,0.2l-4.4,0.2l4.2,0.2l-4.4,0.1h5.4         l1.8,3.5h3.1L119.8-4.4z" />
							<path
   id="Tracé_95_00000166649685149052389970000018050356424584148105_"
   class="st14"
   d="M119.9-8.7c0.6,0,1.1,0.2,1.5,0.6         c-0.3-2.2-2.1-2.8-4.2-2.8h-8.4l2.8,2.2L119.9-8.7L119.9-8.7z" />
							<path
   id="Tracé_96_00000034056354088063091220000012959068659273059515_"
   class="st14"
   d="M119.8-4.4L119.8-4.4         c-0.8,0.4-1.7,0.6-2.6,0.5h-0.3h0.2l1.8,3.5h3.1L119.8-4.4z" />
						</g>
					</g>
				</g>
			</g>
		</g>
	</g>
</g>
<g
   id="Calque_3"
   transform="matrix(1.3133689,0,0,1.3133689,-43.979942,-14.075919)">
	<g
   id="Groupe_134"
   transform="translate(-1172,-604)">
		<g
   id="Groupe_118_00000120559138033952768360000006175539663244424834_">
			<g
   id="Composant_4_2"
   transform="translate(1202,634)">
				<g
   id="g169">
					<g
   id="Groupe_115_00000167363713339741942720000004718382773616133028_"
   transform="translate(17.422,11.5)">
						<g
   id="g166">
							<g
   id="g164">
								<defs
   id="defs134">
									<rect
   id="SVGID_00000141440697728579397250000007173879905566771369_"
   x="-12.7"
   y="-20.9"
   width="40.900002"
   height="58.700001" />
								</defs>
								<clipPath
   id="SVGID_00000080910312890469651160000006105144713029631642_">
									<use
   xlink:href="#SVGID_00000141440697728579397250000007173879905566771369_"
   style="overflow:visible"
   id="use136"
   x="0"
   y="0"
   width="100%"
   height="100%" />
								</clipPath>
								
									<g
   id="Groupe_114_00000129188774639491718570000008866292749510581128_"
   clip-path="url(#SVGID_00000080910312890469651160000006105144713029631642_)">
									<path
   id="Tracé_146_00000096739658380624773870000003911208149408800416_"
   class="st16"
   d="m -10.2,-18.2 c -1.8,1.1 -0.9,10.1 0.8,15.4 l 3.8,-1.1 c 0,0 -2.8,-11.9 -1.7,-13.6 0.5,-0.9 1.2,-1.6 1.9,-2.3 z" />
									<path
   id="Tracé_147_00000088823955281045419600000015924845672840657085_"
   class="st17"
   d="m -10.2,-18.2 c -1.8,1.1 -0.9,10.1 0.8,15.4 l 3.8,-1.1 c 0,0 -2.8,-11.9 -1.7,-13.6 0.5,-0.9 1.2,-1.6 1.9,-2.3 z" />
									<path
   id="Tracé_148_00000112599269343789740880000013284133405774890640_"
   class="st16"
   d="M -1.4,-12.9 C -1.7,-15 -2.3,-17 -3.1,-19 c -1.2,-2.5 -4.8,-1 -7.2,0.8 0,0 2.5,-0.2 3.2,1.7 0.6,1.9 1.1,3.8 1.3,5.7 z" />
									<path
   id="Tracé_149_00000039128755757667449660000010789348187391217339_"
   class="st17"
   d="M -1.4,-12.9 C -1.7,-15 -2.3,-17 -3.1,-19 c -1.2,-2.5 -4.8,-1 -7.2,0.8 0,0 2.5,-0.2 3.2,1.7 0.6,1.9 1.1,3.8 1.3,5.7 z" />
									<path
   id="Tracé_150_00000164485059678566856870000000258775024476150971_"
   class="st16"
   d="m 26,-18.2 c 1.8,1.1 0.9,10.1 -0.8,15.4 l -3.8,-1.1 c 0,0 2.8,-11.9 1.7,-13.6 -0.5,-0.9 -1.2,-1.6 -1.9,-2.3 z" />
									<path
   id="Tracé_151_00000142160361773281460870000009729253443423095685_"
   class="st17"
   d="m 26,-18.2 c 1.8,1.1 0.9,10.1 -0.8,15.4 l -3.8,-1.1 c 0,0 2.8,-11.9 1.7,-13.6 -0.5,-0.9 -1.2,-1.6 -1.9,-2.3 z" />
									<path
   id="Tracé_152_00000000921544611748827140000002464667424305694880_"
   class="st16"
   d="m 17.1,-12.9 c 0.3,-2.1 0.9,-4.1 1.7,-6.1 1.2,-2.5 4.8,-1 7.2,0.8 0,0 -2.5,-0.2 -3.2,1.7 -0.6,1.9 -1.1,3.8 -1.3,5.7 z" />
									<path
   id="Tracé_153_00000004532906003338878870000012690581489628355495_"
   class="st17"
   d="m 17.1,-12.9 c 0.3,-2.1 0.9,-4.1 1.7,-6.1 1.2,-2.5 4.8,-1 7.2,0.8 0,0 -2.5,-0.2 -3.2,1.7 -0.6,1.9 -1.1,3.8 -1.3,5.7 z" />
									<path
   id="Tracé_154_00000181068875718363414400000012712788411994546069_"
   class="st16"
   d="m 28.2,23.6 c 0,0.2 0,0.4 0,0.6 0,5.6 -0.5,9.7 -1.2,10.5 -2.3,2.5 -10.2,3.2 -19.2,3.2 -9,0 -16.9,-0.7 -19.2,-3.2 -0.7,-0.8 -1.2,-4.9 -1.2,-10.5 0,-0.2 0,-0.4 0,-0.6 0,-2.7 0.1,-5.6 0.3,-8.7 0,-0.6 0.1,-1.2 0.1,-1.9 0.9,-11.3 3.2,-23.4 7.6,-26.9 2.4,-1.9 5.8,-3.2 12.3,-3.2 6.5,0 9.9,1.3 12.3,3.2 4.5,3.5 6.8,15.8 7.6,27.1 0,0.6 0.1,1.2 0.1,1.9 0.4,3 0.5,5.9 0.5,8.5" />
									<path
   id="Tracé_155_00000094608300835588069870000017770421069506634680_"
   class="st17"
   d="m 28.2,23.6 c 0,0.2 0,0.4 0,0.6 0,5.6 -0.5,9.7 -1.2,10.5 -2.3,2.5 -10.2,3.2 -19.2,3.2 -9,0 -16.9,-0.7 -19.2,-3.2 -0.7,-0.8 -1.2,-4.9 -1.2,-10.5 0,-0.2 0,-0.4 0,-0.6 0,-2.7 0.1,-5.6 0.3,-8.7 0,-0.6 0.1,-1.2 0.1,-1.9 0.9,-11.3 3.2,-23.4 7.6,-26.9 2.4,-1.9 5.8,-3.2 12.3,-3.2 6.5,0 9.9,1.3 12.3,3.2 4.5,3.5 6.8,15.8 7.6,27.1 0,0.6 0.1,1.2 0.1,1.9 0.4,3 0.5,5.9 0.5,8.5 z" />
									<path
   id="Tracé_156_00000036246311023762181170000008017899955955516340_"
   class="st16"
   d="m 27.8,13.6 c -0.3,-0.2 -0.6,-0.4 -1,-0.5 0.6,5.8 0.6,16.2 -0.9,20.3 -2.3,6.2 -29.9,4.4 -34.7,1.6 -4.4,-2.6 -1.8,-22.3 -1.8,-22.3 -0.1,0.1 -1.5,1.4 -1.7,1.5 0,0.2 0,0.4 0,0.7 -0.2,3.1 -0.3,6.1 -0.3,8.7 0,0.2 0,0.4 0,0.6 0,5.6 0.5,9.7 1.2,10.5 2.3,2.5 10.2,3.2 19.2,3.2 9,0 16.9,-0.7 19.2,-3.2 0.7,-0.8 1.2,-4.9 1.2,-10.5 0,-0.2 0,-0.4 0,-0.6 0,-2.6 -0.1,-5.4 -0.3,-8.4 0,-0.6 -0.1,-1.1 -0.1,-1.6" />
									<path
   id="Tracé_157_00000067226447760671562140000004960534878654754725_"
   class="st17"
   d="m 27.8,13.6 c -0.3,-0.2 -0.6,-0.4 -1,-0.5 0.6,5.8 0.6,16.2 -0.9,20.3 -2.3,6.2 -29.9,4.4 -34.7,1.6 -4.4,-2.6 -1.8,-22.3 -1.8,-22.3 -0.1,0.1 -1.5,1.4 -1.7,1.5 0,0.2 0,0.4 0,0.7 -0.2,3.1 -0.3,6.1 -0.3,8.7 0,0.2 0,0.4 0,0.6 0,5.6 0.5,9.7 1.2,10.5 2.3,2.5 10.2,3.2 19.2,3.2 9,0 16.9,-0.7 19.2,-3.2 0.7,-0.8 1.2,-4.9 1.2,-10.5 0,-0.2 0,-0.4 0,-0.6 0,-2.6 -0.1,-5.4 -0.3,-8.4 0,-0.6 -0.1,-1.1 -0.1,-1.6 z" />
									<path
   id="Tracé_158_00000175310638125699492650000002706611178565496727_"
   class="st16"
   d="M 25.6,12.4 C 25.2,8.3 24.6,4.3 23.7,0.3 22.5,-5.1 20.8,-8.8 19,-10.3 c -1.7,-1.4 -4.6,-3.1 -11.2,-3.1 -6.6,0 -9.5,1.7 -11.2,3.1 -3.1,2.5 -5.4,10.6 -6.6,22.6 l -1,-0.1 c 0.3,-4.8 1.1,-9.6 2.3,-14.2 1.2,-4.5 2.8,-7.6 4.6,-9.1 2.8,-2.3 6.5,-3.4 11.9,-3.4 5.4,0 9.1,1 11.9,3.4 2,1.7 3.8,5.5 5.1,11.2 0.9,4 1.5,8.1 1.9,12.3 z" />
									<path
   id="Tracé_159_00000020362192624387435680000009076220330549811865_"
   class="st17"
   d="M 25.6,12.4 C 25.2,8.3 24.6,4.3 23.7,0.3 22.5,-5.1 20.8,-8.8 19,-10.3 c -1.7,-1.4 -4.6,-3.1 -11.2,-3.1 -6.6,0 -9.5,1.7 -11.2,3.1 -3.1,2.5 -5.4,10.6 -6.6,22.6 l -1,-0.1 c 0.3,-4.8 1.1,-9.6 2.3,-14.2 1.2,-4.5 2.8,-7.6 4.6,-9.1 2.8,-2.3 6.5,-3.4 11.9,-3.4 5.4,0 9.1,1 11.9,3.4 2,1.7 3.8,5.5 5.1,11.2 0.9,4 1.5,8.1 1.9,12.3 z" />
									<path
   id="Tracé_160_00000085943347858154592020000015102683858908878517_"
   class="st16"
   d="M 27.9,15.1 C 26.4,13.4 24.6,12.1 22.7,11 L 22.5,9.6 c 2,0.8 3.8,2 5.3,3.7 0,0.6 0.1,1.2 0.1,1.8" />
									<path
   id="Tracé_161_00000159446065817927028520000012145348635221432466_"
   class="st17"
   d="M 27.9,15.1 C 26.4,13.4 24.6,12.1 22.7,11 L 22.5,9.6 c 2,0.8 3.8,2 5.3,3.7 0,0.6 0.1,1.2 0.1,1.8 z" />
									<path
   id="Tracé_162_00000161609991849533951720000000125847845558520465_"
   class="st16"
   d="M -7.2,9.6 -7.4,11 c -1.9,1 -3.5,2.3 -5,3.8 0,-0.6 0.1,-1.2 0.1,-1.9 1.5,-1.4 3.2,-2.6 5.1,-3.3" />
									<path
   id="Tracé_163_00000075866336315852849490000015066323648879454854_"
   class="st17"
   d="M -7.2,9.6 -7.4,11 c -1.9,1 -3.5,2.3 -5,3.8 0,-0.6 0.1,-1.2 0.1,-1.9 1.5,-1.4 3.2,-2.6 5.1,-3.3 z" />
									<path
   id="Tracé_164_00000093871631371184026250000005675367087254147743_"
   class="st16"
   d="m 24.3,25.3 c 0,0.2 0,0.3 0,0.5 0,4.9 -0.4,8.5 -1,9.2 -1.3,1.1 -3,1.9 -4.7,2 -3.6,0.6 -7.2,0.8 -10.8,0.8 -7.3,0 -13.6,-0.6 -15.5,-2.8 -0.6,-0.7 -0.9,-4.3 -1,-9.2 0,-0.2 0,-0.3 0,-0.5 0,-11.3 1.7,-28.8 6.5,-32.8 2,-1.6 4.7,-2.8 10,-2.8 5.3,0 8,1.2 10,2.8 1.8,1.5 3.2,5 4.2,9.4 1.6,7.7 2.3,15.5 2.3,23.4" />
									<path
   id="Tracé_165_00000000219164298917727430000002533110708944196782_"
   class="st17"
   d="m 24.3,25.3 c 0,0.2 0,0.3 0,0.5 0,4.9 -0.4,8.5 -1,9.2 -1.3,1.1 -3,1.9 -4.7,2 -3.6,0.6 -7.2,0.8 -10.8,0.8 -7.3,0 -13.6,-0.6 -15.5,-2.8 -0.6,-0.7 -0.9,-4.3 -1,-9.2 0,-0.2 0,-0.3 0,-0.5 0,-11.3 1.7,-28.8 6.5,-32.8 2,-1.6 4.7,-2.8 10,-2.8 5.3,0 8,1.2 10,2.8 1.8,1.5 3.2,5 4.2,9.4 1.6,7.7 2.3,15.5 2.3,23.4 z" />
									<path
   id="Tracé_166_00000150794107771622078670000004334539257303094670_"
   class="st16"
   d="m 22,1.9 c 1.6,7.7 2.3,15.6 2.3,23.4 0,0.2 0,0.3 0,0.5 0,4.9 -0.4,8.5 -1,9.2 -1.3,1.1 -3,1.9 -4.7,2" />
									<path
   id="Tracé_167_00000067925222158715039140000012404784198143348157_"
   class="st17"
   d="m 22,1.9 c 1.6,7.7 2.3,15.6 2.3,23.4 0,0.2 0,0.3 0,0.5 0,4.9 -0.4,8.5 -1,9.2 -1.3,1.1 -3,1.9 -4.7,2" />
									<path
   id="Tracé_168_00000169516393003452001850000013653343782953943966_"
   class="st16"
   d="m 15.5,-14.1 c -1.3,0 -2.2,-1.1 -3.1,-2.2 -1.1,-1.4 -2.2,-2.9 -4.6,-2.9 -2.5,0 -3.9,1.7 -5.1,3.1 -0.9,1.1 -1.7,2 -2.8,2 -0.5,0 -0.8,-0.4 -0.8,-0.9 0,-0.4 0.4,-0.7 0.8,-0.8 0.3,0 1,-0.8 1.5,-1.4 1.3,-1.6 3.2,-3.7 6.4,-3.7 2.4,0.1 4.6,1.4 5.9,3.5 0.6,0.8 1.2,1.6 1.7,1.6 0.5,0 0.8,0.4 0.8,0.9 0.1,0.5 -0.3,0.8 -0.7,0.8" />
									<path
   id="Tracé_169_00000043452901378253095180000018029562400206809503_"
   class="st17"
   d="m 15.5,-14.1 c -1.3,0 -2.2,-1.1 -3.1,-2.2 -1.1,-1.4 -2.2,-2.9 -4.6,-2.9 -2.5,0 -3.9,1.7 -5.1,3.1 -0.9,1.1 -1.7,2 -2.8,2 -0.5,0 -0.8,-0.4 -0.8,-0.9 0,-0.4 0.4,-0.7 0.8,-0.8 0.3,0 1,-0.8 1.5,-1.4 1.3,-1.6 3.2,-3.7 6.4,-3.7 2.4,0.1 4.6,1.4 5.9,3.5 0.6,0.8 1.2,1.6 1.7,1.6 0.5,0 0.8,0.4 0.8,0.9 0.1,0.5 -0.3,0.8 -0.7,0.8 z" />
								</g>
							</g>
						</g>
					</g>
				</g>
			</g>
			<g
   id="Groupe_116_00000145018903136645093050000003298565733876842125_"
   transform="translate(1211.42,638.426)">
				<g
   id="Groupe_38_00000090979673018905110060000009789749513669359500_"
   transform="translate(14.955,25.574)">
					<g
   id="g184">
						<g
   id="g182">
							<defs
   id="defs173">
								<rect
   id="SVGID_00000110458768465218042820000002267700014037260214_"
   x="-9.1000004"
   y="-11.5"
   width="19.9"
   height="15.9" />
							</defs>
							<clipPath
   id="SVGID_00000112617004684845847290000011079490189010544550_">
								<use
   xlink:href="#SVGID_00000110458768465218042820000002267700014037260214_"
   style="overflow:visible"
   id="use175"
   x="0"
   y="0"
   width="100%"
   height="100%" />
							</clipPath>
							
								<g
   id="Groupe_37_00000030485424024868715270000000042387382180658623_"
   clip-path="url(#SVGID_00000112617004684845847290000011079490189010544550_)">
								<path
   id="Tracé_94_00000131352398602145989750000000215776096207891079_"
   class="st19"
   d="M 7.4,-1.8 C 9,-2.7 10,-4.5 9.9,-6.4 c 0,-4 -2.9,-5.1 -6.3,-5.1 H -9.1 l 4.2,3.3 h 8.2 c 1.7,0 2.5,0.4 2.5,1.8 0,1.4 -0.8,2.1 -2.5,2.1 h -6.2 v 0 l 6.4,0.2 -6.7,0.2 6.4,0.2 -6.7,0.2 6.4,0.2 -6.7,0.3 6.4,0.2 -6.6,0.4 6.4,0.2 -6.6,0.2 6.4,0.2 -6.6,0.2 6.3,0.2 -6.7,0.4 H 3.3 L 6,4.3 h 4.7 z" />
								<path
   id="Tracé_95_00000070102942899451667620000012534579970403492273_"
   class="st19"
   d="m 7.6,-8.2 c 0.8,0 1.7,0.3 2.3,0.9 -0.4,-3.3 -3.1,-4.3 -6.3,-4.3 H -9.1 l 4.2,3.3 z" />
								<path
   id="Tracé_96_00000134212572142938307820000002520280407586450621_"
   class="st20"
   d="m 7.4,-1.8 v 0 C 6.2,-1.2 4.8,-1 3.5,-1 H 3 3.4 l 2.7,5.3 h 4.7 z" />
							</g>
						</g>
					</g>
				</g>
			</g>
		</g>
	</g>
</g>
<g
   id="Groupe_46"
   transform="matrix(1.3133689,0,0,1.3133689,-43.979942,-14.075919)">
	<text
   transform="translate(147.6796,67.9816)"
   class="st19 st21 st22"
   id="text191">izomo</text>
	<g
   id="Groupe_45"
   transform="translate(0,7.302)">
		<g
   id="Groupe_38_00000120521844110624716990000003665728210124192941_">
			<g
   id="g203">
				<defs
   id="defs194">
					<rect
   id="SVGID_00000162333662146364575280000001660635361515873193_"
   x="91.5"
   y="20"
   width="53.200001"
   height="42.299999" />
				</defs>
				<clipPath
   id="SVGID_00000176735023267628535270000002574419538832787362_">
					<use
   xlink:href="#SVGID_00000162333662146364575280000001660635361515873193_"
   style="overflow:visible"
   id="use196"
   x="0"
   y="0"
   width="100%"
   height="100%" />
				</clipPath>
				
					<g
   id="Groupe_37_00000047040438178863419300000008410528178528263599_"
   clip-path="url(#SVGID_00000176735023267628535270000002574419538832787362_)">
					<path
   id="Tracé_94_00000109029703882733358920000004038726122644886661_"
   class="st19"
   d="m 135.5,45.9 c 4.1,-2.2 6.8,-6.2 6.8,-12.2 C 142.3,23.2 134.5,20 125.4,20 H 91.5 l 11.2,8.9 h 22 c 4.4,0 6.8,1.2 6.8,4.8 0,3.6 -2.3,5.6 -6.8,5.6 h -16.5 v 0 l 17.1,0.7 -17.8,0.6 17.1,0.6 -17.8,0.6 17,0.6 -17.8,0.7 17,0.6 -17.7,0.6 17,0.6 -17.7,0.6 16.9,0.6 -17.6,0.6 16.9,0.6 -17.6,0.6 h 21.7 l 7.3,14.2 h 12.5 z" />
					<path
   id="Tracé_95_00000054955557405285283700000012478916741719978123_"
   class="st19"
   d="m 136.2,28.9 c 2.3,0 4.4,0.9 6,2.5 C 141.1,22.7 133.8,20 125.4,20 H 91.5 l 11.2,8.9 z" />
					<path
   id="Tracé_96_00000065041843712359394150000017922989723088855464_"
   class="st19"
   d="m 135.5,45.9 v 0 c -3.2,1.5 -6.7,2.2 -10.3,2.2 h -1.3 1 l 7.3,14.2 h 12.5 z" />
				</g>
			</g>
		</g>
	</g>
</g>
</svg>
