<svg xmlns="http://www.w3.org/2000/svg" xmlns:xlink="http://www.w3.org/1999/xlink" width="31" height="39.002" viewBox="0 0 31 39.002">
  <defs>
    <clipPath id="clip-path">
      <rect id="Rectangle_69" data-name="Rectangle 69" width="11.246" height="8.946" fill="#000091" stroke="#000091" stroke-width="1"/>
    </clipPath>
  </defs>
  <g id="Groupe_39" data-name="Groupe 39" transform="translate(-1081.404 -963.861)">
    <g id="Groupe_38" data-name="Groupe 38" transform="translate(1091.282 980.4)">
      <g id="Groupe_37" data-name="Groupe 37" transform="translate(0 0)" clip-path="url(#clip-path)">
        <path id="Tracé_94" data-name="Tracé 94" d="M9.306,5.478A2.744,2.744,0,0,0,10.751,2.89C10.751.661,9.1,0,7.173,0H0L2.367,1.872h4.64c.936,0,1.431.248,1.431,1.018s-.5,1.183-1.431,1.183H3.518l3.618.138-3.768.134,3.61.133-3.76.134,3.6.133L3.067,4.88l3.6.133-3.745.134L6.5,5.28l-3.737.134,3.579.133-3.73.133,3.572.133-3.722.133h4.6l1.542,3h2.642Z" transform="translate(0 0)" fill="#000091" stroke="#000091" stroke-width="1"/>
        <path id="Tracé_95" data-name="Tracé 95" d="M9.444,1.872a1.8,1.8,0,0,1,1.277.531C10.493.564,8.951,0,7.173,0H0L2.367,1.872H9.444Z" transform="translate(0 0)" fill="#000091" stroke="#000091" stroke-width="1"/>
        <path id="Tracé_96" data-name="Tracé 96" d="M65.435,50.257l.008,0a4.968,4.968,0,0,1-2.181.467l-.273.005h.2l1.542,3h2.642Z" transform="translate(-56.13 -44.779)" fill="#000091" stroke="#000091" stroke-width="1"/>
      </g>
    </g>
    <g id="robotics-7932" transform="translate(1081.904 964.363)">
      <g id="Groupe_36" data-name="Groupe 36" transform="translate(0 0)">
        <path id="Tracé_85" data-name="Tracé 85" d="M29.257,101.093a2.754,2.754,0,0,1-2.75-2.751v-5.29a4.875,4.875,0,0,1,4.869-4.869.414.414,0,1,1,0,.828,4.045,4.045,0,0,0-4.041,4.041v5.29a1.924,1.924,0,0,0,1.922,1.923.414.414,0,1,1,0,.828Z" transform="translate(-26.507 -74.755)" fill="#000091" stroke="#000091" stroke-width="1"/>
        <path id="Tracé_86" data-name="Tracé 86" d="M192.374,101.093a.414.414,0,0,1,0-.828,1.924,1.924,0,0,0,1.922-1.923v-5.29a4.045,4.045,0,0,0-4.041-4.041.414.414,0,1,1,0-.828,4.875,4.875,0,0,1,4.869,4.869v5.29A2.754,2.754,0,0,1,192.374,101.093Z" transform="translate(-165.124 -74.755)" fill="#000091" stroke="#000091" stroke-width="1"/>
        <path id="Tracé_87" data-name="Tracé 87" d="M73.633,118.945H60.722l-.044,0a4.432,4.432,0,0,1-4.045-4.374v-8.824a.426.426,0,0,1,.851,0v8.824a3.6,3.6,0,0,0,3.261,3.549H73.61a3.6,3.6,0,0,0,3.261-3.549v-8.824a.426.426,0,0,1,.851,0v8.824a4.432,4.432,0,0,1-4.046,4.374A.307.307,0,0,1,73.633,118.945Z" transform="translate(-52.177 -89.277)" fill="#000091" stroke="#000091" stroke-width="1"/>
        <path id="Tracé_88" data-name="Tracé 88" d="M155.112,3.239a.409.409,0,0,1-.206-.055.414.414,0,0,1-.153-.565L156.137.207a.414.414,0,1,1,.718.412l-1.384,2.411A.414.414,0,0,1,155.112,3.239Z" transform="translate(-135.349 0.001)" fill="#000091" stroke="#000091" stroke-width="1"/>
        <path id="Tracé_89" data-name="Tracé 89" d="M84.218,3.24a.413.413,0,0,1-.359-.208L82.475.62a.414.414,0,1,1,.719-.412L84.577,2.62a.414.414,0,0,1-.359.62Z" transform="translate(-73.98 0)" fill="#000091" stroke="#000091" stroke-width="1"/>
        <path id="Tracé_90" data-name="Tracé 90" d="M151.723,71.969h-1.385a.414.414,0,0,1,0-.828h1.385a.414.414,0,1,1,0,.828Z" transform="translate(-131.296 -60.411)" fill="#000091" stroke="#000091" stroke-width="1"/>
        <path id="Tracé_91" data-name="Tracé 91" d="M77.3,18.539H75.208a.414.414,0,1,1,0-.828h1.626a9.745,9.745,0,0,0-19.315,0H68.715a.414.414,0,1,1,0,.828H57.058a.433.433,0,0,1-.31-.13.406.406,0,0,1-.115-.309,10.585,10.585,0,0,1,21.089,0,.4.4,0,0,1-.115.309A.429.429,0,0,1,77.3,18.539Z" transform="translate(-52.178 -7.191)" fill="#000091" stroke="#000091" stroke-width="1"/>
        <path id="Tracé_92" data-name="Tracé 92" d="M136.873,215.327a2.754,2.754,0,0,1-2.751-2.75v-3.189a.414.414,0,0,1,.828,0v3.189a1.922,1.922,0,0,0,3.845,0v-3.212a.414.414,0,0,1,.828,0v3.212A2.753,2.753,0,0,1,136.873,215.327Z" transform="translate(-117.833 -177.327)" fill="#000091" stroke="#000091" stroke-width="1"/>
        <path id="Tracé_93" data-name="Tracé 93" d="M83.5,215.327a2.753,2.753,0,0,1-2.75-2.75v-3.212a.414.414,0,0,1,.828,0v3.212a1.922,1.922,0,1,0,3.844,0v-3.189a.414.414,0,1,1,.828,0v3.189A2.754,2.754,0,0,1,83.5,215.327Z" transform="translate(-72.54 -177.327)" fill="#000091" stroke="#000091" stroke-width="1"/>
      </g>
    </g>
  </g>
</svg>
