<?xml version="1.0" encoding="utf-8"?>
<!-- Generator: Adobe Illustrator 26.0.2, SVG Export Plug-In . SVG Version: 6.00 Build 0)  -->
<svg version="1.1" id="Calque_1" xmlns="http://www.w3.org/2000/svg" xmlns:xlink="http://www.w3.org/1999/xlink" x="0px" y="0px"
	 viewBox="0 0 62 62" style="enable-background:new 0 0 62 62;" xml:space="preserve">
<style type="text/css">
	.st0{fill:#ECECFE;}
	.st1{fill:#000091;stroke:#000091;}
	.st2{clip-path:url(#SVGID_00000116950534926964861140000009240739897096649369_);}
	.st3{fill:#FFF;stroke:#FFF;}
</style>
<g id="Composant_4_2" >
	<g transform="matrix(1, 0, 0, 1, -0, -0)">
		<g id="Ellipse_1-2" >
			<circle class="st0" cx="31" cy="31" r="31"/>
			<circle class="st1" cx="31" cy="31" r="30.5"/>
		</g>
	</g>
	<g id="Groupe_39" transform="translate(-1065.904 -952.363)">
		<g id="Groupe_38" transform="translate(1091.282 980.4)">
			<g>
				<defs>
					<rect id="SVGID_1_" x="0" y="0" width="11.2" height="8.9"/>
				</defs>
				<clipPath id="SVGID_00000078745286080538232290000009636095197964267685_">
					<use xlink:href="#SVGID_1_"  style="overflow:visible;"/>
				</clipPath>
				
					<g id="Groupe_37"  style="clip-path:url(#SVGID_00000078745286080538232290000009636095197964267685_);">
					<path id="Tracé_94" class="st3" d="M9.3,5.5C10.3,5,10.8,4,10.8,2.9C10.8,0.7,9.1,0,7.2,0H0l2.4,1.9H7c0.9,0,1.4,0.2,1.4,1
						S7.9,4.1,7,4.1H3.5l3.6,0.1L3.4,4.3L7,4.5L3.2,4.6l3.6,0.1L3.1,4.9L6.7,5L2.9,5.1l3.6,0.1L2.8,5.4l3.6,0.1L2.6,5.7l3.6,0.1
						L2.5,5.9h4.6l1.5,3h2.6L9.3,5.5z"/>
					<path id="Tracé_95" class="st3" d="M9.4,1.9c0.5,0,0.9,0.2,1.3,0.5C10.5,0.6,9,0,7.2,0H0l2.4,1.9H9.4z"/>
					<path id="Tracé_96" class="st3" d="M9.3,5.5L9.3,5.5C8.6,5.8,7.9,6,7.1,5.9L6.9,6h0.2l1.5,3h2.6L9.3,5.5z"/>
				</g>
			</g>
		</g>
		<g id="robotics-7932" transform="translate(1081.904 964.363)">
			<g id="Groupe_36" >
				<path id="Tracé_85" class="st3" d="M2.8,26.3c-1.5,0-2.7-1.2-2.8-2.8v-5.3c0-2.7,2.2-4.9,4.9-4.9c0.2,0,0.4,0.2,0.4,0.4
					s-0.2,0.4-0.4,0.4c-2.2,0-4,1.8-4,4v5.3c0,1.1,0.9,1.9,1.9,1.9c0.2,0,0.4,0.2,0.4,0.4S3,26.3,2.8,26.3L2.8,26.3z"/>
				<path id="Tracé_86" class="st3" d="M27.2,26.3c-0.2,0-0.4-0.2-0.4-0.4s0.2-0.4,0.4-0.4c1.1,0,1.9-0.9,1.9-1.9v-5.3
					c0-2.2-1.8-4-4-4c-0.2,0-0.4-0.2-0.4-0.4s0.2-0.4,0.4-0.4l0,0c2.7,0,4.9,2.2,4.9,4.9v5.3C30,25.1,28.8,26.3,27.2,26.3z"/>
				<path id="Tracé_87" class="st3" d="M21.5,29.7H8.5h0c-2.3-0.2-4-2.1-4-4.4v-8.8c0-0.2,0.2-0.4,0.4-0.4c0.2,0,0.4,0.2,0.4,0.4
					v8.8c0,1.8,1.4,3.4,3.3,3.5h12.9c1.8-0.2,3.2-1.7,3.3-3.5v-8.8c0-0.2,0.2-0.4,0.4-0.4c0.2,0,0.4,0.2,0.4,0.4v8.8
					C25.5,27.6,23.8,29.5,21.5,29.7C21.5,29.7,21.5,29.7,21.5,29.7z"/>
				<path id="Tracé_88" class="st3" d="M19.8,3.2c-0.1,0-0.1,0-0.2-0.1c-0.2-0.1-0.3-0.4-0.2-0.6l1.4-2.4C20.9,0,21.1-0.1,21.3,0
					s0.3,0.4,0.2,0.6c0,0,0,0,0,0L20.1,3C20,3.2,19.9,3.2,19.8,3.2z"/>
				<path id="Tracé_89" class="st3" d="M10.2,3.2C10.1,3.2,10,3.2,9.9,3L8.5,0.6c-0.1-0.2,0-0.5,0.2-0.6s0.5,0,0.6,0.2l0,0l1.4,2.4
					c0.1,0.2,0,0.5-0.2,0.6C10.4,3.2,10.3,3.2,10.2,3.2z"/>
				<path id="Tracé_90" class="st3" d="M20.4,11.6H19c-0.2,0-0.4-0.2-0.4-0.4s0.2-0.4,0.4-0.4h1.4c0.2,0,0.4,0.2,0.4,0.4
					S20.7,11.6,20.4,11.6z"/>
				<path id="Tracé_91" class="st3" d="M25.1,11.3H23c-0.2,0-0.4-0.2-0.4-0.4s0.2-0.4,0.4-0.4c0,0,0,0,0,0h1.6
					c-0.7-5.3-5.6-9.1-11-8.4c-4.3,0.6-7.8,4-8.4,8.4h11.2c0.2,0,0.4,0.2,0.4,0.4s-0.2,0.4-0.4,0.4c0,0,0,0,0,0H4.9
					c-0.1,0-0.2,0-0.3-0.1c-0.1-0.1-0.1-0.2-0.1-0.3C5,5.1,10.1,0.8,15.9,1.3c5.1,0.4,9.2,4.5,9.6,9.6c0,0.1,0,0.2-0.1,0.3
					C25.3,11.3,25.2,11.3,25.1,11.3z"/>
				<path id="Tracé_92" class="st3" d="M19,38c-1.5,0-2.7-1.2-2.8-2.8v-3.2c0-0.2,0.2-0.4,0.4-0.4s0.4,0.2,0.4,0.4l0,0v3.2
					c0,1.1,0.9,1.9,1.9,1.9s1.9-0.9,1.9-1.9V32c0-0.2,0.2-0.4,0.4-0.4s0.4,0.2,0.4,0.4v3.2C21.8,36.8,20.6,38,19,38z"/>
				<path id="Tracé_93" class="st3" d="M11,38c-1.5,0-2.7-1.2-2.8-2.8V32c0-0.2,0.2-0.4,0.4-0.4S9,31.8,9,32v3.2
					c0,1.1,0.9,1.9,1.9,1.9c1.1,0,1.9-0.9,1.9-1.9v-3.2c0-0.2,0.2-0.4,0.4-0.4s0.4,0.2,0.4,0.4l0,0v3.2C13.7,36.8,12.5,38,11,38z"/>
			</g>
		</g>
	</g>
</g>
</svg>
