<?xml version="1.0" encoding="UTF-8" standalone="no"?>
<svg
   id="Layer_1"
   data-name="Layer 1"
   viewBox="0 0 425.19 420.47"
   version="1.1"
   sodipodi:docname="disconnected.svg"
   inkscape:version="1.1.1 (1:1.1+202109281949+c3084ef5ed)"
   xmlns:inkscape="http://www.inkscape.org/namespaces/inkscape"
   xmlns:sodipodi="http://sodipodi.sourceforge.net/DTD/sodipodi-0.dtd"
   xmlns="http://www.w3.org/2000/svg"
   xmlns:svg="http://www.w3.org/2000/svg">
  <sodipodi:namedview
     id="namedview17"
     pagecolor="#ffffff"
     bordercolor="#666666"
     borderopacity="1.0"
     inkscape:pageshadow="2"
     inkscape:pageopacity="0.0"
     inkscape:pagecheckerboard="0"
     showgrid="false"
     inkscape:zoom="2.019169"
     inkscape:cx="212.71127"
     inkscape:cy="210.48263"
     inkscape:window-width="1920"
     inkscape:window-height="1015"
     inkscape:window-x="0"
     inkscape:window-y="0"
     inkscape:window-maximized="1"
     inkscape:current-layer="Layer_1" />
  <defs
     id="defs4">
    <style
       id="style2">.cls-1{fill:#5aa1d8;}.cls-2{fill:#02235e;}</style>
  </defs>
  <title
     id="title6">test-logo prez (1)</title>
  <path
     class="cls-1"
     d="M244.5,168,194.6,86.38a19.76,19.76,0,0,0-33.73,0l-42.15,69.07-8,13.44h0L36.92,289.69A20,20,0,0,0,54,320.15h78.62a26.19,26.19,0,0,0,22-12L177.84,272h0Z"
     id="path8"
     style="fill:#b3b3b3" />
  <circle
     class="cls-1"
     cx="335.98"
     cy="226.38"
     r="28.09"
     id="circle10"
     style="fill:#b3b3b3" />
  <circle
     class="cls-2"
     cx="373.85"
     cy="294.08"
     r="28.09"
     id="circle12"
     style="fill:#666666" />
  <path
     class="cls-2"
     d="M318.6,289.21,244.5,168l-66.81,104,23.86,37.16A23.47,23.47,0,0,0,221.31,320h80A20.25,20.25,0,0,0,318.6,289.21Z"
     id="path14"
     style="fill:#666666" />
</svg>
