<svg id="Calque_1" data-name="Calque 1" xmlns="http://www.w3.org/2000/svg" viewBox="0 0 1213.47 1080"><defs><style>.cls-1{fill:#372f84;}.cls-2{fill:#e9a93e;}</style></defs><g id="_05._Exemples" data-name=" 05. Exemples"><g id="Symbole_du_logo" data-name="Symbole du logo"><path class="cls-1" d="M441.73,4.26c-1,.56,1.16,0,0,0C258.45,4.26,43.24,166.75,130.22,519c21.49,87,63.24,167.79,124.1,232.22,69.41,73.54,177.49,143.12,334.13,132.5C702,876.07,808.85,822.51,879.6,730.8c51.58-67,89.41-160.09,52.22-275.8C897.24,347.38,799.57,273.28,689.3,272.82c-8,0-16.34.21-24.91.74-55.9,3.53-74.88,36.52-79.79,59.32a52.28,52.28,0,0,0,55.79,62.59c2-.21,4.06-.31,6.07-.45,71.81-3.92,130.1,59.17,125.69,133C767.46,606.7,724.87,653.84,678,682c-68.24,41-151.73,44.39-224.53,13-185.11-79.68-199.33-256.6-199.33-256.6C229.2,215.73,333.33,82,443.71,3.8"/><path class="cls-2" d="M19,460.75A636.46,636.46,0,0,0,100.16,773c162.7,290.23,532.82,392.13,823.15,229.82l3-1.66c165.24-93.09,327.49-275.55,240.51-627.81-21.49-87.06-63.23-167.79-124.07-232.22C973.32,67.63,865.2-2,708.6,8.67,595.05,16.33,488.17,69.89,417.45,161.56c-51.62,67.05-89.45,160.13-52.22,275.8C399.77,545,497.48,619.12,607.75,619.58c8,0,16.3-.21,24.91-.74,55.9-3.53,74.88-36.56,79.75-59.32a52.29,52.29,0,0,0-55.65-62.63c-2,.21-4.09.35-6.07.46-71.84,3.91-130.1-59.14-125.69-133,4.66-78.69,47.29-125.83,94.11-154,68.25-41,151.73-44.43,224.53-13.06C1028.75,277.05,1043,453.94,1043,453.94c25,222.7-79.15,356.39-189.56,434.66-144.14,102.08-340.09,122.09-492.7,35C100.16,774.8,30.36,561.28,19.35,443.32,19.07,449.11,19,454.93,19,460.75Z"/></g></g></svg>