<svg id="Calque_1" data-name="Calque 1" xmlns="http://www.w3.org/2000/svg" viewBox="0 0 1213.47 1080"><defs><style>.cls-1{fill:#ff7700;stroke:#ff0000;stroke-miterlimit:10;stroke-width:7.82px;}.cls-2{fill:#ff0000;}</style></defs><g id="_05._Exemples" data-name=" 05. Exemples"><g id="Symbole_du_logo" data-name="Symbole du logo"><path class="cls-1" d="M443.69.46c-1,.57,1.17,0,0,0C259.77.46,43.8,163.53,131.08,517c21.57,87.36,63.46,168.38,124.54,233,69.66,73.8,178.12,143.63,335.31,133,114-7.69,221.17-61.44,292.17-153.47,51.77-67.28,89.73-160.66,52.41-276.77-34.7-108-132.72-182.37-243.38-182.83-8,0-16.39.21-25,.74C611,274.26,592,307.36,587.07,330.24a52.48,52.48,0,0,0,56,62.82c2-.21,4.07-.32,6.09-.46C721.2,388.67,779.7,452,775.27,526.06c-4.71,79-47.45,126.28-94.44,154.53-68.48,41.15-152.26,44.55-225.31,13.07-185.77-80-200-257.51-200-257.51C230.41,212.68,334.91,78.51,445.67,0"/><path class="cls-2" d="M19.47,458.57A638.54,638.54,0,0,0,100.91,772c163.28,291.26,534.7,393.52,826.06,230.63l3-1.66c165.83-93.41,328.65-276.52,241.36-630-21.57-87.36-63.46-168.38-124.51-233C977.15,64.06,868.65-5.81,711.5,4.89c-114,7.68-221.21,61.43-292.17,153.43C367.52,225.6,329.56,319,366.92,435.09c34.67,108,132.72,182.4,243.38,182.86,8,0,16.36-.21,25-.74,56.09-3.54,75.14-36.69,80-59.53a52.49,52.49,0,0,0-55.84-62.85c-2.05.21-4.11.35-6.09.46-72.1,3.93-130.56-59.35-126.13-133.43,4.67-79,47.45-126.27,94.44-154.53C690.18,166.18,774,162.75,847,194.23c185.76,80,200,257.5,200,257.5,25.07,223.48-79.43,357.65-190.23,436.19-144.65,102.45-341.28,122.52-494.43,35.17C100.91,773.72,30.87,559.45,19.82,441.08,19.54,446.88,19.47,452.73,19.47,458.57Z"/></g></g></svg>