<svg xmlns="http://www.w3.org/2000/svg" xmlns:xlink="http://www.w3.org/1999/xlink" width="80" height="80" viewBox="0 0 80 80">
  <defs>
    <radialGradient id="radial-gradient" cx="0.5" cy="0.5" r="0.5" gradientUnits="objectBoundingBox">
      <stop offset="0" stop-color="#fff"/>
      <stop offset="0.867" stop-color="#fefdff"/>
      <stop offset="1" stop-color="#686eec"/>
    </radialGradient>
    <clipPath id="clip-path">
      <rect id="Rectangle_346" data-name="Rectangle 346" width="38.789" height="55.752" fill="#001192"/>
    </clipPath>
  </defs>
  <g id="Groupe_562" data-name="Groupe 562" transform="translate(-1178 -620)">
    <g id="Groupe_553" data-name="Groupe 553" transform="translate(186 501)">
      <g id="Groupe_504" data-name="Groupe 504" transform="translate(-93 103)">
        <g id="Ellipse_31" data-name="Ellipse 31" transform="translate(1085 16)" stroke="#001192" stroke-width="2" fill="url(#radial-gradient)">
          <circle cx="40" cy="40" r="40" stroke="none"/>
          <circle cx="40" cy="40" r="39" fill="none"/>
        </g>
      </g>
    </g>
    <g id="Groupe_548" data-name="Groupe 548" transform="translate(1200 631)">
      <g id="Groupe_547" data-name="Groupe 547" clip-path="url(#clip-path)">
        <path id="Tracé_1117" data-name="Tracé 1117" d="M8.165,6.646c-1.719,1.054-.821,9.6.755,14.679l3.625-1.1S9.877,8.907,10.932,7.327A9.574,9.574,0,0,1,12.78,5.145Z" transform="translate(-5.902 -4.198)" fill="#001192"/>
        <path id="Tracé_1118" data-name="Tracé 1118" d="M20.734,9.609a25.447,25.447,0,0,0-1.615-5.85C17.944,1.4,14.545,2.821,12.3,4.5c0,0,2.365-.189,3.009,1.618a28.836,28.836,0,0,1,1.255,5.449Z" transform="translate(-10.038 -2.052)" fill="#686eec"/>
        <path id="Tracé_1119" data-name="Tracé 1119" d="M178.908,6.646c1.719,1.054.821,9.6-.755,14.679l-3.625-1.1s2.668-11.323,1.613-12.9a9.574,9.574,0,0,0-1.849-2.182Z" transform="translate(-142.227 -4.198)" fill="#001192"/>
        <path id="Tracé_1120" data-name="Tracé 1120" d="M153.54,9.609a25.447,25.447,0,0,1,1.615-5.85c1.175-2.359,4.575-.938,6.819.74,0,0-2.365-.189-3.009,1.618a28.836,28.836,0,0,0-1.255,5.449Z" transform="translate(-125.293 -2.052)" fill="#686eec"/>
        <path id="Tracé_1121" data-name="Tracé 1121" d="M38.789,58.006c0,.189,0,.376,0,.561-.033,5.315-.459,9.25-1.132,9.963-2.223,2.357-9.687,3.03-18.26,3.03s-16.037-.673-18.26-3.03C.461,67.817.035,63.882,0,58.567c0-.185,0-.372,0-.561,0-2.541.079-5.371.264-8.3.038-.585.078-1.175.123-1.767C1.206,37.2,3.4,25.664,7.645,22.4c2.3-1.768,5.558-3.03,11.75-3.03s9.448,1.262,11.75,3.03c4.285,3.289,6.476,15,7.277,25.806q.067.9.121,1.782c.172,2.829.251,5.559.246,8.016" transform="translate(0 -15.808)" fill="#686eec"/>
        <path id="Tracé_1126" data-name="Tracé 1126" d="M51.522,88.228c0,.166,0,.329,0,.492-.027,4.659-.371,8.108-.915,8.734-.783.9-2.369,1.52-4.483,1.932a57.188,57.188,0,0,1-10.288.724c-6.937,0-12.974-.59-14.772-2.656-.545-.626-.889-4.075-.916-8.734,0-.163,0-.326,0-.492-.016-10.741,1.608-27.407,6.183-31.213,1.863-1.55,4.5-2.657,9.506-2.657s7.643,1.107,9.505,2.657c1.747,1.453,3.064,4.783,4.022,8.941a108.185,108.185,0,0,1,2.161,22.272" transform="translate(-16.438 -44.358)" fill="#686eec"/>
        <path id="Tracé_1128" data-name="Tracé 1128" d="M72.763,57.015c-3.913.667,1.255,31.365-9.505,31.365s-5.593-30.7-9.506-31.365c1.863-1.55,4.5-2.657,9.506-2.657s7.643,1.107,9.505,2.657" transform="translate(-43.863 -44.358)" fill="#9da1fa"/>
        <path id="Tracé_1122" data-name="Tracé 1122" d="M38.445,173.94c-.307-.174-.611-.353-.919-.523.561,5.474.544,15.4-.885,19.3-2.171,5.924-28.477,4.236-32.992,1.553-4.136-2.457-1.729-21.236-1.729-21.236-.062.054-1.447,1.324-1.615,1.438-.014.208-.028.417-.042.624C.079,178.027,0,180.858,0,183.4c0,.189,0,.376,0,.561.033,5.315.46,9.25,1.133,9.963,2.223,2.357,9.686,3.03,18.26,3.03s16.037-.673,18.26-3.03c.673-.713,1.1-4.648,1.132-9.963,0-.185,0-.372,0-.561,0-2.458-.074-5.187-.246-8.016q-.043-.717-.1-1.442" transform="translate(0.001 -141.2)" fill="#001192"/>
        <path id="Tracé_1123" data-name="Tracé 1123" d="M42.7,58.162a93.065,93.065,0,0,0-1.794-11.54c-1.186-5.15-2.741-8.644-4.5-10.106-1.659-1.381-4.374-2.967-10.7-2.967s-9.042,1.586-10.7,2.967c-2.9,2.414-5.127,10.051-6.276,21.5l-.994-.1a85.288,85.288,0,0,1,2.3-13.512c1.175-4.329,2.633-7.243,4.334-8.66,2.656-2.213,6.154-3.2,11.34-3.2s8.683.986,11.339,3.2C39,37.374,40.629,40.957,41.882,46.4A94.094,94.094,0,0,1,43.7,58.063Z" transform="translate(-6.318 -26.561)" fill="#001192"/>
        <path id="Tracé_1124" data-name="Tracé 1124" d="M186.676,162.462a18.467,18.467,0,0,0-4.979-3.888l-.167-1.373a13.066,13.066,0,0,1,5.025,3.479q.067.9.121,1.782" transform="translate(-148.133 -128.28)" fill="#001192"/>
        <path id="Tracé_1125" data-name="Tracé 1125" d="M6.317,157.2l-.166,1.373a18.435,18.435,0,0,0-4.715,3.6q.056-.878.123-1.767A12.6,12.6,0,0,1,6.317,157.2" transform="translate(-1.171 -128.279)" fill="#001192"/>
        <path id="Tracé_1127" data-name="Tracé 1127" d="M51.522,104.91c0,.166,0,.329,0,.492-.027,4.659-.371,8.108-.915,8.734-.783.9-2.369,1.52-4.483,1.932a57.188,57.188,0,0,1-10.288.724,57.184,57.184,0,0,1-10.288-.724c-.605-.118-1.167-.253-1.679-.407-.093-.028-.186-.057-.275-.086l-.191-.064-.152-.054L23.1,115.4l-.01,0-.141-.056-.144-.059c-.095-.039-.187-.08-.276-.122-.049-.022-.1-.046-.144-.069l-.089-.045-.049-.026-.1-.055c-.082-.044-.16-.09-.236-.137-.038-.023-.076-.047-.112-.071-.069-.045-.137-.092-.2-.14l-.013-.01c-.028-.021-.056-.042-.082-.063a.132.132,0,0,1-.017-.013c-.024-.019-.048-.038-.071-.058l-.031-.026c-.026-.022-.051-.043-.075-.066l0,0c-.028-.024-.053-.049-.079-.074-.057-.056-.11-.111-.16-.169a.919.919,0,0,1-.124-.2c-.016-.033-.032-.069-.047-.107s-.031-.079-.046-.122-.031-.089-.045-.138-.029-.1-.044-.152c-.028-.107-.056-.223-.083-.349l-.02-.1c-.026-.131-.052-.27-.077-.419s-.048-.306-.071-.472c-.011-.083-.022-.168-.033-.256-.027-.217-.052-.448-.077-.691-.015-.146-.028-.3-.042-.45-.036-.412-.066-.853-.093-1.321-.007-.117-.013-.236-.019-.356s-.012-.242-.017-.366c-.008-.185-.016-.374-.023-.566s-.014-.388-.019-.587c-.02-.662-.032-1.361-.036-2.089,0-.082,0-.163,0-.245s0-.165,0-.247c0-.152,0-.3,0-.458,0-.091,0-.181,0-.273,0-.225,0-.452.006-.682,0-.107,0-.215,0-.324l0-.327c0-.109,0-.219.006-.329,0-.141.006-.281.009-.423q.006-.25.013-.5t.015-.507c0-.085,0-.17.008-.256,0-.112.008-.226.012-.339q.012-.343.026-.692.016-.391.035-.786c.01-.2.02-.411.031-.617.007-.118.013-.236.019-.355q.03-.532.063-1.07.011-.179.023-.359.059-.9.132-1.8C21.2,86.75,22.678,78.438,25.32,74.8a26.037,26.037,0,0,0-1.961,7.454c-.132.933-.261,2-.381,3.172-.974,9.406-1.476,25.195.22,27.194a5.82,5.82,0,0,0,2.463,1.668,16.967,16.967,0,0,0,5.466.741c7.49.161,12.137-.448,14.855-1.216,1.927-.545,2.885-1.17,3.2-1.661,1.609-2.5,1.239-9.362,1.232-11.175-.014-3.907-.242-7.791-.49-11.689-.092-1.437-.047-2.879-.078-4.318q.111.592.215,1.2c.086.5.167,1.016.245,1.532q.046.311.092.623c.03.208.059.418.087.628.014.1.028.21.042.314s.028.211.042.316l.04.311s0,.009,0,.013c.013.1.026.207.038.31q.04.318.076.637c.025.212.049.426.072.639.007.067.015.135.022.2.017.146.033.294.047.44.012.107.022.214.033.321s.022.214.032.321c.013.13.026.26.038.389.007.085.016.169.023.254q.081.876.149,1.752c.009.12.019.241.027.362.012.151.023.3.033.455l.023.32c.016.222.03.444.044.664.012.186.023.37.033.555.02.334.038.667.056,1,.008.156.016.313.023.469s.014.305.021.458q.039.874.064,1.725c0,.113.007.226.01.339,0,.133.007.266.011.4,0,.188.008.375.012.56,0,.032,0,.066,0,.1,0,.092,0,.184,0,.276.013.707.018,1.4.017,2.063" transform="translate(-16.439 -61.04)" fill="#686eec"/>
        <path id="Tracé_1129" data-name="Tracé 1129" d="M61.885,102.238c-.181,0-.361-.008-.535-.022a.125.125,0,0,1,.021-.249,6.156,6.156,0,0,0,1.063,0,.125.125,0,1,1,.023.249c-.186.017-.378.026-.571.026m-1.583-.216a.121.121,0,0,1-.035,0,5.24,5.24,0,0,1-1.021-.416.125.125,0,0,1,.118-.22,5,5,0,0,0,.972.4.125.125,0,0,1-.035.245m3.2-.011a.125.125,0,0,1-.036-.245,4.986,4.986,0,0,0,.968-.4.125.125,0,0,1,.12.219,5.233,5.233,0,0,1-1.017.423.12.12,0,0,1-.036.005m-5.093-1a.124.124,0,0,1-.079-.029,6.555,6.555,0,0,1-.785-.776.125.125,0,0,1,.189-.163,6.316,6.316,0,0,0,.755.747.125.125,0,0,1-.08.221m6.975-.024a.125.125,0,0,1-.08-.221,6.368,6.368,0,0,0,.75-.75.125.125,0,1,1,.19.162,6.62,6.62,0,0,1-.78.779.125.125,0,0,1-.08.029m-8.393-1.609a.125.125,0,0,1-.105-.057,10.641,10.641,0,0,1-.548-.956.125.125,0,1,1,.223-.113,10.3,10.3,0,0,0,.535.933.125.125,0,0,1-.037.173.123.123,0,0,1-.068.02m9.8-.029a.125.125,0,0,1-.1-.192,10.422,10.422,0,0,0,.532-.934.125.125,0,1,1,.223.113,10.7,10.7,0,0,1-.544.956.124.124,0,0,1-.105.057M56,97.443a.125.125,0,0,1-.116-.077c-.133-.325-.262-.671-.382-1.03a.125.125,0,0,1,.237-.08c.119.354.246.7.377,1.015a.125.125,0,0,1-.068.163.123.123,0,0,1-.047.009m11.783-.03a.124.124,0,0,1-.047-.009.125.125,0,0,1-.069-.163c.13-.32.256-.662.375-1.015a.125.125,0,0,1,.237.079c-.12.359-.248.706-.38,1.03a.125.125,0,0,1-.116.078M55.3,95.377a.125.125,0,0,1-.12-.091c-.095-.339-.186-.7-.272-1.063a.125.125,0,1,1,.243-.057c.085.363.176.717.27,1.052a.125.125,0,0,1-.12.158m13.178-.03a.125.125,0,0,1-.12-.158c.093-.336.184-.69.268-1.052a.125.125,0,1,1,.243.057c-.085.365-.176.723-.271,1.062a.125.125,0,0,1-.12.091M54.8,93.253a.125.125,0,0,1-.122-.1c-.069-.346-.135-.709-.2-1.078a.125.125,0,0,1,.246-.041c.062.367.127.727.2,1.071a.125.125,0,0,1-.1.147l-.024,0m14.178-.03-.024,0a.125.125,0,0,1-.1-.147c.068-.344.133-.7.195-1.071a.125.125,0,0,1,.246.041c-.062.369-.127.731-.2,1.078a.125.125,0,0,1-.122.1M54.435,91.1a.125.125,0,0,1-.123-.107c-.05-.35-.1-.715-.144-1.085a.125.125,0,0,1,.248-.03c.045.368.093.731.143,1.08a.125.125,0,0,1-.106.141h-.018m14.9-.03h-.018a.125.125,0,0,1-.106-.141c.049-.347.1-.711.142-1.08a.125.125,0,1,1,.248.03c-.045.371-.093.736-.143,1.085a.125.125,0,0,1-.123.107M54.169,88.932a.125.125,0,0,1-.124-.112c-.036-.35-.072-.716-.105-1.089a.125.125,0,1,1,.249-.022c.033.371.068.736.1,1.085a.125.125,0,0,1-.111.137h-.013M69.6,88.9H69.59a.125.125,0,0,1-.111-.137c.036-.35.071-.715.1-1.085a.125.125,0,1,1,.249.022c-.033.371-.068.738-.1,1.089a.125.125,0,0,1-.124.112M53.974,86.757a.125.125,0,0,1-.124-.115q-.042-.545-.078-1.09a.125.125,0,0,1,.249-.017q.036.544.078,1.088a.125.125,0,0,1-.115.134h-.01m15.824-.03h-.01a.125.125,0,0,1-.115-.134q.042-.545.078-1.09a.123.123,0,0,1,.133-.116.125.125,0,0,1,.116.133q-.036.546-.078,1.092a.125.125,0,0,1-.124.115m-15.97-2.149a.125.125,0,0,1-.125-.118q-.032-.548-.06-1.091a.125.125,0,1,1,.249-.013q.028.542.06,1.09a.125.125,0,0,1-.117.132h-.007m16.115-.031h-.008a.125.125,0,0,1-.117-.132q.032-.547.06-1.09a.123.123,0,0,1,.131-.118.125.125,0,0,1,.118.131q-.028.543-.06,1.091a.125.125,0,0,1-.124.118M53.714,82.4a.125.125,0,0,1-.125-.119q-.026-.551-.05-1.092a.125.125,0,0,1,.119-.131.129.129,0,0,1,.13.119q.024.54.05,1.091a.125.125,0,0,1-.119.131h-.006m16.343-.031h-.006a.125.125,0,0,1-.119-.131q.026-.55.05-1.091a.126.126,0,0,1,.13-.119.125.125,0,0,1,.119.13q-.025.541-.05,1.092a.125.125,0,0,1-.125.119M53.614,80.214a.125.125,0,0,1-.125-.119q-.025-.554-.05-1.091a.125.125,0,0,1,.249-.012q.025.537.05,1.092a.125.125,0,0,1-.119.13h-.006m16.542-.03H70.15a.125.125,0,0,1-.119-.13q.025-.554.05-1.091a.125.125,0,1,1,.249.012q-.025.537-.05,1.091a.125.125,0,0,1-.125.119M53.509,78.032a.125.125,0,0,1-.125-.118q-.029-.558-.062-1.09a.125.125,0,0,1,.249-.016q.033.533.062,1.092a.125.125,0,0,1-.118.132h-.007M70.261,78h-.007a.124.124,0,0,1-.118-.131q.03-.559.063-1.092a.124.124,0,0,1,.132-.117.125.125,0,0,1,.117.132q-.033.531-.063,1.09a.125.125,0,0,1-.125.118m-16.889-2.15a.125.125,0,0,1-.124-.115c-.03-.387-.062-.752-.1-1.086a.125.125,0,1,1,.248-.025c.034.335.066.7.1,1.092a.125.125,0,0,1-.115.134h-.01M70.4,75.82h-.01a.125.125,0,0,1-.115-.134c.031-.4.063-.753.1-1.092a.125.125,0,1,1,.249.025c-.034.337-.066.692-.1,1.086a.125.125,0,0,1-.124.115M53.148,73.677a.125.125,0,0,1-.123-.108c-.054-.392-.115-.752-.18-1.07a.125.125,0,1,1,.245-.05c.066.323.127.688.182,1.086a.125.125,0,0,1-.107.141h-.017m17.478-.031h-.017A.125.125,0,0,1,70.5,73.5c.055-.4.117-.763.184-1.086a.125.125,0,1,1,.244.051c-.066.317-.127.677-.181,1.069a.125.125,0,0,1-.124.108m-17.936-2.1a.125.125,0,0,1-.118-.084,2.873,2.873,0,0,0-.472-.915.125.125,0,0,1,.19-.161,3.062,3.062,0,0,1,.518,1,.124.124,0,0,1-.077.159.119.119,0,0,1-.04.007m18.4-.03a.125.125,0,0,1-.118-.166,2.954,2.954,0,0,1,.53-.99.125.125,0,1,1,.187.165,2.759,2.759,0,0,0-.481.907.125.125,0,0,1-.118.084" transform="translate(-42.49 -57.38)" fill="#001192"/>
        <path id="Tracé_1130" data-name="Tracé 1130" d="M165.691,139.669c0,.166,0,.329,0,.492-.027,4.659-.371,8.108-.915,8.734-.783.9-2.369,1.52-4.483,1.932-1.168-15.147,2.3-29.807,3.239-33.43a108.184,108.184,0,0,1,2.161,22.272" transform="translate(-130.608 -95.799)" fill="#001192"/>
        <path id="Tracé_1132" data-name="Tracé 1132" d="M20.145,139.669c0,.166,0,.329,0,.492.027,4.659.371,8.108.915,8.734.783.9,2.369,1.52,4.483,1.932,1.168-15.147-2.3-29.807-3.239-33.43a108.184,108.184,0,0,0-2.161,22.272" transform="translate(-16.438 -95.799)" fill="#001192"/>
        <path id="Tracé_1135" data-name="Tracé 1135" d="M48.3,92.32l-.03,0a.166.166,0,0,1-.134-.193c.053-.3.1-.637.149-1.013a.166.166,0,1,1,.33.04c-.046.382-.1.73-.152,1.032a.167.167,0,0,1-.164.137M16.714,92.3a.166.166,0,0,1-.164-.137c-.054-.3-.1-.65-.151-1.032a.166.166,0,1,1,.331-.04c.045.376.1.717.148,1.013a.167.167,0,0,1-.135.193l-.029,0m31.842-2.032h-.015a.167.167,0,0,1-.151-.18c.029-.323.055-.668.078-1.027a.164.164,0,0,1,.177-.155.166.166,0,0,1,.155.177c-.023.361-.05.709-.078,1.034a.166.166,0,0,1-.166.152m-32.1-.019a.166.166,0,0,1-.166-.152c-.028-.324-.054-.672-.078-1.034a.166.166,0,0,1,.155-.177.164.164,0,0,1,.177.155c.023.36.049.705.077,1.027a.167.167,0,0,1-.151.18h-.015m32.232-2.044h-.008a.166.166,0,0,1-.158-.174c.016-.333.029-.679.041-1.03a.166.166,0,1,1,.333.011c-.012.353-.026.7-.041,1.035a.167.167,0,0,1-.166.159m-32.367-.019a.167.167,0,0,1-.166-.159c-.016-.332-.029-.68-.041-1.035a.166.166,0,0,1,.333-.011c.012.353.025.7.041,1.03a.166.166,0,0,1-.159.174h-.008M48.76,86.14h0a.166.166,0,0,1-.163-.17q.01-.5.015-1.032a.166.166,0,0,1,.166-.165h0a.166.166,0,0,1,.165.168q0,.528-.015,1.035a.166.166,0,0,1-.166.163m-32.5-.019a.166.166,0,0,1-.166-.163q-.01-.506-.015-1.035a.167.167,0,0,1,.165-.168h0a.167.167,0,0,1,.166.165q0,.527.015,1.032a.166.166,0,0,1-.163.17h0M48.78,84.073a.166.166,0,0,1-.166-.166v-.039q0-.489,0-.993a.167.167,0,0,1,.165-.168h0a.167.167,0,0,1,.166.165q0,.505,0,1v.039a.166.166,0,0,1-.166.166m-32.544-.019a.166.166,0,0,1-.166-.166v-.03q0-.5,0-1.006a.166.166,0,0,1,.166-.165h0a.167.167,0,0,1,.165.168q0,.509,0,1v.03a.166.166,0,0,1-.166.166m32.526-2.049a.167.167,0,0,1-.166-.164q-.009-.51-.022-1.032a.166.166,0,0,1,.333-.008q.014.523.022,1.035a.167.167,0,0,1-.164.169h0m-32.508-.02h0a.166.166,0,0,1-.164-.169q.009-.512.022-1.036a.167.167,0,0,1,.166-.162h0a.166.166,0,0,1,.162.171q-.013.522-.022,1.033a.166.166,0,0,1-.166.164M48.71,79.938a.167.167,0,0,1-.166-.161q-.017-.512-.038-1.032a.167.167,0,0,1,.16-.173.165.165,0,0,1,.173.16q.022.521.039,1.034a.167.167,0,0,1-.161.172H48.71m-32.4-.021H16.3a.167.167,0,0,1-.161-.172q.017-.513.039-1.035a.166.166,0,0,1,.333.014q-.022.52-.039,1.032a.167.167,0,0,1-.166.161m32.317-2.045a.166.166,0,0,1-.166-.158q-.025-.513-.054-1.031a.166.166,0,1,1,.332-.019q.03.519.055,1.034a.166.166,0,0,1-.158.174h-.008M16.393,77.85h-.008a.167.167,0,0,1-.158-.174q.025-.514.055-1.034a.166.166,0,0,1,.332.019q-.029.519-.054,1.032a.167.167,0,0,1-.166.158m32.115-2.042a.167.167,0,0,1-.166-.156q-.033-.514-.07-1.032A.166.166,0,0,1,48.6,74.6q.038.519.071,1.034a.166.166,0,0,1-.155.177h-.011m-32-.023H16.5a.166.166,0,0,1-.155-.177q.033-.515.071-1.033a.166.166,0,0,1,.332.024q-.037.517-.07,1.031a.166.166,0,0,1-.166.156m31.849-2.042a.166.166,0,0,1-.166-.153q-.041-.515-.087-1.03a.166.166,0,0,1,.332-.029q.046.516.087,1.032a.167.167,0,0,1-.153.179h-.013m-31.7-.019h-.013a.166.166,0,0,1-.153-.179q.041-.515.087-1.031a.166.166,0,0,1,.332.029q-.046.515-.087,1.029a.166.166,0,0,1-.166.153m31.517-2.041a.166.166,0,0,1-.165-.15q-.05-.514-.1-1.027a.166.166,0,1,1,.331-.035q.055.514.1,1.03a.166.166,0,0,1-.15.182h-.016m-31.334-.019h-.016a.167.167,0,0,1-.15-.182q.05-.517.105-1.033a.166.166,0,1,1,.331.035q-.055.514-.1,1.03a.166.166,0,0,1-.165.15m31.116-2.036a.166.166,0,0,1-.165-.147q-.059-.514-.123-1.024a.166.166,0,0,1,.33-.041q.064.512.124,1.027a.166.166,0,0,1-.146.184h-.019m-30.9-.023h-.019a.167.167,0,0,1-.146-.185q.06-.516.124-1.028a.166.166,0,1,1,.33.042q-.064.511-.124,1.025a.166.166,0,0,1-.165.147M47.7,67.576a.167.167,0,0,1-.165-.144q-.07-.514-.145-1.022a.166.166,0,0,1,.329-.049q.075.51.145,1.026a.166.166,0,0,1-.142.187l-.023,0m-30.381-.026H17.3a.166.166,0,0,1-.142-.187q.07-.515.146-1.026a.166.166,0,1,1,.329.049q-.075.508-.145,1.022a.167.167,0,0,1-.165.144M47.4,65.531a.166.166,0,0,1-.164-.14q-.082-.513-.169-1.018a.166.166,0,0,1,.328-.057q.088.507.17,1.022a.166.166,0,0,1-.138.191l-.026,0M17.621,65.5l-.026,0a.166.166,0,0,1-.138-.191q.083-.516.17-1.023a.166.166,0,1,1,.328.057q-.088.5-.17,1.018a.167.167,0,0,1-.164.14m29.424-2.011a.167.167,0,0,1-.163-.136c-.065-.344-.131-.684-.2-1.012a.166.166,0,0,1,.326-.067c.067.329.134.672.2,1.017a.166.166,0,0,1-.133.194.161.161,0,0,1-.031,0m-29.07-.027-.031,0a.167.167,0,0,1-.133-.194c.065-.344.132-.687.2-1.018a.166.166,0,0,1,.326.067c-.067.329-.134.67-.2,1.013a.166.166,0,0,1-.163.136m28.655-2a.166.166,0,0,1-.162-.13q-.046-.2-.092-.407-.07-.3-.141-.6a.167.167,0,1,1,.324-.079q.072.3.142.6.047.2.093.409a.166.166,0,0,1-.126.2.163.163,0,0,1-.036,0m-28.24-.028a.175.175,0,0,1-.036,0,.166.166,0,0,1-.126-.2c.076-.343.156-.683.235-1.011a.166.166,0,0,1,.323.079c-.079.326-.158.663-.234,1a.167.167,0,0,1-.162.13m27.751-1.981a.166.166,0,0,1-.161-.123c-.091-.339-.184-.673-.278-.991a.166.166,0,0,1,.319-.094c.095.321.189.657.281,1a.167.167,0,0,1-.161.209m-27.26-.029a.167.167,0,0,1-.161-.209c.092-.343.187-.679.282-1a.166.166,0,1,1,.319.095c-.094.318-.188.651-.279.991a.166.166,0,0,1-.161.123m26.673-1.953a.167.167,0,0,1-.158-.115c-.11-.335-.224-.661-.338-.97a.166.166,0,1,1,.312-.116c.116.313.231.643.342.982a.167.167,0,0,1-.158.219m-26.084-.03a.166.166,0,0,1-.158-.219c.112-.339.228-.669.344-.982a.166.166,0,0,1,.312.116c-.115.309-.229.635-.34.97a.166.166,0,0,1-.158.114M44.834,55.54a.166.166,0,0,1-.153-.1c-.138-.327-.281-.64-.425-.931a.166.166,0,1,1,.3-.148c.147.3.292.617.433.949a.167.167,0,0,1-.153.231m-24.64-.03a.167.167,0,0,1-.153-.232c.141-.332.287-.651.435-.949a.166.166,0,1,1,.3.148c-.145.292-.288.605-.427.931a.167.167,0,0,1-.153.1M43.915,53.69a.166.166,0,0,1-.143-.082,9.565,9.565,0,0,0-.561-.846.166.166,0,0,1,.267-.2,9.923,9.923,0,0,1,.58.876.167.167,0,0,1-.143.251m-22.8-.029a.166.166,0,0,1-.143-.252,9.863,9.863,0,0,1,.583-.874.166.166,0,0,1,.266.2,9.572,9.572,0,0,0-.563.844.166.166,0,0,1-.143.081m21.55-1.613A.165.165,0,0,1,42.552,52c-.1-.094-.194-.183-.292-.264-.159-.132-.322-.26-.485-.38a.166.166,0,1,1,.2-.268c.168.124.337.256.5.392.1.087.209.182.312.282a.166.166,0,0,1-.116.285m-20.3-.021a.166.166,0,0,1-.116-.286c.1-.092.192-.18.289-.26.171-.143.348-.281.525-.411a.167.167,0,1,1,.2.269c-.172.126-.343.26-.509.4-.09.075-.181.157-.271.244a.166.166,0,0,1-.116.047M41.012,50.82a.167.167,0,0,1-.084-.023,10.154,10.154,0,0,0-.9-.471.166.166,0,0,1,.139-.3,10.48,10.48,0,0,1,.93.487.166.166,0,0,1-.085.31M24.029,50.8a.166.166,0,0,1-.084-.31,10.471,10.471,0,0,1,.931-.484.166.166,0,1,1,.139.3c-.31.142-.613.3-.9.468a.166.166,0,0,1-.084.023m15.112-.852a.168.168,0,0,1-.056-.01c-.311-.11-.638-.212-.974-.3a.166.166,0,1,1,.086-.322c.344.092.68.2,1,.31a.166.166,0,0,1-.056.323M25.9,49.942a.166.166,0,0,1-.055-.323c.319-.112.655-.216,1-.307a.166.166,0,0,1,.086.322c-.336.089-.664.19-.975.3a.166.166,0,0,1-.055.01m11.245-.529a.177.177,0,0,1-.032,0c-.324-.064-.663-.121-1.01-.169a.166.166,0,1,1,.046-.33c.352.049.7.107,1.028.172a.167.167,0,0,1-.032.33M27.9,49.408a.166.166,0,0,1-.032-.33c.329-.064.675-.121,1.028-.17a.166.166,0,0,1,.045.33c-.347.048-.687.1-1.01.167a.175.175,0,0,1-.032,0m7.206-.281h-.015c-.331-.03-.675-.054-1.024-.071a.167.167,0,0,1,.017-.333c.353.018.7.042,1.037.072a.166.166,0,0,1-.015.332m-5.16,0a.166.166,0,0,1-.015-.332c.335-.03.684-.054,1.037-.071a.167.167,0,0,1,.016.333c-.349.017-.693.04-1.024.07h-.015m3.1-.1h0c-.337-.005-.691-.005-1.028,0h0a.167.167,0,0,1,0-.333c.341-.005.7-.005,1.038,0a.166.166,0,0,1,0,.333" transform="translate(-13.114 -39.728)" fill="#001192"/>
        <path id="Tracé_1137" data-name="Tracé 1137" d="M76.561,6.409c-1.277,0-2.066-1.013-2.9-2.086-1.049-1.348-2.134-2.741-4.346-2.741-2.356,0-3.7,1.573-4.889,2.96-.857,1-1.6,1.867-2.622,1.867a.791.791,0,0,1,0-1.581c.3,0,.92-.728,1.421-1.314C64.492,2.032,66.23,0,69.314,0c2.985,0,4.493,1.937,5.594,3.351.616.792,1.149,1.476,1.653,1.476a.791.791,0,0,1,0,1.581" transform="translate(-49.787 -0.001)" fill="#e20006"/>
      </g>
    </g>
    <g id="Groupe_561" data-name="Groupe 561" transform="translate(1200 631.001)">
      <path id="Tracé_1138" data-name="Tracé 1138" d="M94.53,172.777a2.455,2.455,0,0,1-2.455-2.455v-3.683l2.455-.208,2.455.208v3.683a2.455,2.455,0,0,1-2.455,2.455" transform="translate(-75.136 -135.812)" fill="#001192"/>
      <path id="Tracé_1139" data-name="Tracé 1139" d="M97.3,175.55a1.83,1.83,0,0,1-1.831-1.83v-2.746l1.831-.155,1.831.155v2.746a1.83,1.83,0,0,1-1.831,1.83" transform="translate(-77.906 -139.393)" fill="#e20006"/>
    </g>
    <g id="Groupe_560" data-name="Groupe 560" transform="translate(-0.812 4.236)">
      <path id="Tracé_1162" data-name="Tracé 1162" d="M20.392,12.361S10.406,23.5,18.148,35.144,21.9,50.6,21.9,50.6" transform="translate(1197.605 621.403)" fill="none" stroke="#fefdff" stroke-width="0.5"/>
      <g id="Groupe_559" data-name="Groupe 559" transform="matrix(0.809, -0.588, 0.588, 0.809, 1191.333, 664.216)" style="isolation: isolate">
        <path id="wired-mouse" d="M4.944,19.25H6.28a4.285,4.285,0,0,0,4.272-4.272V10.409H.672v4.568A4.285,4.285,0,0,0,4.944,19.25Zm.21-16.6H6.28a4.957,4.957,0,0,1,4.944,4.944v7.383A4.957,4.957,0,0,1,6.28,19.921H4.944A4.957,4.957,0,0,1,0,14.978V7.595A4.957,4.957,0,0,1,4.944,2.651Zm5.4,7.086V7.595A4.285,4.285,0,0,0,6.28,3.323H6.017V5.374a.9.9,0,0,1,.495.8V7.615a.9.9,0,0,1-.495.8V9.737Zm-5.345,0V8.417a.9.9,0,0,1-.495-.8V6.176a.9.9,0,0,1,.495-.8V3.323H4.944A4.285,4.285,0,0,0,.672,7.595V9.737Z" transform="translate(12.398 19.749)" fill="#fefeff"/>
        <path id="Tracé_1163" data-name="Tracé 1163" d="M5.522,0a5.522,5.522,0,0,1,5.522,5.522v6.393c0,3.049-2.472,4.94-5.522,4.94S0,14.964,0,11.915V5.522A5.522,5.522,0,0,1,5.522,0Z" transform="translate(12.201 22.672)" fill="#fefeff"/>
        <path id="Tracé_1160" data-name="Tracé 1160" d="M5.522,0a5.522,5.522,0,0,1,5.522,5.522v6.393c0,3.049-2.472,4.94-5.522,4.94S0,14.964,0,11.915V5.522A5.522,5.522,0,0,1,5.522,0Z" transform="translate(13.285 22.881)" fill="#d5d7fd"/>
        <path id="wired-mouse-2" data-name="wired-mouse" d="M4.944,19.25H6.28a4.285,4.285,0,0,0,4.272-4.272V10.409H.672v4.568A4.285,4.285,0,0,0,4.944,19.25Zm.21-16.6H6.28a4.957,4.957,0,0,1,4.944,4.944v7.383A4.957,4.957,0,0,1,6.28,19.921H4.944A4.957,4.957,0,0,1,0,14.978V7.595A4.957,4.957,0,0,1,4.944,2.651Zm5.4,7.086V7.595A4.285,4.285,0,0,0,6.28,3.323H6.017V5.374a.9.9,0,0,1,.495.8V7.615a.9.9,0,0,1-.495.8V9.737Zm-5.345,0V8.417a.9.9,0,0,1-.495-.8V6.176a.9.9,0,0,1,.495-.8V3.323H4.944A4.285,4.285,0,0,0,.672,7.595V9.737Z" transform="translate(13.134 20.283)" fill="#001192"/>
      </g>
      <path id="Tracé_1161" data-name="Tracé 1161" d="M20.392,12.361S10.406,23.5,18.148,35.144,21.9,50.6,21.9,50.6" transform="translate(1198.605 621.403)" fill="none" stroke="#001192" stroke-width="0.5"/>
    </g>
  </g>
</svg>
