<svg xmlns="http://www.w3.org/2000/svg" xmlns:xlink="http://www.w3.org/1999/xlink" width="80" height="80" viewBox="0 0 80 80">
  <defs>
    <clipPath id="clip-path">
      <rect id="Rectangle_317" data-name="Rectangle 317" width="50.446" height="56.321" fill="none" stroke="#707070" stroke-width="0.5"/>
    </clipPath>
    <clipPath id="clip-path-2">
      <path id="Tracé_1049" data-name="Tracé 1049" d="M117.191,14.733l-.057,0v.008c-1,.081-8.425.846-11.6,5.972-3.962,6.4-4.783,24.54-4.952,31.327a2.542,2.542,0,0,0,2.542,2.6H131.26a2.542,2.542,0,0,0,2.542-2.6c-.17-6.787-.991-24.931-4.952-31.327-3.176-5.126-10.6-5.891-11.6-5.972v-.008l-.057,0" transform="translate(-100.58 -14.729)" fill="none"/>
    </clipPath>
    <clipPath id="clip-path-3">
      <rect id="Rectangle_315" data-name="Rectangle 315" width="16.501" height="12.475" fill="none"/>
    </clipPath>
  </defs>
  <g id="Groupe_454" data-name="Groupe 454" transform="translate(-995 -11)">
    <g id="Groupe_453" data-name="Groupe 453">
      <g id="Ellipse_32" data-name="Ellipse 32" transform="translate(995 11)" fill="#fff" stroke="#001192" stroke-width="2">
        <circle cx="40" cy="40" r="40" stroke="none"/>
        <circle cx="40" cy="40" r="39" fill="none"/>
      </g>
      <g id="Groupe_451" data-name="Groupe 451" transform="translate(-118.223 -66.621)">
        <g id="Groupe_429" data-name="Groupe 429" transform="translate(1128 89.461)">
          <g id="Groupe_de_masques_409" data-name="Groupe de masques 409" clip-path="url(#clip-path)">
            <g id="Groupe_408" data-name="Groupe 408" transform="translate(0)">
              <g id="Groupe_424" data-name="Groupe 424">
                <path id="Tracé_1004" data-name="Tracé 1004" d="M.926,44.6A27.318,27.318,0,0,0,5.773,54.907a14.4,14.4,0,0,1,1.789-2.685A30.3,30.3,0,0,0,11.4,45.46a1.632,1.632,0,0,0,.144-1.234,1.547,1.547,0,0,0-.433-.52C9.1,41.95,5.969,41.183,4.858,38.758c-1.061-2.315-.171-6.563.378-9.106C5.21,29.768.913,32.031.624,32.237a4.08,4.08,0,0,0-.56,2.013,37.512,37.512,0,0,0,.191,6.607A32.384,32.384,0,0,0,.926,44.6" transform="translate(0 -26.465)" fill="#d5d5d5"/>
                <path id="Tracé_1005" data-name="Tracé 1005" d="M10.333,31.683a8.592,8.592,0,0,0-4.519-3.616q2.08-1.493,4.23-2.885a1.2,1.2,0,0,1,.386-.188,1.112,1.112,0,0,1,.547.061c2.705.812,4.685,3.077,6.468,5.268a6.481,6.481,0,0,1,1.091,1.671,1.086,1.086,0,0,1,.1.48,1.224,1.224,0,0,1-.227.538,15.125,15.125,0,0,1-4.727,4.4c-1.485.949-1.413-.934-1.681-1.9a13.833,13.833,0,0,0-1.663-3.832" transform="translate(-5.189 -22.294)" fill="#f0f0f0"/>
                <path id="Tracé_1010" data-name="Tracé 1010" d="M371.94,49.255a27.316,27.316,0,0,1-4.847,10.309,14.4,14.4,0,0,0-1.788-2.685,30.3,30.3,0,0,1-3.835-6.762,1.632,1.632,0,0,1-.144-1.234,1.549,1.549,0,0,1,.433-.52c2.009-1.756,5.139-2.523,6.25-4.948,1.061-2.315.171-6.563-.378-9.106.025.116,4.323,2.379,4.611,2.585a4.081,4.081,0,0,1,.56,2.013,37.5,37.5,0,0,1-.191,6.607,32.387,32.387,0,0,1-.671,3.742" transform="translate(-322.421 -30.621)" fill="#d5d5d5"/>
                <path id="Tracé_1011" data-name="Tracé 1011" d="M352.535,36.341a8.593,8.593,0,0,1,4.519-3.616q-2.08-1.493-4.23-2.885a1.192,1.192,0,0,0-.386-.188,1.114,1.114,0,0,0-.547.061c-2.705.813-4.685,3.077-6.468,5.268a6.485,6.485,0,0,0-1.091,1.671,1.088,1.088,0,0,0-.1.48,1.223,1.223,0,0,0,.227.538,15.125,15.125,0,0,0,4.727,4.4c1.485.949,1.413-.934,1.681-1.9a13.835,13.835,0,0,1,1.663-3.832" transform="translate(-307.233 -26.451)" fill="#f0f0f0"/>
                <path id="Tracé_1016" data-name="Tracé 1016" d="M177.338,2.614a2.061,2.061,0,0,0-.8-1.5,2.87,2.87,0,0,0-.905-.358,22.036,22.036,0,0,0-11.431,0,2.87,2.87,0,0,0-.905.358,2.062,2.062,0,0,0-.8,1.5A18.345,18.345,0,0,0,163,6.782c.183,1.359,1.57.86,2.5.4a.3.3,0,0,0,.163-.139.309.309,0,0,0-.054-.255c-.317-.569-.706-1.1-.995-1.682a2.984,2.984,0,0,1-.343-1.888.941.941,0,0,1,.294-.558A1.131,1.131,0,0,1,165,2.479a39.061,39.061,0,0,1,9.83,0,1.132,1.132,0,0,1,.435.186.941.941,0,0,1,.294.558,2.985,2.985,0,0,1-.343,1.888c-.288.584-.678,1.112-.995,1.682a.31.31,0,0,0-.054.255.3.3,0,0,0,.163.139c.925.455,2.313.954,2.5-.4a18.345,18.345,0,0,0,.514-4.168" transform="translate(-144.997)" fill="#001192"/>
                <path id="Tracé_1017" data-name="Tracé 1017" d="M77.095,60.251C75.5,41.222,56.562,41.222,56.562,41.222s-18.941,0-20.533,19.029c-.516,6.164-.575,20.657-.57,28.044a4.5,4.5,0,0,0,4.5,4.5h33.2a4.5,4.5,0,0,0,4.5-4.5c.005-7.387-.054-21.88-.57-28.044" transform="translate(-31.647 -36.791)" fill="#f0f0f0"/>
                <path id="Tracé_1018" data-name="Tracé 1018" d="M77.095,60.251C75.5,41.222,56.562,41.222,56.562,41.222s-18.941,0-20.533,19.029c-.516,6.164-.575,20.657-.57,28.044a4.494,4.494,0,0,0,1.764,3.57c0-7.851.068-21.93.523-28.052C39.2,44.167,56.562,44.167,56.562,44.167s17.358,0,18.817,19.645c.455,6.122.523,20.2.523,28.052a4.494,4.494,0,0,0,1.764-3.57c.005-7.387-.054-21.88-.57-28.044" transform="translate(-31.647 -36.791)" fill="#f0f0f0"/>
                <path id="Tracé_1019" data-name="Tracé 1019" d="M73.162,463.907h-33.2a4.5,4.5,0,0,1-4.5-4.469c0,.874,0,1.692,0,2.437a4.5,4.5,0,0,0,4.5,4.5h33.2a4.5,4.5,0,0,0,4.5-4.5c0-.745,0-1.563,0-2.437a4.5,4.5,0,0,1-4.5,4.469" transform="translate(-31.647 -410.053)" fill="#001192"/>
                <path id="Tracé_1020" data-name="Tracé 1020" d="M91.446,86.174a.352.352,0,0,1-.35-.325c-.595-8.008-3.874-13.692-9.747-16.893a20.4,20.4,0,0,0-8.719-2.427,20.4,20.4,0,0,0-8.719,2.427c-5.873,3.2-9.152,8.885-9.747,16.893a.352.352,0,1,1-.7-.052,23.779,23.779,0,0,1,3.613-11.526A18.1,18.1,0,0,1,63.6,68.324a20.718,20.718,0,0,1,9.029-2.5,20.718,20.718,0,0,1,9.029,2.5,18.1,18.1,0,0,1,6.525,5.947A23.779,23.779,0,0,1,91.8,85.8a.352.352,0,0,1-.325.377h-.026" transform="translate(-47.715 -58.75)" fill="#717d89"/>
                <path id="Tracé_1021" data-name="Tracé 1021" d="M92.833,87.458a.176.176,0,0,1-.175-.163c-.748-10.069-5.777-14.829-9.864-17.048a20.542,20.542,0,0,0-8.777-2.434,20.571,20.571,0,0,0-8.79,2.441c-4.082,2.221-9.1,6.98-9.851,17.041a.176.176,0,0,1-.351-.026,23.606,23.606,0,0,1,3.584-11.442,17.929,17.929,0,0,1,6.463-5.89,20.939,20.939,0,0,1,8.945-2.477,20.939,20.939,0,0,1,8.945,2.477,17.927,17.927,0,0,1,6.462,5.89,23.6,23.6,0,0,1,3.584,11.442.176.176,0,0,1-.162.188h-.013" transform="translate(-49.11 -60.21)" fill="#001192"/>
                <path id="Tracé_1022" data-name="Tracé 1022" d="M220.684,73.756l-.621-3.784-.78.054c-.011.032-.17,2.649-.238,3.779a.482.482,0,0,0,.481.511h.682a.482.482,0,0,0,.476-.56m-1.172-1.122.067-1.756h.285l.321,1.756Z" transform="translate(-195.499 -62.451)" fill="#001192"/>
                <path id="Tracé_1023" data-name="Tracé 1023" d="M244.825,73.279l-.752-3.76-.778.081c-.009.032-.078,2.653-.107,3.785a.482.482,0,0,0,.5.494l.682-.024a.482.482,0,0,0,.456-.576m-1.211-1.08.006-1.758.285-.01.381,1.744Z" transform="translate(-217.048 -62.046)" fill="#001192"/>
                <path id="Tracé_1024" data-name="Tracé 1024" d="M105.046,130.026c-3.134-5.059-10.459-5.814-11.448-5.893v-.008l-.056,0-.056,0v.008c-.989.08-8.314.835-11.448,5.893-3.91,6.311-4.72,24.217-4.887,30.915a2.508,2.508,0,0,0,2.508,2.57h27.767a2.508,2.508,0,0,0,2.508-2.57c-.167-6.7-.978-24.6-4.887-30.915" transform="translate(-68.857 -110.782)" fill="#fff"/>
                <path id="Tracé_1025" data-name="Tracé 1025" d="M90.678,121.2v.008c.989.08,8.314.835,11.448,5.893,3.91,6.311,4.72,24.217,4.887,30.915a2.508,2.508,0,0,1-2.508,2.57H76.738a2.508,2.508,0,0,1-2.508-2.57c.167-6.7.978-24.6,4.887-30.915,3.134-5.059,10.459-5.814,11.448-5.893V121.2l.056,0,.056,0m0-.352h-.02l-.036,0-.036,0h-.02a.352.352,0,0,0-.1.016,20.974,20.974,0,0,0-4.933,1.092,12.428,12.428,0,0,0-6.71,4.96c-3.916,6.321-4.759,23.849-4.94,31.091a2.86,2.86,0,0,0,2.86,2.931H104.5a2.86,2.86,0,0,0,2.86-2.931c-.181-7.242-1.024-24.77-4.94-31.091a12.429,12.429,0,0,0-6.71-4.96,20.975,20.975,0,0,0-4.933-1.092.352.352,0,0,0-.1-.016" transform="translate(-65.936 -107.863)" fill="#001192"/>
              </g>
            </g>
          </g>
        </g>
        <g id="Groupe_448" data-name="Groupe 448" transform="translate(1035.379 87.879)">
          <g id="Groupe_447" data-name="Groupe 447" transform="translate(100.58 14.729)">
            <g id="Groupe_446" data-name="Groupe 446" transform="translate(0 0)" clip-path="url(#clip-path-2)">
              <rect id="Rectangle_327" data-name="Rectangle 327" width="87.027" height="29.424" transform="translate(-29.625 10.636)" fill="#fff"/>
              <path id="Tracé_1044" data-name="Tracé 1044" d="M169.075,80.263l.132-.341a7.427,7.427,0,0,1,.791-1.6,5.8,5.8,0,0,1,1.46-1.507,2.9,2.9,0,0,1,1.509-.2c.527.046,2.146.31,2.8.458a3.93,3.93,0,0,0,1.568.023,1.826,1.826,0,0,0,1.233-2.352c-.195-.381-.161-.48.311-.932a2.916,2.916,0,0,0,.425-.459,1.71,1.71,0,0,0-.4-.759.481.481,0,0,1-.224-.108l-.131-.106.28-.143c.383-.2.667-.5.667-.715a1.511,1.511,0,0,0-.179-.505,1.038,1.038,0,0,1-.133-.895c.07-.132.192-.187.788-.359.5-.145.683-.292.754-.611a1,1,0,0,0-.133-.777c-.133-.267-1-1.6-1.257-1.925a6.324,6.324,0,0,1-.878-1.6,1.418,1.418,0,0,1-.033-.941,7.574,7.574,0,0,0-.453-3.773,13.619,13.619,0,0,0-.624-1.881c-.223-.445-.194-.549.265-.924a2.987,2.987,0,0,0,.453-.427.783.783,0,0,0-.278-.9c-.166-.089-.259-.028-.428.282-.128.235-.178.28-.315.28-.223,0-.262-.093-.12-.286.166-.225.153-.261-.108-.3-.195-.026-.3-.1-.721-.533a4.923,4.923,0,0,0-1.708-1.193c-.348-.16-.469-.236-.342-.214.109.019.494.049.856.068,1.05.053,1.3-.086,1.55-.842.166-.513.246-.751-.136-1.109l-1.4-1.316H206.3V80.263Z" transform="translate(-148.9 -40.203)" fill="#a5a5a5"/>
              <path id="Tracé_1045" data-name="Tracé 1045" d="M23.032,80.263a4.373,4.373,0,0,1-.439-.048A8.74,8.74,0,0,1,24,79.308c.378-.231.533-.354.481-.382a4.509,4.509,0,0,0-.733-.08,1.734,1.734,0,0,0-.849.05,9.548,9.548,0,0,1-.942.285c-1.022.268-1.366.452-1.694.907l-.123.176H0V50.839H39.968l-.774.505a7.545,7.545,0,0,0-1.1.653,6.53,6.53,0,0,0-1.631,2.27.756.756,0,0,1-.374.476,4.751,4.751,0,0,0-1.122,1.219,25.879,25.879,0,0,0-1.554,2.745c-.275.686-.25,1.209.156,3.26.179.9.372,1.821.43,2.039a5.733,5.733,0,0,1,.14.821,2.195,2.195,0,0,0,.306,1.019,1.255,1.255,0,0,1,.121.353.239.239,0,0,0,.113.169.27.27,0,0,1,.113.214c0,.1.129.284.412.595a4.767,4.767,0,0,1,1.116,1.588c0,.173-.254.218-.663.117a3.165,3.165,0,0,1-1.473-.96c-.257-.25-.467-.418-.467-.373a2.335,2.335,0,0,0,.391.516c.428.476.5.606.4.779-.081.151-.278.2-.544.122-.307-.085-.488.034-.437.287.031.156.023.174-.065.14a4.414,4.414,0,0,0-.9-.18c-.314-.034-.338-.048-.528-.313a.745.745,0,0,0-.407-.335,24.241,24.241,0,0,0-2.9-.5,10.446,10.446,0,0,0-2.835-.1,2.639,2.639,0,0,0-1.1.283c-.588.3-1.607,1.236-1.607,1.477,0,.113.224.073.481-.086a14.639,14.639,0,0,1,4.753-1.214c.648-.025.613.006-.165.146-.215.039-.724.169-1.132.29s-1.11.307-1.561.414-.961.244-1.132.306l-.311.112.481,0c2.451.027,5.244.8,6.381,1.777a1.387,1.387,0,0,0,1.388.394A6.249,6.249,0,0,0,35.2,70.824c.243-.2.443-.283.442-.178a6.667,6.667,0,0,1-.462,1.426c-.155.275-.164.315-.083.373.049.037.076.08.059.1s.021.049.086.069c.186.059.139.116-.158.192s-.517.2-.517.294c0,.029.04.053.088.053.146,0,.037.1-.153.143-.13.029-.156.052-.1.088s.059.05.008.05-.071.058-.071.129c0,.087-.054.151-.17.2-.283.125-.2.193.184.157.194-.018.315-.018.269,0s-.365.163-.707.32-.788.345-.99.416c-.229.08-.375.165-.388.224-.02.1.087.092.354-.01.049-.019.09-.013.089.014a14.14,14.14,0,0,1-1.31.756,13.637,13.637,0,0,0-1.5.892.634.634,0,0,1-.294.184.234.234,0,0,0-.172.144c-.11.241-.087.271.175.226.389-.067.568-.063.594.012.014.041-.023.071-.087.071a.263.263,0,0,0-.178.082.382.382,0,0,1-.218.1.388.388,0,0,0-.265.2.522.522,0,0,1-.227.209c-.062.016.027.019.2.006,2.545-.189,3.019-.284,4.046-.8A9.74,9.74,0,0,0,36.176,75.2a2.367,2.367,0,0,1,.382-.345c.088,0,.04.318-.09.6A4.313,4.313,0,0,1,34.8,77.017a8.079,8.079,0,0,1-1.172.679,14.728,14.728,0,0,1-2.094.435c-2.68.388-3.706.682-4.722,1.353a1.069,1.069,0,0,1-.4.19.562.562,0,0,0-.285.154c-.305.261-.084.217.549-.11.649-.335.953-.388.442-.077a3.226,3.226,0,0,1-1.574.62ZM19.7,76.981c.1-.043.439-.231.748-.419s.677-.394.817-.457l.877-.4a5.035,5.035,0,0,1,1.831-.531.7.7,0,0,0,.348.084c.239.017.281.032.183.067-.07.025-.128.067-.128.095,0,.1.53.072.753-.044a1.585,1.585,0,0,1,.439-.115c.191-.023.28-.059.28-.115s.049-.074.221-.045a7.782,7.782,0,0,0,2.127-.4,12.86,12.86,0,0,0,2.26-.754l.449-.206-.449-.288a15.638,15.638,0,0,0-4.608-1.806,5.538,5.538,0,0,1-.82-.269c-.038-.037-.019-.043.057-.016.241.086.424.1.424.038,0-.084-.182-.151-.54-.2-.327-.045-.539-.143-.311-.144.352,0-.253-.225-.931-.343-.5-.087-.53-.106-.321-.208.183-.088.379-.423.328-.558-.044-.114-.1-.1-.37.08a3.791,3.791,0,0,0-1.273,1.527c-.154.342-.1.373.691.407.648.028.659.03.492.12a1.572,1.572,0,0,1-.416.129c-.46.071-.716.289-.488.417.068.038.041.07-.125.149-.186.089-.2.108-.11.158a.842.842,0,0,0,.362.036.442.442,0,0,1,.385.091l.125.111-.251.159a1.162,1.162,0,0,0-.347.341,3.531,3.531,0,0,1-.421.528,1.511,1.511,0,0,0-.325.438,2.618,2.618,0,0,1-.58.556c-.858.687-1.231,1.064-1.231,1.246a.283.283,0,0,1-.134.239c-.268.176-.407.378-.261.378A1.062,1.062,0,0,0,19.7,76.981Zm6.619-.662a1.9,1.9,0,0,0,.545-.146l.16-.095-.273-.136-.273-.136-.272.11c-.15.061-.358.143-.461.182-.418.158-.472.371-.08.312C25.815,76.389,26.109,76.347,26.321,76.319Zm-9.58-2.575a20.1,20.1,0,0,1,3.28-2.885c.384-.266.654-.42.667-.38.037.11.2.078.469-.092.308-.2.461-.393.845-1.087a3.318,3.318,0,0,1,1.124-1.342c.269-.207.665-.517.88-.687.31-.247.384-.285.359-.188-.02.076-.006.123.035.123a2.24,2.24,0,0,0,.756-.323c.033-.1-.582-.2-1.037-.174a1.746,1.746,0,0,0-.907.3,12.773,12.773,0,0,0-3.161,2.549,11.5,11.5,0,0,1-2.211,1.882c-.131.063-.23.194-.389.517a18.189,18.189,0,0,1-1.386,2.261c-.5.692-.6.931-.217.488C15.982,74.55,16.383,74.119,16.741,73.744Zm12.618,6.195a12.434,12.434,0,0,1,2.744-.385,3.937,3.937,0,0,0,2.063-.421c.23-.108.32-.128.352-.077.056.089.445-.123,1.206-.657.311-.218.751-.5.978-.62.341-.185.446-.217.61-.186s.227.011.451-.186a2.6,2.6,0,0,1,1.681-.8c.158,0,.212.023.212.09s.031.079.085.058c.158-.061.086.009-.319.31-.47.348-.424.453.054.122.462-.32.463-.32.463-.191,0,.074-.174.259-.5.527a18.321,18.321,0,0,0-2.035,1.985l-.7.756H27.746Zm.014-11.526a.467.467,0,0,1,.2,0c.054.014.01.026-.1.026s-.153-.012-.1-.026" transform="translate(-29.625 -40.203)" fill="#6b6b6b"/>
              <path id="Tracé_1046" data-name="Tracé 1046" d="M185.6,94.2c-.247-.037-.12-.129.179-.129s.458-.115.458-.334c0-.1-.022-.12-.118-.089a.156.156,0,0,1-.2-.074.519.519,0,0,0-.354-.148c-.323-.043-.845-.355-.752-.448a.931.931,0,0,1,.369-.084c.3-.025.315-.036.374-.217a.288.288,0,0,1,.214-.227.794.794,0,0,0,.292-.166,6.175,6.175,0,0,1,.566-.407c.393-.256.636-.529.549-.616a3.711,3.711,0,0,0-1.341-.157,7.778,7.778,0,0,0-1.6.337c-.343.132-.243.017.229-.263a6.289,6.289,0,0,1,2.541-.73,4.528,4.528,0,0,1,1.248.295c.206.171-.019.768-.4,1.067l-.159.125.131.139.131.14-.134.108a.473.473,0,0,1-.224.108.632.632,0,0,0-.272.177c-.155.15-.174.2-.13.315a.3.3,0,0,1-.01.254.842.842,0,0,0-.024.418c.047.377-.021.512-.3.588A5.026,5.026,0,0,1,185.6,94.2Z" transform="translate(-159.458 -68.147)" fill="#7f7f7f"/>
              <path id="Tracé_1047" data-name="Tracé 1047" d="M169.9,14.974a16.883,16.883,0,0,0-7.775-2.162L161.975,0h39.318V14.974Z" transform="translate(-143.891 -4.338)" fill="#a5a5a5"/>
              <path id="Tracé_1048" data-name="Tracé 1048" d="M39.968,14.974a24.1,24.1,0,0,1,7.894-2.162L47.709,0H0V14.974Z" transform="translate(-29.625 -4.338)" fill="#6b6b6b"/>
            </g>
          </g>
        </g>
        <path id="Tracé_1035" data-name="Tracé 1035" d="M107.829,457.236H79.692a2.533,2.533,0,0,1-2.507-2.088c-.014.442-.026.855-.035,1.231a2.524,2.524,0,0,0,2.542,2.57h28.137a2.524,2.524,0,0,0,2.542-2.57c-.01-.376-.021-.789-.035-1.231a2.533,2.533,0,0,1-2.506,2.088" transform="translate(1058.81 -316.429)" fill="#b3c4c3" opacity="0.471"/>
        <g id="Groupe_431" data-name="Groupe 431" transform="matrix(0.995, -0.105, 0.105, 0.995, 1135.508, 103.048)" opacity="0.331">
          <g id="Groupe_405" data-name="Groupe 405">
            <g id="Groupe_404" data-name="Groupe 404" clip-path="url(#clip-path-3)">
              <path id="Tracé_1027" data-name="Tracé 1027" d="M2.278,6.223A8.3,8.3,0,0,0,.012,10.765a1.5,1.5,0,0,0,.653,1.577c.811.41,1.808-.207,2.375-.847,1.077-1.214,1.746-2.654,2.734-3.922a13.17,13.17,0,0,1,8.114-4.637c1.077-.184,2.452-.462,2.6-1.386A1.318,1.318,0,0,0,15.614.267c-1.994-.915-5.645.744-7.406,1.574a18.243,18.243,0,0,0-5.93,4.381" transform="translate(0 0)" fill="#fff"/>
            </g>
          </g>
        </g>
      </g>
    </g>
  </g>
</svg>
