<?xml version="1.0" encoding="UTF-8" standalone="no"?>
<svg
   width="80"
   height="80"
   viewBox="0 0 80 80"
   version="1.1"
   id="svg50"
   sodipodi:docname="disconnected.svg"
   inkscape:version="1.1.2 (1:1.1+202202050950+0a00cf5339)"
   xmlns:inkscape="http://www.inkscape.org/namespaces/inkscape"
   xmlns:sodipodi="http://sodipodi.sourceforge.net/DTD/sodipodi-0.dtd"
   xmlns="http://www.w3.org/2000/svg"
   xmlns:svg="http://www.w3.org/2000/svg">
  <sodipodi:namedview
     id="namedview52"
     pagecolor="#ffffff"
     bordercolor="#666666"
     borderopacity="1.0"
     inkscape:pageshadow="2"
     inkscape:pageopacity="0.0"
     inkscape:pagecheckerboard="0"
     showgrid="false"
     inkscape:zoom="10.6125"
     inkscape:cx="21.71967"
     inkscape:cy="9.7055359"
     inkscape:window-width="1920"
     inkscape:window-height="1015"
     inkscape:window-x="0"
     inkscape:window-y="0"
     inkscape:window-maximized="1"
     inkscape:current-layer="Groupe_453" />
  <defs
     id="defs8">
    <clipPath
       id="clip-path">
      <rect
         id="Rectangle_317"
         data-name="Rectangle 317"
         width="50.446"
         height="56.321"
         fill="none"
         stroke="#707070"
         stroke-width="0.5" />
    </clipPath>
    <clipPath
       id="clip-path-2">
      <path
         id="Tracé_1049"
         data-name="Tracé 1049"
         d="M117.191,14.733l-.057,0v.008c-1,.081-8.425.846-11.6,5.972-3.962,6.4-4.783,24.54-4.952,31.327a2.542,2.542,0,0,0,2.542,2.6H131.26a2.542,2.542,0,0,0,2.542-2.6c-.17-6.787-.991-24.931-4.952-31.327-3.176-5.126-10.6-5.891-11.6-5.972v-.008l-.057,0"
         transform="translate(-100.58 -14.729)"
         fill="none" />
    </clipPath>
    <clipPath
       id="clip-path-3">
      <rect
         id="Rectangle_315"
         data-name="Rectangle 315"
         width="16.501"
         height="12.475"
         fill="none" />
    </clipPath>
  </defs>
  <g
     id="Groupe_454"
     data-name="Groupe 454"
     transform="translate(-995 -11)">
    <g
       id="Groupe_453"
       data-name="Groupe 453">
      <g
         id="Ellipse_32"
         data-name="Ellipse 32"
         transform="translate(995 11)"
         fill="#fff"
         stroke="#001192"
         stroke-width="2">
        <circle
           cx="40"
           cy="40"
           r="40"
           stroke="none"
           id="circle10" />
        <circle
           cx="40"
           cy="40"
           fill="none"
           id="circle12"
           r="39"
           style="stroke:#e6e6e6;stroke-opacity:0.99610209" />
      </g>
      <g
         id="Groupe_451"
         data-name="Groupe 451"
         transform="translate(-118.223 -66.621)">
        <g
           id="Groupe_429"
           data-name="Groupe 429"
           transform="translate(1128 89.461)">
          <g
             id="Groupe_de_masques_409"
             data-name="Groupe de masques 409"
             clip-path="url(#clip-path)">
            <g
               id="Groupe_408"
               data-name="Groupe 408"
               transform="translate(0)">
              <g
                 id="Groupe_424"
                 data-name="Groupe 424">
                <path
                   id="Tracé_1004"
                   data-name="Tracé 1004"
                   d="M.926,44.6A27.318,27.318,0,0,0,5.773,54.907a14.4,14.4,0,0,1,1.789-2.685A30.3,30.3,0,0,0,11.4,45.46a1.632,1.632,0,0,0,.144-1.234,1.547,1.547,0,0,0-.433-.52C9.1,41.95,5.969,41.183,4.858,38.758c-1.061-2.315-.171-6.563.378-9.106C5.21,29.768.913,32.031.624,32.237a4.08,4.08,0,0,0-.56,2.013,37.512,37.512,0,0,0,.191,6.607A32.384,32.384,0,0,0,.926,44.6"
                   transform="translate(0 -26.465)"
                   fill="#d5d5d5" />
                <path
                   id="Tracé_1005"
                   data-name="Tracé 1005"
                   d="M10.333,31.683a8.592,8.592,0,0,0-4.519-3.616q2.08-1.493,4.23-2.885a1.2,1.2,0,0,1,.386-.188,1.112,1.112,0,0,1,.547.061c2.705.812,4.685,3.077,6.468,5.268a6.481,6.481,0,0,1,1.091,1.671,1.086,1.086,0,0,1,.1.48,1.224,1.224,0,0,1-.227.538,15.125,15.125,0,0,1-4.727,4.4c-1.485.949-1.413-.934-1.681-1.9a13.833,13.833,0,0,0-1.663-3.832"
                   transform="translate(-5.189 -22.294)"
                   fill="#f0f0f0" />
                <path
                   id="Tracé_1010"
                   data-name="Tracé 1010"
                   d="M371.94,49.255a27.316,27.316,0,0,1-4.847,10.309,14.4,14.4,0,0,0-1.788-2.685,30.3,30.3,0,0,1-3.835-6.762,1.632,1.632,0,0,1-.144-1.234,1.549,1.549,0,0,1,.433-.52c2.009-1.756,5.139-2.523,6.25-4.948,1.061-2.315.171-6.563-.378-9.106.025.116,4.323,2.379,4.611,2.585a4.081,4.081,0,0,1,.56,2.013,37.5,37.5,0,0,1-.191,6.607,32.387,32.387,0,0,1-.671,3.742"
                   transform="translate(-322.421 -30.621)"
                   fill="#d5d5d5" />
                <path
                   id="Tracé_1011"
                   data-name="Tracé 1011"
                   d="M352.535,36.341a8.593,8.593,0,0,1,4.519-3.616q-2.08-1.493-4.23-2.885a1.192,1.192,0,0,0-.386-.188,1.114,1.114,0,0,0-.547.061c-2.705.813-4.685,3.077-6.468,5.268a6.485,6.485,0,0,0-1.091,1.671,1.088,1.088,0,0,0-.1.48,1.223,1.223,0,0,0,.227.538,15.125,15.125,0,0,0,4.727,4.4c1.485.949,1.413-.934,1.681-1.9a13.835,13.835,0,0,1,1.663-3.832"
                   transform="translate(-307.233 -26.451)"
                   fill="#f0f0f0" />
                <path
                   id="Tracé_1016"
                   data-name="Tracé 1016"
                   d="M177.338,2.614a2.061,2.061,0,0,0-.8-1.5,2.87,2.87,0,0,0-.905-.358,22.036,22.036,0,0,0-11.431,0,2.87,2.87,0,0,0-.905.358,2.062,2.062,0,0,0-.8,1.5A18.345,18.345,0,0,0,163,6.782c.183,1.359,1.57.86,2.5.4a.3.3,0,0,0,.163-.139.309.309,0,0,0-.054-.255c-.317-.569-.706-1.1-.995-1.682a2.984,2.984,0,0,1-.343-1.888.941.941,0,0,1,.294-.558A1.131,1.131,0,0,1,165,2.479a39.061,39.061,0,0,1,9.83,0,1.132,1.132,0,0,1,.435.186.941.941,0,0,1,.294.558,2.985,2.985,0,0,1-.343,1.888c-.288.584-.678,1.112-.995,1.682a.31.31,0,0,0-.054.255.3.3,0,0,0,.163.139c.925.455,2.313.954,2.5-.4a18.345,18.345,0,0,0,.514-4.168"
                   transform="translate(-144.997)"
                   fill="#001192"
                   style="stroke:#c8c8c8;stroke-opacity:0.99610209;fill:#c8c8c8;fill-opacity:1" />
                <path
                   id="Tracé_1017"
                   data-name="Tracé 1017"
                   d="M77.095,60.251C75.5,41.222,56.562,41.222,56.562,41.222s-18.941,0-20.533,19.029c-.516,6.164-.575,20.657-.57,28.044a4.5,4.5,0,0,0,4.5,4.5h33.2a4.5,4.5,0,0,0,4.5-4.5c.005-7.387-.054-21.88-.57-28.044"
                   transform="translate(-31.647 -36.791)"
                   fill="#f0f0f0" />
                <path
                   id="Tracé_1018"
                   data-name="Tracé 1018"
                   d="M77.095,60.251C75.5,41.222,56.562,41.222,56.562,41.222s-18.941,0-20.533,19.029c-.516,6.164-.575,20.657-.57,28.044a4.494,4.494,0,0,0,1.764,3.57c0-7.851.068-21.93.523-28.052C39.2,44.167,56.562,44.167,56.562,44.167s17.358,0,18.817,19.645c.455,6.122.523,20.2.523,28.052a4.494,4.494,0,0,0,1.764-3.57c.005-7.387-.054-21.88-.57-28.044"
                   transform="translate(-31.647 -36.791)"
                   fill="#f0f0f0" />
                <path
                   id="Tracé_1019"
                   data-name="Tracé 1019"
                   d="M73.162,463.907h-33.2a4.5,4.5,0,0,1-4.5-4.469c0,.874,0,1.692,0,2.437a4.5,4.5,0,0,0,4.5,4.5h33.2a4.5,4.5,0,0,0,4.5-4.5c0-.745,0-1.563,0-2.437a4.5,4.5,0,0,1-4.5,4.469"
                   transform="translate(-31.647 -410.053)"
                   fill="#001192"
                   style="stroke:#e6e6e6;stroke-opacity:0.99610209;fill:#c8c8c8;fill-opacity:1" />
                <path
                   id="Tracé_1020"
                   data-name="Tracé 1020"
                   d="M91.446,86.174a.352.352,0,0,1-.35-.325c-.595-8.008-3.874-13.692-9.747-16.893a20.4,20.4,0,0,0-8.719-2.427,20.4,20.4,0,0,0-8.719,2.427c-5.873,3.2-9.152,8.885-9.747,16.893a.352.352,0,1,1-.7-.052,23.779,23.779,0,0,1,3.613-11.526A18.1,18.1,0,0,1,63.6,68.324a20.718,20.718,0,0,1,9.029-2.5,20.718,20.718,0,0,1,9.029,2.5,18.1,18.1,0,0,1,6.525,5.947A23.779,23.779,0,0,1,91.8,85.8a.352.352,0,0,1-.325.377h-.026"
                   transform="translate(-47.715 -58.75)"
                   fill="#717d89" />
                <path
                   id="Tracé_1021"
                   data-name="Tracé 1021"
                   d="M92.833,87.458a.176.176,0,0,1-.175-.163c-.748-10.069-5.777-14.829-9.864-17.048a20.542,20.542,0,0,0-8.777-2.434,20.571,20.571,0,0,0-8.79,2.441c-4.082,2.221-9.1,6.98-9.851,17.041a.176.176,0,0,1-.351-.026,23.606,23.606,0,0,1,3.584-11.442,17.929,17.929,0,0,1,6.463-5.89,20.939,20.939,0,0,1,8.945-2.477,20.939,20.939,0,0,1,8.945,2.477,17.927,17.927,0,0,1,6.462,5.89,23.6,23.6,0,0,1,3.584,11.442.176.176,0,0,1-.162.188h-.013"
                   transform="translate(-49.11 -60.21)"
                   fill="#001192"
                   style="stroke:#c8c8c8;stroke-opacity:1" />
                <path
                   id="Tracé_1022"
                   data-name="Tracé 1022"
                   d="M220.684,73.756l-.621-3.784-.78.054c-.011.032-.17,2.649-.238,3.779a.482.482,0,0,0,.481.511h.682a.482.482,0,0,0,.476-.56m-1.172-1.122.067-1.756h.285l.321,1.756Z"
                   transform="translate(-195.499 -62.451)"
                   fill="#001192"
                   style="fill:#c8c8c8;fill-opacity:1" />
                <path
                   id="Tracé_1023"
                   data-name="Tracé 1023"
                   d="M244.825,73.279l-.752-3.76-.778.081c-.009.032-.078,2.653-.107,3.785a.482.482,0,0,0,.5.494l.682-.024a.482.482,0,0,0,.456-.576m-1.211-1.08.006-1.758.285-.01.381,1.744Z"
                   transform="translate(-217.048 -62.046)"
                   fill="#001192"
                   style="fill:#c8c8c8;fill-opacity:1" />
                <path
                   id="Tracé_1024"
                   data-name="Tracé 1024"
                   d="M105.046,130.026c-3.134-5.059-10.459-5.814-11.448-5.893v-.008l-.056,0-.056,0v.008c-.989.08-8.314.835-11.448,5.893-3.91,6.311-4.72,24.217-4.887,30.915a2.508,2.508,0,0,0,2.508,2.57h27.767a2.508,2.508,0,0,0,2.508-2.57c-.167-6.7-.978-24.6-4.887-30.915"
                   transform="translate(-68.857 -110.782)"
                   fill="#fff" />
                <path
                   id="Tracé_1025"
                   data-name="Tracé 1025"
                   d="M90.678,121.2v.008c.989.08,8.314.835,11.448,5.893,3.91,6.311,4.72,24.217,4.887,30.915a2.508,2.508,0,0,1-2.508,2.57H76.738a2.508,2.508,0,0,1-2.508-2.57c.167-6.7.978-24.6,4.887-30.915,3.134-5.059,10.459-5.814,11.448-5.893V121.2l.056,0,.056,0m0-.352h-.02l-.036,0-.036,0h-.02a.352.352,0,0,0-.1.016,20.974,20.974,0,0,0-4.933,1.092,12.428,12.428,0,0,0-6.71,4.96c-3.916,6.321-4.759,23.849-4.94,31.091a2.86,2.86,0,0,0,2.86,2.931H104.5a2.86,2.86,0,0,0,2.86-2.931c-.181-7.242-1.024-24.77-4.94-31.091a12.429,12.429,0,0,0-6.71-4.96,20.975,20.975,0,0,0-4.933-1.092.352.352,0,0,0-.1-.016"
                   transform="translate(-65.936 -107.863)"
                   fill="#001192"
                   style="stroke:#c8c8c8;stroke-opacity:0.99610209" />
              </g>
            </g>
          </g>
        </g>
        <path
           id="Tracé_1035"
           data-name="Tracé 1035"
           d="M107.829,457.236H79.692a2.533,2.533,0,0,1-2.507-2.088c-.014.442-.026.855-.035,1.231a2.524,2.524,0,0,0,2.542,2.57h28.137a2.524,2.524,0,0,0,2.542-2.57c-.01-.376-.021-.789-.035-1.231a2.533,2.533,0,0,1-2.506,2.088"
           transform="translate(1058.81 -316.429)"
           fill="#b3c4c3"
           opacity="0.471" />
        <g
           id="Groupe_431"
           data-name="Groupe 431"
           transform="matrix(0.995, -0.105, 0.105, 0.995, 1135.508, 103.048)"
           opacity="0.331">
          <g
             id="Groupe_405"
             data-name="Groupe 405">
            <g
               id="Groupe_404"
               data-name="Groupe 404"
               clip-path="url(#clip-path-3)">
              <path
                 id="Tracé_1027"
                 data-name="Tracé 1027"
                 d="M2.278,6.223A8.3,8.3,0,0,0,.012,10.765a1.5,1.5,0,0,0,.653,1.577c.811.41,1.808-.207,2.375-.847,1.077-1.214,1.746-2.654,2.734-3.922a13.17,13.17,0,0,1,8.114-4.637c1.077-.184,2.452-.462,2.6-1.386A1.318,1.318,0,0,0,15.614.267c-1.994-.915-5.645.744-7.406,1.574a18.243,18.243,0,0,0-5.93,4.381"
                 transform="translate(0 0)"
                 fill="#fff" />
            </g>
          </g>
        </g>
      </g>
    </g>
  </g>
</svg>
