<?xml version="1.0" encoding="UTF-8" standalone="no"?>
<!-- Generator: Adobe Illustrator 26.0.3, SVG Export Plug-In . SVG Version: 6.00 Build 0)  -->

<svg
   version="1.1"
   x="0px"
   y="0px"
   viewBox="0 0 100 100"
   style="enable-background:new 0 0 100 100;"
   xml:space="preserve"
   id="svg208"
   sodipodi:docname="disconnected.svg"
   inkscape:version="1.1.2 (1:1.1+202202050950+0a00cf5339)"
   xmlns:inkscape="http://www.inkscape.org/namespaces/inkscape"
   xmlns:sodipodi="http://sodipodi.sourceforge.net/DTD/sodipodi-0.dtd"
   xmlns:xlink="http://www.w3.org/1999/xlink"
   xmlns="http://www.w3.org/2000/svg"
   xmlns:svg="http://www.w3.org/2000/svg"><defs
   id="defs212" /><sodipodi:namedview
   id="namedview210"
   pagecolor="#ffffff"
   bordercolor="#666666"
   borderopacity="1.0"
   inkscape:pageshadow="2"
   inkscape:pageopacity="0.0"
   inkscape:pagecheckerboard="0"
   showgrid="false"
   inkscape:zoom="4.245"
   inkscape:cx="-3.4157833"
   inkscape:cy="47.585395"
   inkscape:window-width="1920"
   inkscape:window-height="1015"
   inkscape:window-x="0"
   inkscape:window-y="0"
   inkscape:window-maximized="1"
   inkscape:current-layer="Groupe_116_00000139286290725659005090000013492273111780707491_" />
<style
   type="text/css"
   id="style2">
	.st0{display:none;}
	.st1{display:inline;}
	.st2{fill:#283376;}
	.st3{fill:none;stroke:#293173;}
	.st4{clip-path:url(#SVGID_00000049938723399024207890000011899051517618145173_);}
	.st5{fill:#283376;stroke:#FFFFFF;stroke-width:0.75;}
	.st6{fill:#283376;stroke:#FFFFFF;stroke-width:0.75;stroke-miterlimit:10;}
	.st7{clip-path:url(#SVGID_00000075848356348983680430000008544614781107002530_);}
	.st8{fill:#FFFFFF;}
	.st9{fill:none;stroke:#CECECE;}
	.st10{clip-path:url(#SVGID_00000121971995550352373470000012812777163868635019_);}
	.st11{fill:#FFFFFF;stroke:#CECECE;stroke-width:0.5;}
	.st12{fill:#FFFFFF;stroke:#CECECE;stroke-width:0.5;stroke-miterlimit:10;}
	.st13{clip-path:url(#SVGID_00000035508740801839655650000014164094689280199853_);}
	.st14{fill:#CECECE;}
	.st15{fill:#ECECFE;}
	.st16{fill:none;stroke:#000091;}
	.st17{clip-path:url(#SVGID_00000162322865420096635280000013996547395964677561_);}
	.st18{fill:#ECECFE;stroke:#000091;stroke-width:0.5;}
	.st19{fill:#ECECFE;stroke:#000091;stroke-width:0.5;stroke-miterlimit:10;}
	.st20{clip-path:url(#SVGID_00000026134837326967439130000007105367560120089731_);}
	.st21{fill:#000091;}
	.st22{fill:#000091;stroke:#000091;}
</style>
<g
   id="Calque_1"
   class="st0">
	<g
   id="Groupe_136"
   transform="translate(-1172 -604)"
   class="st1">
		<g
   id="Groupe_117">
			<g
   id="Composant_4_1"
   transform="translate(1202 634)">
				<g
   transform="matrix(1, 0, 0, 1, -30, -30)"
   id="g11">
					<g
   id="Ellipse_1-2"
   transform="translate(30 30)">
						<g
   id="g8">
							<circle
   class="st2"
   cx="19.81"
   cy="20"
   r="31"
   id="circle4" />
							<circle
   class="st3"
   cx="19.81"
   cy="20"
   r="30.5"
   id="circle6" />
						</g>
					</g>
				</g>
				<g
   id="Groupe_115"
   transform="translate(17.422 11.5)">
					<g
   id="g44">
						<defs
   id="defs14">
							<rect
   id="SVGID_1_"
   x="-11.19"
   y="-11"
   width="27.16"
   height="39" />
						</defs>
						<clipPath
   id="SVGID_00000049217103836435570020000006497142629647816889_">
							<use
   xlink:href="#SVGID_1_"
   style="overflow:visible;"
   id="use16" />
						</clipPath>
						<g
   id="Groupe_114"
   style="clip-path:url(#SVGID_00000049217103836435570020000006497142629647816889_);"
   clip-path="url(#SVGID_00000049217103836435570020000006497142629647816889_)">
							<path
   id="Tracé_146"
   class="st5"
   d="M-9.57-9.25c-1.2,0.74-0.57,6.7,0.53,10.25l2.53-0.76c0,0-1.86-7.91-1.13-9.01         c0.35-0.57,0.79-1.08,1.29-1.52L-9.57-9.25z" />
							<path
   id="Tracé_147"
   class="st6"
   d="M-9.57-9.25c-1.2,0.74-0.57,6.7,0.53,10.25l2.53-0.76c0,0-1.86-7.91-1.13-9.01         c0.35-0.57,0.79-1.08,1.29-1.52L-9.57-9.25z" />
							<path
   id="Tracé_148"
   class="st5"
   d="M-3.68-5.68c-0.21-1.4-0.59-2.77-1.13-4.08C-5.63-11.42-8-10.42-9.57-9.25         c0,0,1.65-0.13,2.1,1.13c0.41,1.24,0.71,2.51,0.88,3.8L-3.68-5.68z" />
							<path
   id="Tracé_149"
   class="st6"
   d="M-3.68-5.68c-0.21-1.4-0.59-2.77-1.13-4.08C-5.63-11.42-8-10.42-9.57-9.25         c0,0,1.65-0.13,2.1,1.13c0.41,1.24,0.71,2.51,0.88,3.8L-3.68-5.68z" />
							<path
   id="Tracé_150"
   class="st5"
   d="M14.46-9.25c1.2,0.74,0.57,6.7-0.53,10.25L11.4,0.23c0,0,1.86-7.91,1.13-9.01         c-0.35-0.57-0.79-1.08-1.29-1.52L14.46-9.25z" />
							<path
   id="Tracé_151"
   class="st6"
   d="M14.46-9.25c1.2,0.74,0.57,6.7-0.53,10.25L11.4,0.23c0,0,1.86-7.91,1.13-9.01         c-0.35-0.57-0.79-1.08-1.29-1.52L14.46-9.25z" />
							<path
   id="Tracé_152"
   class="st5"
   d="M8.57-5.68c0.21-1.4,0.59-2.77,1.13-4.09c0.82-1.65,3.19-0.65,4.76,0.52         c0,0-1.65-0.13-2.1,1.13c-0.41,1.24-0.71,2.51-0.88,3.8L8.57-5.68z" />
							<path
   id="Tracé_153"
   class="st6"
   d="M8.57-5.68c0.21-1.4,0.59-2.77,1.13-4.09c0.82-1.65,3.19-0.65,4.76,0.52         c0,0-1.65-0.13-2.1,1.13c-0.41,1.24-0.71,2.51-0.88,3.8L8.57-5.68z" />
							<path
   id="Tracé_154"
   class="st5"
   d="M15.93,18.5c0,0.13,0,0.26,0,0.39c-0.02,3.71-0.32,6.46-0.79,6.96         c-1.55,1.65-6.76,2.12-12.75,2.12s-11.2-0.47-12.75-2.12c-0.47-0.5-0.77-3.25-0.79-6.96c0-0.13,0-0.26,0-0.39         c0-1.77,0.06-3.75,0.18-5.8c0.03-0.41,0.06-0.82,0.09-1.23c0.57-7.49,2.1-15.55,5.07-17.83c1.61-1.23,3.88-2.12,8.2-2.12         s6.6,0.88,8.2,2.12c2.99,2.3,4.52,10.47,5.08,18.02c0.03,0.42,0.06,0.83,0.08,1.24C15.87,14.88,15.93,16.78,15.93,18.5" />
							<path
   id="Tracé_155"
   class="st6"
   d="M15.93,18.5c0,0.13,0,0.26,0,0.39c-0.02,3.71-0.32,6.46-0.79,6.96         c-1.55,1.65-6.76,2.12-12.75,2.12s-11.2-0.47-12.75-2.12c-0.47-0.5-0.77-3.25-0.79-6.96c0-0.13,0-0.26,0-0.39         c0-1.77,0.06-3.75,0.18-5.8c0.03-0.41,0.06-0.82,0.09-1.23c0.57-7.49,2.1-15.55,5.07-17.83c1.61-1.23,3.88-2.12,8.2-2.12         s6.6,0.88,8.2,2.12c2.99,2.3,4.52,10.47,5.08,18.02c0.03,0.42,0.06,0.83,0.08,1.24C15.88,14.88,15.94,16.79,15.93,18.5z" />
							<path
   id="Tracé_156"
   class="st5"
   d="M15.69,11.9c-0.21-0.12-0.43-0.25-0.64-0.36c0.39,3.82,0.38,10.75-0.62,13.48         c-1.52,4.14-19.88,2.96-23.04,1.08c-2.89-1.72-1.21-14.83-1.21-14.83c-0.04,0.04-1.01,0.92-1.13,1         c-0.01,0.15-0.02,0.29-0.03,0.44c-0.13,2.05-0.19,4.02-0.18,5.8c0,0.13,0,0.26,0,0.39c0.02,3.71,0.32,6.46,0.79,6.96         c1.55,1.65,6.76,2.12,12.75,2.12s11.2-0.47,12.75-2.12c0.47-0.5,0.77-3.24,0.79-6.96c0-0.13,0-0.26,0-0.39         c0-1.72-0.05-3.62-0.17-5.6C15.74,12.57,15.71,12.23,15.69,11.9" />
							<path
   id="Tracé_157"
   class="st6"
   d="M15.69,11.9c-0.21-0.12-0.43-0.25-0.64-0.36c0.39,3.82,0.38,10.75-0.62,13.48         c-1.52,4.14-19.88,2.96-23.04,1.08c-2.89-1.72-1.21-14.83-1.21-14.83c-0.04,0.04-1.01,0.92-1.13,1         c-0.01,0.15-0.02,0.29-0.03,0.44c-0.13,2.05-0.19,4.02-0.18,5.8c0,0.13,0,0.26,0,0.39c0.02,3.71,0.32,6.46,0.79,6.96         c1.55,1.65,6.76,2.12,12.75,2.12s11.2-0.47,12.75-2.12c0.47-0.5,0.77-3.24,0.79-6.96c0-0.13,0-0.26,0-0.39         c0-1.72-0.05-3.62-0.17-5.6C15.74,12.57,15.72,12.24,15.69,11.9z" />
							<path
   id="Tracé_158"
   class="st5"
   d="M14.25,11.1C14.01,8.39,13.59,5.7,13,3.05c-0.83-3.6-1.91-6.03-3.14-7.06         C8.71-4.97,6.81-6.08,2.39-6.08s-6.32,1.11-7.47,2.07C-7.1-2.32-8.66,3.01-9.46,11l-0.69-0.07c0.28-3.18,0.81-6.34,1.6-9.43         c0.82-3.02,1.84-5.06,3.03-6.05c1.85-1.54,4.3-2.23,7.92-2.23s6.06,0.69,7.92,2.23c1.36,1.13,2.5,3.64,3.37,7.44         c0.59,2.69,1.02,5.41,1.27,8.14L14.25,11.1z" />
							<path
   id="Tracé_159"
   class="st6"
   d="M14.25,11.1C14.01,8.39,13.59,5.7,13,3.05c-0.83-3.6-1.91-6.03-3.14-7.06         C8.71-4.97,6.81-6.08,2.39-6.08s-6.32,1.11-7.47,2.07C-7.1-2.32-8.66,3.01-9.46,11l-0.69-0.07c0.28-3.18,0.81-6.34,1.6-9.43         c0.82-3.02,1.84-5.06,3.03-6.05c1.85-1.54,4.3-2.23,7.92-2.23s6.06,0.69,7.92,2.23c1.36,1.13,2.5,3.64,3.37,7.44         c0.59,2.69,1.02,5.41,1.27,8.14L14.25,11.1z" />
							<path
   id="Tracé_160"
   class="st5"
   d="M15.76,12.91c-0.99-1.1-2.17-2.02-3.48-2.71l-0.12-0.96c1.35,0.52,2.55,1.35,3.51,2.43         C15.71,12.08,15.74,12.49,15.76,12.91" />
							<path
   id="Tracé_161"
   class="st6"
   d="M15.76,12.91c-0.99-1.1-2.17-2.02-3.48-2.71l-0.12-0.96c1.35,0.52,2.55,1.35,3.51,2.43         C15.7,12.08,15.73,12.49,15.76,12.91z" />
							<path
   id="Tracé_162"
   class="st5"
   d="M-7.56,9.23l-0.12,0.96c-1.23,0.66-2.34,1.5-3.29,2.52c0.03-0.41,0.06-0.82,0.09-1.23         C-9.96,10.48-8.82,9.71-7.56,9.23" />
							<path
   id="Tracé_163"
   class="st6"
   d="M-7.56,9.23l-0.12,0.96c-1.23,0.66-2.34,1.5-3.29,2.52c0.03-0.41,0.06-0.82,0.09-1.23         C-9.96,10.48-8.82,9.71-7.56,9.23z" />
							<path
   id="Tracé_164"
   class="st5"
   d="M13.35,19.67c0,0.12,0,0.23,0,0.34c-0.02,3.25-0.26,5.66-0.64,6.1         c-0.88,0.76-1.97,1.23-3.13,1.35c-2.37,0.38-4.78,0.55-7.18,0.5c-4.84,0-9.06-0.41-10.31-1.86c-0.38-0.44-0.62-2.85-0.64-6.1         c0-0.11,0-0.23,0-0.34c-0.01-7.5,1.12-19.14,4.32-21.79c1.3-1.08,3.14-1.86,6.64-1.86s5.34,0.77,6.64,1.86         c1.22,1.01,2.14,3.34,2.81,6.24C12.88,9.24,13.38,14.45,13.35,19.67" />
							<path
   id="Tracé_165"
   class="st6"
   d="M13.35,19.67c0,0.12,0,0.23,0,0.34c-0.02,3.25-0.26,5.66-0.64,6.1         c-0.88,0.76-1.97,1.23-3.13,1.35c-2.37,0.38-4.78,0.55-7.18,0.5c-4.84,0-9.06-0.41-10.31-1.86c-0.38-0.44-0.62-2.85-0.64-6.1         c0-0.11,0-0.23,0-0.34c-0.01-7.5,1.12-19.14,4.32-21.79c1.3-1.08,3.14-1.86,6.64-1.86s5.34,0.77,6.64,1.86         c1.22,1.01,2.14,3.34,2.81,6.24C12.88,9.24,13.38,14.45,13.35,19.67z" />
							<path
   id="Tracé_166"
   class="st5"
   d="M11.84,4.12c1.04,5.12,1.54,10.33,1.51,15.55c0,0.12,0,0.23,0,0.34         c-0.02,3.25-0.26,5.66-0.64,6.1c-0.88,0.76-1.97,1.23-3.13,1.35" />
							<path
   id="Tracé_167"
   class="st6"
   d="M11.84,4.12c1.04,5.12,1.54,10.33,1.51,15.55c0,0.12,0,0.23,0,0.34         c-0.02,3.25-0.26,5.66-0.64,6.1c-0.88,0.76-1.97,1.23-3.13,1.35" />
							<path
   id="Tracé_168"
   class="st5"
   d="M7.54-6.49c-0.89,0-1.44-0.71-2.03-1.46C4.79-8.88,4.03-9.86,2.48-9.86         c-1.64,0-2.58,1.1-3.41,2.07c-0.6,0.7-1.11,1.3-1.83,1.3c-0.3-0.03-0.53-0.29-0.5-0.6c0.02-0.27,0.24-0.48,0.5-0.5         c0.21,0,0.64-0.51,0.99-0.92c0.89-1.04,2.1-2.45,4.25-2.45c1.61,0.07,3.08,0.95,3.91,2.34c0.43,0.55,0.8,1.03,1.15,1.03         c0.3,0.03,0.53,0.29,0.5,0.6C8.02-6.72,7.81-6.51,7.54-6.49" />
							<path
   id="Tracé_169"
   class="st6"
   d="M7.54-6.49c-0.89,0-1.44-0.71-2.03-1.46C4.79-8.88,4.03-9.86,2.48-9.86         c-1.64,0-2.58,1.1-3.41,2.07c-0.6,0.7-1.11,1.3-1.83,1.3c-0.3-0.03-0.53-0.29-0.5-0.6c0.02-0.27,0.24-0.48,0.5-0.5         c0.21,0,0.64-0.51,0.99-0.92c0.89-1.04,2.1-2.45,4.25-2.45c1.61,0.07,3.08,0.95,3.91,2.34c0.43,0.55,0.8,1.03,1.15,1.03         c0.3,0.03,0.53,0.29,0.5,0.6C8.02-6.72,7.81-6.51,7.54-6.49L7.54-6.49z" />
						</g>
					</g>
				</g>
			</g>
			<g
   id="Groupe_116"
   transform="translate(1211.42 638.426)">
				<g
   id="Groupe_38"
   transform="translate(14.955 25.574)">
					<g
   id="g58">
						<defs
   id="defs49">
							<rect
   id="SVGID_00000098205539632353714300000011862582971000709558_"
   x="-11.19"
   y="-11"
   width="13.25"
   height="10.54" />
						</defs>
						<clipPath
   id="SVGID_00000098214844854348455730000013918051543007681453_">
							<use
   xlink:href="#SVGID_00000098205539632353714300000011862582971000709558_"
   style="overflow:visible;"
   id="use51" />
						</clipPath>
						
							<g
   id="Groupe_37"
   transform="translate(0 0)"
   style="clip-path:url(#SVGID_00000098214844854348455730000013918051543007681453_);"
   clip-path="url(#SVGID_00000098214844854348455730000013918051543007681453_)">
							<path
   id="Tracé_94"
   class="st8"
   d="M-0.22-4.54c1.11-0.6,1.78-1.79,1.7-3.05c0-2.63-1.94-3.41-4.21-3.41h-8.45l2.79,2.2         h5.47c1.1,0,1.69,0.29,1.69,1.2s-0.58,1.4-1.69,1.4h-4.11l0,0l4.26,0.16l-4.44,0.16l4.25,0.16L-7.4-5.56l4.24,0.16         l-4.42,0.16l4.24,0.16l-4.41,0.16l4.23,0.16l-4.4,0.16l4.22,0.16L-8.1-4.3l4.21,0.16L-8.28-4h5.41l1.82,3.53h3.11L-0.22-4.54         z" />
							<path
   id="Tracé_95"
   class="st8"
   d="M-0.06-8.79c0.56,0,1.1,0.23,1.5,0.62C1.18-10.33-0.64-11-2.74-11h-8.45l2.79,2.2H-0.06         L-0.06-8.79z" />
							<path
   id="Tracé_96"
   class="st8"
   d="M-0.22-4.54L-0.22-4.54C-1.02-4.17-1.9-3.98-2.78-4L-3.1-3.99h0.24l1.82,3.53h3.11         L-0.22-4.54z" />
						</g>
					</g>
				</g>
			</g>
		</g>
	</g>
</g>
<g
   id="Calque_2"
   transform="matrix(1.6106341,0,0,1.6106341,-29.972084,-30.534873)">
	<g
   id="Groupe_118"
   transform="translate(-1172,-604)">
		<g
   id="Composant_4_33"
   transform="translate(1202,634)">
			<g
   transform="translate(-30,-30)"
   id="g72">
				<g
   id="Ellipse_1-3"
   transform="translate(30,30)">
					<g
   id="g69">
						<circle
   class="st8"
   cx="19.790001"
   cy="20.1"
   r="31"
   id="circle65" />
						<circle
   class="st9"
   cx="19.790001"
   cy="20.1"
   r="30.5"
   id="circle67" />
					</g>
				</g>
			</g>
			<g
   id="Groupe_115_00000150816509747070425500000012548562954071229343_"
   transform="translate(17.422,11.5)">
				<g
   id="g105">
					<defs
   id="defs75">
						<rect
   id="SVGID_00000111899488776861347500000017557294797458712251_"
   x="-11.21"
   y="-10.9"
   width="27.16"
   height="39" />
					</defs>
					<clipPath
   id="SVGID_00000006665643394440602650000014423507632182542778_">
						<use
   xlink:href="#SVGID_00000111899488776861347500000017557294797458712251_"
   style="overflow:visible"
   id="use77"
   x="0"
   y="0"
   width="100%"
   height="100%" />
					</clipPath>
					
						<g
   id="Groupe_114_00000144308591498119330500000002969195572171470726_"
   clip-path="url(#SVGID_00000006665643394440602650000014423507632182542778_)">
						<path
   id="Tracé_146_00000091699159162005896580000016504284330004176295_"
   class="st11"
   d="m -9.59,-9.16 c -1.2,0.74 -0.57,6.7 0.53,10.25 l 2.53,-0.76 c 0,0 -1.86,-7.91 -1.13,-9.01 0.35,-0.57 0.79,-1.08 1.29,-1.52 z" />
						<path
   id="Tracé_147_00000119826452993041688250000018013541907205191297_"
   class="st12"
   d="m -9.59,-9.16 c -1.2,0.74 -0.57,6.7 0.53,10.25 l 2.53,-0.76 c 0,0 -1.86,-7.91 -1.13,-9.01 0.35,-0.57 0.79,-1.08 1.29,-1.52 z" />
						<path
   id="Tracé_148_00000173144101698866105650000011199294258605285566_"
   class="st11"
   d="m -3.71,-5.59 c -0.21,-1.4 -0.59,-2.77 -1.13,-4.08 -0.82,-1.65 -3.19,-0.66 -4.76,0.52 0,0 1.65,-0.13 2.1,1.13 0.41,1.24 0.71,2.51 0.88,3.8 z" />
						<path
   id="Tracé_149_00000158002172672167419740000012589955925868752808_"
   class="st12"
   d="m -3.71,-5.59 c -0.21,-1.4 -0.59,-2.77 -1.13,-4.08 -0.82,-1.65 -3.19,-0.66 -4.76,0.52 0,0 1.65,-0.13 2.1,1.13 0.41,1.24 0.71,2.51 0.88,3.8 z" />
						<path
   id="Tracé_150_00000089575970445923761990000016058476838093169342_"
   class="st11"
   d="m 14.44,-9.16 c 1.2,0.74 0.57,6.7 -0.53,10.25 L 11.38,0.33 c 0,0 1.86,-7.91 1.13,-9.01 -0.35,-0.57 -0.79,-1.08 -1.29,-1.52 z" />
						<path
   id="Tracé_151_00000073002561187702130060000004149732431732570539_"
   class="st12"
   d="m 14.44,-9.16 c 1.2,0.74 0.57,6.7 -0.53,10.25 L 11.38,0.33 c 0,0 1.86,-7.91 1.13,-9.01 -0.35,-0.57 -0.79,-1.08 -1.29,-1.52 z" />
						<path
   id="Tracé_152_00000145772503157958614100000010800504639725476543_"
   class="st11"
   d="m 8.55,-5.59 c 0.21,-1.4 0.59,-2.77 1.13,-4.09 0.82,-1.65 3.19,-0.65 4.76,0.52 0,0 -1.65,-0.13 -2.1,1.13 -0.41,1.24 -0.71,2.51 -0.88,3.8 z" />
						<path
   id="Tracé_153_00000115475296949754831420000006535645310117148547_"
   class="st12"
   d="m 8.55,-5.59 c 0.21,-1.4 0.59,-2.77 1.13,-4.09 0.82,-1.65 3.19,-0.65 4.76,0.52 0,0 -1.65,-0.13 -2.1,1.13 -0.41,1.24 -0.71,2.51 -0.88,3.8 z" />
						<path
   id="Tracé_154_00000088093676486419587570000006243184720617738626_"
   class="st11"
   d="m 15.91,18.6 c 0,0.13 0,0.26 0,0.39 -0.02,3.71 -0.32,6.46 -0.79,6.96 -1.55,1.65 -6.76,2.12 -12.75,2.12 -5.99,0 -11.2,-0.47 -12.75,-2.12 -0.47,-0.5 -0.77,-3.25 -0.79,-6.96 0,-0.13 0,-0.26 0,-0.39 0,-1.77 0.05,-3.75 0.18,-5.8 0.03,-0.41 0.05,-0.82 0.09,-1.23 0.57,-7.49 2.1,-15.55 5.07,-17.83 1.61,-1.23 3.88,-2.12 8.2,-2.12 4.32,0 6.6,0.88 8.2,2.12 2.99,2.3 4.52,10.47 5.08,18.02 0.03,0.42 0.06,0.83 0.08,1.24 0.12,1.97 0.18,3.88 0.18,5.6" />
						<path
   id="Tracé_155_00000036940411885016664280000002340491836829031853_"
   class="st12"
   d="m 15.91,18.6 c 0,0.13 0,0.26 0,0.39 -0.02,3.71 -0.32,6.46 -0.79,6.96 -1.55,1.65 -6.76,2.12 -12.75,2.12 -5.99,0 -11.2,-0.47 -12.75,-2.12 -0.47,-0.5 -0.77,-3.25 -0.79,-6.96 0,-0.13 0,-0.26 0,-0.39 0,-1.77 0.05,-3.75 0.18,-5.8 0.03,-0.41 0.05,-0.82 0.09,-1.23 0.57,-7.49 2.1,-15.55 5.07,-17.83 1.61,-1.23 3.88,-2.12 8.2,-2.12 4.32,0 6.6,0.88 8.2,2.12 2.99,2.3 4.52,10.47 5.08,18.02 0.03,0.42 0.06,0.83 0.08,1.24 0.13,1.98 0.18,3.88 0.18,5.6 z" />
						<path
   id="Tracé_156_00000169528056596256857720000013465719563913204157_"
   class="st11"
   d="m 15.67,12 c -0.21,-0.12 -0.43,-0.25 -0.64,-0.36 0.39,3.82 0.38,10.75 -0.62,13.48 -1.52,4.14 -19.88,2.96 -23.04,1.08 -2.89,-1.72 -1.21,-14.83 -1.21,-14.83 -0.04,0.04 -1.01,0.92 -1.13,1 -0.01,0.15 -0.02,0.29 -0.03,0.44 -0.13,2.05 -0.19,4.02 -0.18,5.8 0,0.13 0,0.26 0,0.39 0.02,3.71 0.32,6.46 0.79,6.96 1.55,1.65 6.76,2.12 12.75,2.12 5.99,0 11.2,-0.47 12.75,-2.12 0.47,-0.5 0.77,-3.24 0.79,-6.96 0,-0.13 0,-0.26 0,-0.39 0,-1.72 -0.05,-3.62 -0.17,-5.6 C 15.71,12.67 15.69,12.33 15.67,12" />
						<path
   id="Tracé_157_00000044170672048404656890000017628536912278173110_"
   class="st12"
   d="m 15.67,12 c -0.21,-0.12 -0.43,-0.25 -0.64,-0.36 0.39,3.82 0.38,10.75 -0.62,13.48 -1.52,4.14 -19.88,2.96 -23.04,1.08 -2.89,-1.72 -1.21,-14.83 -1.21,-14.83 -0.04,0.04 -1.01,0.92 -1.13,1 -0.01,0.15 -0.02,0.29 -0.03,0.44 -0.13,2.05 -0.19,4.02 -0.18,5.8 0,0.13 0,0.26 0,0.39 0.02,3.71 0.32,6.46 0.79,6.96 1.55,1.65 6.76,2.12 12.75,2.12 5.99,0 11.2,-0.47 12.75,-2.12 0.47,-0.5 0.77,-3.24 0.79,-6.96 0,-0.13 0,-0.26 0,-0.39 0,-1.72 -0.05,-3.62 -0.17,-5.6 C 15.72,12.67 15.69,12.33 15.67,12 Z" />
						<path
   id="Tracé_158_00000129192713295033881610000001391188183810362252_"
   class="st11"
   d="M 14.23,11.2 C 13.98,8.49 13.56,5.8 12.98,3.14 12.15,-0.46 11.07,-2.89 9.84,-3.92 8.68,-4.88 6.79,-5.99 2.37,-5.99 c -4.42,0 -6.32,1.11 -7.47,2.08 -2.03,1.68 -3.58,7.01 -4.39,15.01 l -0.69,-0.07 c 0.28,-3.18 0.81,-6.34 1.6,-9.43 0.82,-3.02 1.84,-5.06 3.03,-6.05 1.85,-1.54 4.3,-2.23 7.92,-2.23 3.62,0 6.06,0.69 7.92,2.23 1.36,1.13 2.5,3.64 3.37,7.44 0.59,2.69 1.02,5.41 1.27,8.14 z" />
						<path
   id="Tracé_159_00000079444473208179484060000008927940492031595703_"
   class="st12"
   d="M 14.23,11.2 C 13.98,8.49 13.56,5.8 12.98,3.14 12.15,-0.46 11.07,-2.89 9.84,-3.92 8.68,-4.88 6.79,-5.99 2.37,-5.99 c -4.42,0 -6.32,1.11 -7.47,2.08 -2.03,1.68 -3.58,7.01 -4.39,15.01 l -0.69,-0.07 c 0.28,-3.18 0.81,-6.34 1.6,-9.43 0.82,-3.02 1.84,-5.06 3.03,-6.05 1.85,-1.54 4.3,-2.23 7.92,-2.23 3.62,0 6.06,0.69 7.92,2.23 1.36,1.13 2.5,3.64 3.37,7.44 0.59,2.69 1.02,5.41 1.27,8.14 z" />
						<path
   id="Tracé_160_00000013899851009297608080000011609248511245098117_"
   class="st11"
   d="M 15.74,13 C 14.75,11.9 13.57,10.98 12.26,10.29 L 12.14,9.33 c 1.35,0.52 2.55,1.35 3.51,2.43 0.03,0.41 0.06,0.83 0.09,1.24" />
						<path
   id="Tracé_161_00000060748478363266605570000007239782862599905210_"
   class="st12"
   d="M 15.74,13 C 14.75,11.9 13.57,10.98 12.26,10.29 L 12.14,9.33 c 1.35,0.52 2.55,1.35 3.51,2.43 0.03,0.41 0.06,0.83 0.09,1.24 z" />
						<path
   id="Tracé_162_00000056396486537806905490000011312851905030238339_"
   class="st11"
   d="m -7.58,9.33 -0.12,0.96 c -1.23,0.66 -2.34,1.5 -3.29,2.52 0.03,-0.41 0.05,-0.82 0.09,-1.23 0.92,-1 2.06,-1.77 3.32,-2.25" />
						<path
   id="Tracé_163_00000083784090181667292760000012716401177496426153_"
   class="st12"
   d="m -7.58,9.33 -0.12,0.96 c -1.23,0.66 -2.34,1.5 -3.29,2.52 0.03,-0.41 0.05,-0.82 0.09,-1.23 0.92,-1 2.05,-1.77 3.32,-2.25 z" />
						<path
   id="Tracé_164_00000168117715615511697460000018294041567328792200_"
   class="st11"
   d="m 13.32,19.77 c 0,0.12 0,0.23 0,0.34 -0.02,3.25 -0.26,5.66 -0.64,6.1 -0.88,0.76 -1.97,1.23 -3.13,1.35 -2.37,0.38 -4.78,0.55 -7.18,0.5 -4.84,0 -9.06,-0.41 -10.31,-1.86 -0.38,-0.44 -0.62,-2.85 -0.64,-6.1 0,-0.11 0,-0.23 0,-0.34 -0.02,-7.49 1.12,-19.13 4.31,-21.79 1.3,-1.08 3.14,-1.86 6.64,-1.86 3.5,0 5.34,0.77 6.64,1.86 1.22,1.01 2.14,3.34 2.81,6.24 1.03,5.12 1.54,10.33 1.5,15.56" />
						<path
   id="Tracé_165_00000060003387543556724980000014076186678998690465_"
   class="st12"
   d="m 13.32,19.77 c 0,0.12 0,0.23 0,0.34 -0.02,3.25 -0.26,5.66 -0.64,6.1 -0.88,0.76 -1.97,1.23 -3.13,1.35 -2.37,0.38 -4.78,0.55 -7.18,0.5 -4.84,0 -9.06,-0.41 -10.31,-1.86 -0.38,-0.44 -0.62,-2.85 -0.64,-6.1 0,-0.11 0,-0.23 0,-0.34 -0.02,-7.49 1.12,-19.13 4.31,-21.79 1.3,-1.08 3.14,-1.86 6.64,-1.86 3.5,0 5.34,0.77 6.64,1.86 1.22,1.01 2.14,3.34 2.81,6.24 1.03,5.12 1.54,10.33 1.5,15.56 z" />
						<path
   id="Tracé_166_00000021829911733072900950000003366167026679412919_"
   class="st11"
   d="m 11.81,4.22 c 1.04,5.12 1.54,10.33 1.51,15.55 0,0.12 0,0.23 0,0.34 -0.02,3.25 -0.26,5.66 -0.64,6.1 -0.88,0.76 -1.97,1.23 -3.13,1.35" />
						<path
   id="Tracé_167_00000129914326156037043050000002525128271365199772_"
   class="st12"
   d="m 11.81,4.22 c 1.04,5.12 1.54,10.33 1.51,15.55 0,0.12 0,0.23 0,0.34 -0.02,3.25 -0.26,5.66 -0.64,6.1 -0.88,0.76 -1.97,1.23 -3.13,1.35" />
						<path
   id="Tracé_168_00000155136393725246865990000000516252536329527984_"
   class="st11"
   d="M 7.52,-6.39 C 6.63,-6.39 6.08,-7.1 5.49,-7.85 4.76,-8.79 4,-9.76 2.46,-9.76 c -1.64,0 -2.58,1.1 -3.41,2.07 -0.6,0.7 -1.11,1.3 -1.83,1.3 -0.3,-0.03 -0.53,-0.29 -0.5,-0.6 0.02,-0.27 0.24,-0.48 0.5,-0.5 0.21,0 0.64,-0.51 0.99,-0.92 0.89,-1.04 2.1,-2.45 4.25,-2.45 1.61,0.07 3.08,0.95 3.91,2.34 0.43,0.55 0.8,1.03 1.15,1.03 0.3,0.03 0.53,0.29 0.5,0.6 -0.02,0.26 -0.23,0.47 -0.5,0.5" />
						<path
   id="Tracé_169_00000140718837226658696040000002546566768834997392_"
   class="st12"
   d="M 7.52,-6.39 C 6.63,-6.39 6.08,-7.1 5.49,-7.85 4.76,-8.79 4,-9.76 2.46,-9.76 c -1.64,0 -2.58,1.1 -3.41,2.07 -0.6,0.7 -1.11,1.3 -1.83,1.3 -0.3,-0.03 -0.53,-0.29 -0.5,-0.6 0.02,-0.27 0.24,-0.48 0.5,-0.5 0.21,0 0.64,-0.51 0.99,-0.92 0.89,-1.04 2.1,-2.45 4.25,-2.45 1.61,0.07 3.08,0.95 3.91,2.34 0.43,0.55 0.8,1.03 1.15,1.03 0.3,0.03 0.53,0.29 0.5,0.6 -0.02,0.26 -0.23,0.47 -0.5,0.5 z" />
					</g>
				</g>
			</g>
		</g>
		<g
   id="Groupe_116_00000139286290725659005090000013492273111780707491_"
   transform="translate(1211.42,638.426)">
			
		</g>
	</g>
</g>
<g
   id="Calque_3"
   class="st0">
	<g
   id="Groupe_134"
   transform="translate(-1172 -604)"
   class="st1">
		<g
   id="Groupe_118_00000120559138033952768360000006175539663244424834_">
			<g
   id="Composant_4_2"
   transform="translate(1202 634)">
				<g
   id="g134">
					<g
   id="Groupe_115_00000076571330720977634750000005959603161420294022_"
   transform="translate(17.422 11.5)">
						<g
   id="g131">
							<defs
   id="defs126">
								<rect
   id="SVGID_00000051364247098862492070000012074592471499879348_"
   x="-11.21"
   y="-10.9"
   width="27.16"
   height="39" />
							</defs>
							<clipPath
   id="SVGID_00000039119597457994330280000005740324732232715185_">
								<use
   xlink:href="#SVGID_00000051364247098862492070000012074592471499879348_"
   style="overflow:visible;"
   id="use128" />
							</clipPath>
						</g>
					</g>
				</g>
				<g
   id="g177">
					<g
   transform="matrix(1, 0, 0, 1, -30, -30)"
   id="g141">
						<g
   id="Ellipse_1-2_00000115487313484498292680000010378015941702520983_"
   transform="translate(30 30)">
							<circle
   class="st15"
   cx="19.79"
   cy="20.1"
   r="31"
   id="circle136" />
							<circle
   class="st16"
   cx="19.79"
   cy="20.1"
   r="30.5"
   id="circle138" />
						</g>
					</g>
					<g
   id="Groupe_115_00000167363713339741942720000004718382773616133028_"
   transform="translate(17.422 11.5)">
						<g
   id="g174">
							<defs
   id="defs144">
								<rect
   id="SVGID_00000147189054116030169490000014619876516391303098_"
   x="-11.21"
   y="-10.9"
   width="27.16"
   height="39" />
							</defs>
							<clipPath
   id="SVGID_00000013192011057189984360000015775107891604940165_">
								<use
   xlink:href="#SVGID_00000147189054116030169490000014619876516391303098_"
   style="overflow:visible;"
   id="use146" />
							</clipPath>
							
								<g
   id="Groupe_114_00000129188774639491718570000008866292749510581128_"
   style="clip-path:url(#SVGID_00000013192011057189984360000015775107891604940165_);"
   clip-path="url(#SVGID_00000013192011057189984360000015775107891604940165_)">
								<path
   id="Tracé_146_00000096739658380624773870000003911208149408800416_"
   class="st18"
   d="M-9.59-9.16          c-1.2,0.74-0.57,6.7,0.53,10.25l2.53-0.76c0,0-1.86-7.91-1.13-9.01c0.35-0.57,0.79-1.08,1.29-1.52L-9.59-9.16z" />
								<path
   id="Tracé_147_00000088823955281045419600000015924845672840657085_"
   class="st19"
   d="M-9.59-9.16          c-1.2,0.74-0.57,6.7,0.53,10.25l2.53-0.76c0,0-1.86-7.91-1.13-9.01c0.35-0.57,0.79-1.08,1.29-1.52L-9.59-9.16z" />
								<path
   id="Tracé_148_00000112599269343789740880000013284133405774890640_"
   class="st18"
   d="M-3.71-5.59          c-0.21-1.4-0.59-2.77-1.13-4.08c-0.82-1.65-3.19-0.66-4.76,0.52c0,0,1.65-0.13,2.1,1.13c0.41,1.24,0.71,2.51,0.88,3.8          L-3.71-5.59z" />
								<path
   id="Tracé_149_00000039128755757667449660000010789348187391217339_"
   class="st19"
   d="M-3.71-5.59          c-0.21-1.4-0.59-2.77-1.13-4.08c-0.82-1.65-3.19-0.66-4.76,0.52c0,0,1.65-0.13,2.1,1.13c0.41,1.24,0.71,2.51,0.88,3.8          L-3.71-5.59z" />
								<path
   id="Tracé_150_00000164485059678566856870000000258775024476150971_"
   class="st18"
   d="M14.44-9.16          c1.2,0.74,0.57,6.7-0.53,10.25l-2.53-0.76c0,0,1.86-7.91,1.13-9.01c-0.35-0.57-0.79-1.08-1.29-1.52L14.44-9.16z" />
								<path
   id="Tracé_151_00000142160361773281460870000009729253443423095685_"
   class="st19"
   d="M14.44-9.16          c1.2,0.74,0.57,6.7-0.53,10.25l-2.53-0.76c0,0,1.86-7.91,1.13-9.01c-0.35-0.57-0.79-1.08-1.29-1.52L14.44-9.16z" />
								<path
   id="Tracé_152_00000000921544611748827140000002464667424305694880_"
   class="st18"
   d="M8.55-5.59          c0.21-1.4,0.59-2.77,1.13-4.09c0.82-1.65,3.19-0.65,4.76,0.52c0,0-1.65-0.13-2.1,1.13c-0.41,1.24-0.71,2.51-0.88,3.8          L8.55-5.59z" />
								<path
   id="Tracé_153_00000004532906003338878870000012690581489628355495_"
   class="st19"
   d="M8.55-5.59          c0.21-1.4,0.59-2.77,1.13-4.09c0.82-1.65,3.19-0.65,4.76,0.52c0,0-1.65-0.13-2.1,1.13c-0.41,1.24-0.71,2.51-0.88,3.8          L8.55-5.59z" />
								<path
   id="Tracé_154_00000181068875718363414400000012712788411994546069_"
   class="st18"
   d="M15.91,18.6          c0,0.13,0,0.26,0,0.39c-0.02,3.71-0.32,6.46-0.79,6.96c-1.55,1.65-6.76,2.12-12.75,2.12s-11.2-0.47-12.75-2.12          c-0.47-0.5-0.77-3.25-0.79-6.96c0-0.13,0-0.26,0-0.39c0-1.77,0.05-3.75,0.18-5.8c0.03-0.41,0.05-0.82,0.09-1.23          c0.57-7.49,2.1-15.55,5.07-17.83c1.61-1.23,3.88-2.12,8.2-2.12s6.6,0.88,8.2,2.12c2.99,2.3,4.52,10.47,5.08,18.02          c0.03,0.42,0.06,0.83,0.08,1.24C15.85,14.97,15.91,16.88,15.91,18.6" />
								<path
   id="Tracé_155_00000094608300835588069870000017770421069506634680_"
   class="st19"
   d="M15.91,18.6          c0,0.13,0,0.26,0,0.39c-0.02,3.71-0.32,6.46-0.79,6.96c-1.55,1.65-6.76,2.12-12.75,2.12s-11.2-0.47-12.75-2.12          c-0.47-0.5-0.77-3.25-0.79-6.96c0-0.13,0-0.26,0-0.39c0-1.77,0.05-3.75,0.18-5.8c0.03-0.41,0.05-0.82,0.09-1.23          c0.57-7.49,2.1-15.55,5.07-17.83c1.61-1.23,3.88-2.12,8.2-2.12s6.6,0.88,8.2,2.12c2.99,2.3,4.52,10.47,5.08,18.02          c0.03,0.42,0.06,0.83,0.08,1.24C15.86,14.98,15.91,16.88,15.91,18.6z" />
								<path
   id="Tracé_156_00000036246311023762181170000008017899955955516340_"
   class="st18"
   d="M15.67,12          c-0.21-0.12-0.43-0.25-0.64-0.36c0.39,3.82,0.38,10.75-0.62,13.48c-1.52,4.14-19.88,2.96-23.04,1.08          c-2.89-1.72-1.21-14.83-1.21-14.83c-0.04,0.04-1.01,0.92-1.13,1c-0.01,0.15-0.02,0.29-0.03,0.44          c-0.13,2.05-0.19,4.02-0.18,5.8c0,0.13,0,0.26,0,0.39c0.02,3.71,0.32,6.46,0.79,6.96c1.55,1.65,6.76,2.12,12.75,2.12          s11.2-0.47,12.75-2.12c0.47-0.5,0.77-3.24,0.79-6.96c0-0.13,0-0.26,0-0.39c0-1.72-0.05-3.62-0.17-5.6          C15.71,12.67,15.69,12.33,15.67,12" />
								<path
   id="Tracé_157_00000067226447760671562140000004960534878654754725_"
   class="st19"
   d="M15.67,12          c-0.21-0.12-0.43-0.25-0.64-0.36c0.39,3.82,0.38,10.75-0.62,13.48c-1.52,4.14-19.88,2.96-23.04,1.08          c-2.89-1.72-1.21-14.83-1.21-14.83c-0.04,0.04-1.01,0.92-1.13,1c-0.01,0.15-0.02,0.29-0.03,0.44          c-0.13,2.05-0.19,4.02-0.18,5.8c0,0.13,0,0.26,0,0.39c0.02,3.71,0.32,6.46,0.79,6.96c1.55,1.65,6.76,2.12,12.75,2.12          s11.2-0.47,12.75-2.12c0.47-0.5,0.77-3.24,0.79-6.96c0-0.13,0-0.26,0-0.39c0-1.72-0.05-3.62-0.17-5.6          C15.72,12.67,15.69,12.33,15.67,12z" />
								<path
   id="Tracé_158_00000175310638125699492650000002706611178565496727_"
   class="st18"
   d="M14.23,11.2          c-0.25-2.71-0.67-5.4-1.25-8.06c-0.83-3.6-1.91-6.03-3.14-7.06C8.68-4.88,6.79-5.99,2.37-5.99S-3.95-4.88-5.1-3.91          C-7.13-2.23-8.68,3.1-9.49,11.1l-0.69-0.07c0.28-3.18,0.81-6.34,1.6-9.43c0.82-3.02,1.84-5.06,3.03-6.05          c1.85-1.54,4.3-2.23,7.92-2.23s6.06,0.69,7.92,2.23c1.36,1.13,2.5,3.64,3.37,7.44c0.59,2.69,1.02,5.41,1.27,8.14L14.23,11.2          z" />
								<path
   id="Tracé_159_00000020362192624387435680000009076220330549811865_"
   class="st19"
   d="M14.23,11.2          c-0.25-2.71-0.67-5.4-1.25-8.06c-0.83-3.6-1.91-6.03-3.14-7.06C8.68-4.88,6.79-5.99,2.37-5.99S-3.95-4.88-5.1-3.91          C-7.13-2.23-8.68,3.1-9.49,11.1l-0.69-0.07c0.28-3.18,0.81-6.34,1.6-9.43c0.82-3.02,1.84-5.06,3.03-6.05          c1.85-1.54,4.3-2.23,7.92-2.23s6.06,0.69,7.92,2.23c1.36,1.13,2.5,3.64,3.37,7.44c0.59,2.69,1.02,5.41,1.27,8.14L14.23,11.2          z" />
								<path
   id="Tracé_160_00000085943347858154592020000015102683858908878517_"
   class="st18"
   d="M15.74,13          c-0.99-1.1-2.17-2.02-3.48-2.71l-0.12-0.96c1.35,0.52,2.55,1.35,3.51,2.43C15.68,12.17,15.71,12.59,15.74,13" />
								<path
   id="Tracé_161_00000159446065817927028520000012145348635221432466_"
   class="st19"
   d="M15.74,13          c-0.99-1.1-2.17-2.02-3.48-2.71l-0.12-0.96c1.35,0.52,2.55,1.35,3.51,2.43C15.68,12.17,15.71,12.59,15.74,13z" />
								<path
   id="Tracé_162_00000161609991849533951720000000125847845558520465_"
   class="st18"
   d="M-7.58,9.33l-0.12,0.96          c-1.23,0.66-2.34,1.5-3.29,2.52c0.03-0.41,0.05-0.82,0.09-1.23C-9.98,10.58-8.84,9.81-7.58,9.33" />
								<path
   id="Tracé_163_00000075866336315852849490000015066323648879454854_"
   class="st19"
   d="M-7.58,9.33l-0.12,0.96          c-1.23,0.66-2.34,1.5-3.29,2.52c0.03-0.41,0.05-0.82,0.09-1.23C-9.98,10.58-8.85,9.81-7.58,9.33z" />
								<path
   id="Tracé_164_00000093871631371184026250000005675367087254147743_"
   class="st18"
   d="M13.32,19.77          c0,0.12,0,0.23,0,0.34c-0.02,3.25-0.26,5.66-0.64,6.1c-0.88,0.76-1.97,1.23-3.13,1.35c-2.37,0.38-4.78,0.55-7.18,0.5          c-4.84,0-9.06-0.41-10.31-1.86c-0.38-0.44-0.62-2.85-0.64-6.1c0-0.11,0-0.23,0-0.34C-8.6,12.27-7.46,0.63-4.27-2.03          c1.3-1.08,3.14-1.86,6.64-1.86s5.34,0.77,6.64,1.86c1.22,1.01,2.14,3.34,2.81,6.24C12.85,9.33,13.36,14.54,13.32,19.77" />
								<path
   id="Tracé_165_00000000219164298917727430000002533110708944196782_"
   class="st19"
   d="M13.32,19.77          c0,0.12,0,0.23,0,0.34c-0.02,3.25-0.26,5.66-0.64,6.1c-0.88,0.76-1.97,1.23-3.13,1.35c-2.37,0.38-4.78,0.55-7.18,0.5          c-4.84,0-9.06-0.41-10.31-1.86c-0.38-0.44-0.62-2.85-0.64-6.1c0-0.11,0-0.23,0-0.34C-8.6,12.27-7.46,0.63-4.27-2.03          c1.3-1.08,3.14-1.86,6.64-1.86s5.34,0.77,6.64,1.86c1.22,1.01,2.14,3.34,2.81,6.24C12.85,9.33,13.36,14.54,13.32,19.77z" />
								<path
   id="Tracé_166_00000150794107771622078670000004334539257303094670_"
   class="st18"
   d="M11.81,4.22          c1.04,5.12,1.54,10.33,1.51,15.55c0,0.12,0,0.23,0,0.34c-0.02,3.25-0.26,5.66-0.64,6.1c-0.88,0.76-1.97,1.23-3.13,1.35" />
								<path
   id="Tracé_167_00000067925222158715039140000012404784198143348157_"
   class="st19"
   d="M11.81,4.22          c1.04,5.12,1.54,10.33,1.51,15.55c0,0.12,0,0.23,0,0.34c-0.02,3.25-0.26,5.66-0.64,6.1c-0.88,0.76-1.97,1.23-3.13,1.35" />
								<path
   id="Tracé_168_00000169516393003452001850000013653343782953943966_"
   class="st18"
   d="M7.52-6.39          c-0.89,0-1.44-0.71-2.03-1.46C4.76-8.79,4-9.76,2.46-9.76c-1.64,0-2.58,1.1-3.41,2.07c-0.6,0.7-1.11,1.3-1.83,1.3          c-0.3-0.03-0.53-0.29-0.5-0.6c0.02-0.27,0.24-0.48,0.5-0.5c0.21,0,0.64-0.51,0.99-0.92c0.89-1.04,2.1-2.45,4.25-2.45          c1.61,0.07,3.08,0.95,3.91,2.34c0.43,0.55,0.8,1.03,1.15,1.03c0.3,0.03,0.53,0.29,0.5,0.6C8-6.63,7.79-6.42,7.52-6.39" />
								<path
   id="Tracé_169_00000043452901378253095180000018029562400206809503_"
   class="st19"
   d="M7.52-6.39          c-0.89,0-1.44-0.71-2.03-1.46C4.76-8.79,4-9.76,2.46-9.76c-1.64,0-2.58,1.1-3.41,2.07c-0.6,0.7-1.11,1.3-1.83,1.3          c-0.3-0.03-0.53-0.29-0.5-0.6c0.02-0.27,0.24-0.48,0.5-0.5c0.21,0,0.64-0.51,0.99-0.92c0.89-1.04,2.1-2.45,4.25-2.45          c1.61,0.07,3.08,0.95,3.91,2.34c0.43,0.55,0.8,1.03,1.15,1.03c0.3,0.03,0.53,0.29,0.5,0.6C8-6.63,7.79-6.42,7.52-6.39          L7.52-6.39z" />
							</g>
						</g>
					</g>
				</g>
				<g
   id="g188">
					<g
   id="Groupe_115_00000168103617171988912970000005743519984775444137_"
   transform="translate(17.422 11.5)">
						<g
   id="g185">
							<defs
   id="defs180">
								<rect
   id="SVGID_00000095316197937149459790000011400320256290719672_"
   x="-11.21"
   y="-10.9"
   width="27.16"
   height="39" />
							</defs>
							<clipPath
   id="SVGID_00000055674769225838993030000016509900126664602009_">
								<use
   xlink:href="#SVGID_00000095316197937149459790000011400320256290719672_"
   style="overflow:visible;"
   id="use182" />
							</clipPath>
						</g>
					</g>
				</g>
			</g>
			<g
   id="Groupe_116_00000145018903136645093050000003298565733876842125_"
   transform="translate(1211.42 638.426)">
				<g
   id="Groupe_38_00000090979673018905110060000009789749513669359500_"
   transform="translate(14.955 25.574)">
					<g
   id="g201">
						<defs
   id="defs192">
							<rect
   id="SVGID_00000003078749727729564180000000157548114585168786_"
   x="-11.21"
   y="-10.9"
   width="13.25"
   height="10.54" />
						</defs>
						<clipPath
   id="SVGID_00000121997791280031337640000006317636599628123574_">
							<use
   xlink:href="#SVGID_00000003078749727729564180000000157548114585168786_"
   style="overflow:visible;"
   id="use194" />
						</clipPath>
						
							<g
   id="Groupe_37_00000030485424024868715270000000042387382180658623_"
   transform="translate(0 0)"
   style="clip-path:url(#SVGID_00000121997791280031337640000006317636599628123574_);"
   clip-path="url(#SVGID_00000121997791280031337640000006317636599628123574_)">
							<path
   id="Tracé_94_00000131352398602145989750000000215776096207891079_"
   class="st21"
   d="M-0.25-4.45         c1.11-0.6,1.78-1.79,1.7-3.05c0-2.63-1.94-3.41-4.21-3.41h-8.45l2.79,2.2h5.47c1.1,0,1.69,0.29,1.69,1.2         c0,0.91-0.58,1.39-1.69,1.39h-4.11l0,0l4.26,0.16l-4.44,0.16l4.25,0.16l-4.43,0.16l4.24,0.16L-7.6-5.15l4.24,0.16l-4.41,0.16         l4.23,0.16l-4.4,0.16l4.22,0.16l-4.39,0.16l4.21,0.16L-8.3-3.9h5.41l1.82,3.53h3.11L-0.25-4.45z" />
							<path
   id="Tracé_95_00000070102942899451667620000012534579970403492273_"
   class="st21"
   d="M-0.08-8.7         c0.56,0,1.1,0.23,1.5,0.62c-0.26-2.17-2.08-2.83-4.18-2.83h-8.45l2.79,2.2H-0.08L-0.08-8.7z" />
							<path
   id="Tracé_96_00000134212572142938307820000002520280407586450621_"
   class="st22"
   d="M-0.25-4.45L-0.25-4.45         C-1.04-4.08-1.92-3.89-2.81-3.9L-3.13-3.9h0.24l1.82,3.53h3.11L-0.25-4.45z" />
						</g>
					</g>
				</g>
			</g>
		</g>
	</g>
</g>
</svg>
