<svg xmlns="http://www.w3.org/2000/svg" xmlns:xlink="http://www.w3.org/1999/xlink" width="80" height="80" viewBox="0 0 80 80">
  <defs>
    <clipPath id="clip-path">
      <rect id="Rectangle_346" data-name="Rectangle 346" width="40.578" height="58.324" fill="#001192"/>
    </clipPath>
    <clipPath id="clip-path-2">
      <rect id="Rectangle_347" data-name="Rectangle 347" width="40.578" height="58.324" fill="#fff"/>
    </clipPath>
    <clipPath id="clip-path-3">
      <rect id="Rectangle_346-2" data-name="Rectangle 346" width="38.789" height="55.752" fill="#001192"/>
    </clipPath>
  </defs>
  <g id="Groupe_564" data-name="Groupe 564" transform="translate(-1178 -620)">
    <g id="Groupe_558" data-name="Groupe 558" transform="translate(344 475)">
      <g id="Groupe_554" data-name="Groupe 554" transform="translate(-158 26)">
        <g id="Groupe_504" data-name="Groupe 504" transform="translate(-93 103)">
          <g id="Tracé_1140" data-name="Tracé 1140" transform="translate(1085 16)" fill="#6a6af4">
            <path d="M 40 79 C 34.73458862304688 79 29.62722206115723 77.96898651123047 24.81974411010742 75.93560028076172 C 20.17577743530273 73.97136688232422 16.00485610961914 71.1591796875 12.42283344268799 67.57716369628906 C 8.840822219848633 63.99514389038086 6.028633117675781 59.82422256469727 4.064400196075439 55.18025588989258 C 2.03101110458374 50.37277603149414 1 45.26541137695312 1 40 C 1 34.73458862304688 2.03101110458374 29.62722206115723 4.064400196075439 24.81974411010742 C 6.028633117675781 20.17577743530273 8.840822219848633 16.00485610961914 12.42283344268799 12.42283344268799 C 16.00485610961914 8.840822219848633 20.17577743530273 6.028633117675781 24.81974411010742 4.064400196075439 C 29.62722206115723 2.03101110458374 34.73458862304688 1 40 1 C 45.45497894287109 1 50.72877883911133 2.107488870620728 55.67490005493164 4.291711330413818 C 60.4742546081543 6.411133289337158 64.77863311767578 9.456644058227539 68.46845245361328 13.34367752075195 C 71.75457000732422 16.80424499511719 74.3408203125 20.83326721191406 76.15550231933594 25.31893348693848 C 78.04296875 29.98455619812012 79 34.92398834228516 79 40 C 79 45.26541137695312 77.96898651123047 50.37277603149414 75.93560028076172 55.18025588989258 C 73.97136688232422 59.82422256469727 71.1591796875 63.99514389038086 67.57716369628906 67.57716369628906 C 63.99514389038086 71.1591796875 59.82422256469727 73.97136688232422 55.18025588989258 75.93560028076172 C 50.37277603149414 77.96898651123047 45.26541137695312 79 40 79 Z" stroke="none"/>
            <path d="M 40 2 C 34.8691520690918 2 29.89284515380859 3.004432678222656 25.20929336547852 4.98541259765625 C 20.68452835083008 6.899223327636719 16.62044525146484 9.639450073242188 13.12994384765625 13.12994384765625 C 9.639450073242188 16.62044525146484 6.899223327636719 20.68452835083008 4.98541259765625 25.20929336547852 C 3.004432678222656 29.89284515380859 2 34.8691520690918 2 40 C 2 45.1308479309082 3.004432678222656 50.10715484619141 4.98541259765625 54.79070663452148 C 6.899223327636719 59.31546783447266 9.639450073242188 63.37955474853516 13.12994384765625 66.87005615234375 C 16.62044525146484 70.36054992675781 20.68452835083008 73.10077667236328 25.20929336547852 75.01458740234375 C 29.89284515380859 76.99556732177734 34.8691520690918 78 40 78 C 45.1308479309082 78 50.10715484619141 76.99556732177734 54.79070663452148 75.01458740234375 C 59.31546783447266 73.10077667236328 63.37955474853516 70.36054992675781 66.87005615234375 66.87005615234375 C 70.36054992675781 63.37955474853516 73.10077667236328 59.31546783447266 75.01458740234375 54.79070663452148 C 76.99556732177734 50.10715484619141 78 45.1308479309082 78 40 C 78 35.05311584472656 77.06752777099609 30.23988342285156 75.22848510742188 25.69396591186523 C 73.46103668212891 21.32503509521484 70.94269561767578 17.40151596069336 67.74318695068359 14.03215026855469 C 64.14492034912109 10.24156188964844 59.94863510131836 7.272178649902344 55.27092742919922 5.206497192382812 C 50.45287322998047 3.078826904296875 45.31498718261719 2 40 2 M 40 0 C 51.42124938964844 0 61.72447967529297 4.786773681640625 69.19371795654297 12.65521240234375 C 75.82212066650391 19.63551712036133 80 29.32986068725586 80 40 C 80 62.09138870239258 62.09138870239258 80 40 80 C 17.90861129760742 80 0 62.09138870239258 0 40 C 0 17.90861129760742 17.90861129760742 0 40 0 Z" stroke="none" fill="#001192"/>
          </g>
        </g>
      </g>
      <g id="Groupe_555" data-name="Groupe 555" transform="translate(855 155)">
        <g id="Groupe_547" data-name="Groupe 547" clip-path="url(#clip-path)">
          <path id="Tracé_1117" data-name="Tracé 1117" d="M8.208,6.715c-1.8,1.1-.859,10.042.79,15.356l3.792-1.146S10,9.08,11.1,7.427a10.016,10.016,0,0,1,1.934-2.282Z" transform="translate(-5.84 -4.155)" fill="#001192"/>
          <path id="Tracé_1118" data-name="Tracé 1118" d="M21.124,9.936a26.621,26.621,0,0,0-1.689-6.12c-1.229-2.467-4.786-.981-7.133.774,0,0,2.474-.2,3.147,1.693a30.166,30.166,0,0,1,1.313,5.7Z" transform="translate(-9.934 -2.03)" fill="#686eec"/>
          <path id="Tracé_1119" data-name="Tracé 1119" d="M179.121,6.715c1.8,1.1.859,10.042-.79,15.356l-3.792-1.146s2.791-11.845,1.688-13.5a10.015,10.015,0,0,0-1.934-2.282Z" transform="translate(-140.748 -4.155)" fill="#001192"/>
          <path id="Tracé_1120" data-name="Tracé 1120" d="M153.54,9.936a26.622,26.622,0,0,1,1.689-6.12c1.229-2.467,4.786-.981,7.133.774,0,0-2.474-.2-3.147,1.693a30.166,30.166,0,0,0-1.313,5.7Z" transform="translate(-123.99 -2.03)" fill="#686eec"/>
          <path id="Tracé_1121" data-name="Tracé 1121" d="M40.578,59.789c0,.2,0,.393,0,.587-.035,5.56-.48,9.676-1.184,10.422-2.325,2.466-10.133,3.17-19.1,3.17s-16.777-.7-19.1-3.17C.483,70.052.037,65.935,0,60.375c0-.193,0-.389,0-.587,0-2.658.083-5.619.276-8.685.039-.612.082-1.229.129-1.848C1.261,38.026,3.553,25.954,8,22.542c2.408-1.849,5.814-3.17,12.292-3.17s9.884,1.321,12.292,3.17c4.482,3.441,6.775,15.688,7.613,27q.07.938.126,1.864c.18,2.959.262,5.815.258,8.386" transform="translate(0 -15.644)" fill="#686eec"/>
          <path id="Tracé_1122" data-name="Tracé 1122" d="M40.219,173.982c-.321-.182-.639-.37-.961-.547.587,5.726.569,16.112-.926,20.19-2.271,6.2-29.79,4.432-34.514,1.625-4.327-2.571-1.809-22.215-1.809-22.215-.065.057-1.514,1.385-1.69,1.5-.015.218-.03.436-.044.653C.082,178.258,0,181.219,0,183.877c0,.2,0,.394,0,.587.035,5.56.481,9.676,1.185,10.422,2.325,2.466,10.133,3.17,19.1,3.17s16.777-.7,19.1-3.17c.7-.746,1.149-4.863,1.184-10.422,0-.193,0-.389,0-.587,0-2.571-.077-5.427-.258-8.386q-.045-.75-.1-1.509" transform="translate(0.001 -139.732)" fill="#001192"/>
          <path id="Tracé_1123" data-name="Tracé 1123" d="M44.315,59.343A97.358,97.358,0,0,0,42.439,47.27c-1.241-5.387-2.867-9.043-4.7-10.572-1.735-1.445-4.576-3.1-11.194-3.1s-9.459,1.659-11.195,3.1c-3.032,2.526-5.364,10.515-6.565,22.5l-1.04-.1a89.223,89.223,0,0,1,2.4-14.135c1.229-4.529,2.755-7.577,4.534-9.059,2.779-2.315,6.438-3.347,11.863-3.347S35.625,33.581,38.4,35.9c2.042,1.7,3.742,5.449,5.053,11.14a98.435,98.435,0,0,1,1.9,12.2Z" transform="translate(-6.252 -26.285)" fill="#001192"/>
          <path id="Tracé_1124" data-name="Tracé 1124" d="M186.913,162.7a19.319,19.319,0,0,0-5.209-4.067l-.174-1.437a13.669,13.669,0,0,1,5.257,3.64q.07.938.126,1.864" transform="translate(-146.593 -126.946)" fill="#001192"/>
          <path id="Tracé_1125" data-name="Tracé 1125" d="M6.542,157.2l-.174,1.436A19.286,19.286,0,0,0,1.435,162.4q.059-.918.129-1.849A13.186,13.186,0,0,1,6.542,157.2" transform="translate(-1.159 -126.945)" fill="#001192"/>
          <path id="Tracé_1126" data-name="Tracé 1126" d="M52.969,89.79c0,.173,0,.344,0,.514-.028,4.874-.388,8.482-.958,9.137-.819.941-2.478,1.59-4.69,2.022a59.826,59.826,0,0,1-10.763.757c-7.257,0-13.572-.617-15.453-2.779-.57-.655-.93-4.263-.959-9.137,0-.171,0-.341,0-.514-.017-11.237,1.682-28.671,6.468-32.653,1.948-1.621,4.7-2.779,9.944-2.779s8,1.158,9.944,2.779c1.827,1.52,3.2,5,4.208,9.353a113.174,113.174,0,0,1,2.261,23.3" transform="translate(-16.267 -43.896)" fill="#686eec"/>
          <path id="Tracé_1127" data-name="Tracé 1127" d="M52.97,106.3c0,.173,0,.344,0,.514-.028,4.874-.388,8.482-.958,9.137-.819.941-2.478,1.59-4.69,2.022a59.826,59.826,0,0,1-10.763.757,59.822,59.822,0,0,1-10.763-.757c-.633-.124-1.221-.265-1.756-.426-.1-.03-.194-.059-.288-.09l-.2-.067-.159-.057-.156-.057-.01,0-.148-.058-.151-.062c-.1-.041-.2-.084-.289-.128-.051-.023-.1-.048-.151-.072l-.093-.047-.051-.027-.107-.057c-.085-.046-.167-.094-.247-.144-.04-.024-.079-.049-.117-.074-.072-.047-.143-.1-.21-.146l-.014-.01c-.03-.022-.058-.044-.086-.066a.137.137,0,0,1-.018-.014c-.025-.02-.05-.04-.075-.061l-.032-.027c-.027-.023-.053-.045-.078-.069l0,0c-.029-.025-.056-.051-.083-.077-.059-.058-.115-.117-.167-.177a.961.961,0,0,1-.13-.207c-.017-.035-.033-.072-.05-.112s-.032-.083-.048-.128-.032-.093-.047-.145-.03-.1-.046-.159c-.03-.111-.059-.233-.087-.365l-.021-.1c-.028-.137-.055-.283-.08-.438s-.05-.32-.074-.494c-.011-.087-.023-.176-.035-.267-.029-.227-.055-.468-.08-.723-.016-.152-.03-.31-.044-.471-.037-.431-.069-.892-.1-1.382-.007-.123-.013-.247-.02-.373s-.012-.253-.018-.383c-.009-.193-.017-.391-.024-.592s-.015-.406-.02-.614c-.021-.693-.033-1.423-.038-2.185,0-.085,0-.171,0-.256s0-.172,0-.258c0-.159,0-.318,0-.479,0-.095,0-.19,0-.286,0-.235,0-.473.006-.713,0-.112,0-.225,0-.339l.005-.342c0-.114,0-.229.006-.344,0-.147.006-.294.01-.442q.006-.261.013-.525t.016-.53c0-.089.005-.178.009-.267,0-.117.008-.236.012-.354q.013-.359.028-.723.017-.409.037-.822c.011-.214.021-.43.032-.646.007-.124.013-.247.02-.371q.031-.556.066-1.12.012-.187.024-.375.061-.94.139-1.887C21.252,87.3,22.8,78.606,25.559,74.8a27.238,27.238,0,0,0-2.051,7.8c-.139.976-.273,2.1-.4,3.318-1.019,9.84-1.544,26.357.231,28.449a6.088,6.088,0,0,0,2.576,1.745,17.75,17.75,0,0,0,5.718.775c7.836.168,12.7-.468,15.54-1.272,2.016-.57,3.019-1.224,3.349-1.737,1.683-2.612,1.3-9.794,1.289-11.691-.015-4.088-.253-8.15-.513-12.228-.1-1.5-.05-3.012-.082-4.517q.116.619.225,1.252c.09.528.175,1.063.257,1.6q.049.325.1.651c.031.218.062.437.091.656.015.11.03.219.043.329s.03.22.043.331l.042.325s0,.01,0,.014c.013.108.027.217.04.325q.042.333.079.667c.026.222.051.446.076.669.008.07.016.141.023.211.018.153.034.307.049.461.012.112.023.224.035.336s.023.224.033.336c.014.136.027.272.04.407.008.089.017.177.024.266q.085.917.156,1.833c.01.126.02.253.029.379.012.158.024.318.035.476l.024.334c.016.232.031.464.046.695.012.194.024.387.035.581.021.349.04.7.058,1.043.008.164.017.327.024.491s.015.319.022.479q.04.914.067,1.8c0,.118.007.237.011.354,0,.139.008.278.011.416,0,.2.009.392.013.586,0,.034,0,.069,0,.1,0,.1,0,.192.005.288.013.74.018,1.461.018,2.158" transform="translate(-16.268 -60.405)" fill="#686eec"/>
          <path id="Tracé_1128" data-name="Tracé 1128" d="M73.64,57.137c-4.094.7,1.313,32.812-9.944,32.812s-5.851-32.114-9.944-32.812c1.948-1.621,4.7-2.779,9.944-2.779s8,1.158,9.944,2.779" transform="translate(-43.407 -43.896)" fill="#9da1fa"/>
          <path id="Tracé_1129" data-name="Tracé 1129" d="M62.337,103.71c-.189,0-.377-.008-.56-.023a.131.131,0,0,1,.022-.26,6.441,6.441,0,0,0,1.112,0,.131.131,0,1,1,.024.26c-.194.018-.4.027-.6.027m-1.656-.226a.126.126,0,0,1-.036-.005,5.481,5.481,0,0,1-1.068-.435.131.131,0,1,1,.124-.23,5.226,5.226,0,0,0,1.017.415.131.131,0,0,1-.036.256m3.35-.011a.131.131,0,0,1-.037-.256,5.216,5.216,0,0,0,1.013-.422.131.131,0,0,1,.125.229,5.474,5.474,0,0,1-1.064.443.126.126,0,0,1-.037.006M58.7,102.428a.13.13,0,0,1-.083-.03,6.857,6.857,0,0,1-.821-.812.131.131,0,1,1,.2-.17,6.609,6.609,0,0,0,.79.781.131.131,0,0,1-.084.231M66,102.4a.131.131,0,0,1-.084-.231,6.661,6.661,0,0,0,.784-.784.131.131,0,1,1,.2.169,6.926,6.926,0,0,1-.816.815A.131.131,0,0,1,66,102.4m-8.78-1.683a.131.131,0,0,1-.11-.06,11.133,11.133,0,0,1-.573-1,.131.131,0,0,1,.233-.119,10.776,10.776,0,0,0,.559.976.13.13,0,0,1-.038.181.128.128,0,0,1-.071.021m10.254-.03a.131.131,0,0,1-.11-.2,10.9,10.9,0,0,0,.556-.977.131.131,0,1,1,.233.118,11.2,11.2,0,0,1-.569,1,.13.13,0,0,1-.11.06m-11.294-2a.131.131,0,0,1-.121-.081c-.139-.34-.274-.7-.4-1.078a.131.131,0,0,1,.248-.083c.125.37.257.727.394,1.062a.131.131,0,0,1-.071.17.129.129,0,0,1-.049.01m12.327-.031a.13.13,0,0,1-.049-.01.131.131,0,0,1-.072-.17c.136-.335.268-.692.392-1.062a.131.131,0,0,1,.248.083c-.125.375-.259.738-.4,1.078a.131.131,0,0,1-.121.081m-13.058-2.13a.131.131,0,0,1-.126-.1c-.1-.354-.195-.728-.285-1.112a.131.131,0,1,1,.254-.06c.089.38.184.75.282,1.1a.131.131,0,0,1-.126.166M69.235,96.5a.131.131,0,0,1-.126-.166c.1-.352.192-.722.281-1.1a.131.131,0,1,1,.254.059c-.089.382-.184.756-.283,1.111a.131.131,0,0,1-.126.1M54.924,94.311a.13.13,0,0,1-.128-.105c-.072-.362-.141-.741-.206-1.127a.131.131,0,0,1,.258-.043c.064.384.133.76.2,1.12a.13.13,0,0,1-.1.153l-.025,0m14.832-.031-.025,0a.131.131,0,0,1-.1-.154c.071-.36.14-.737.2-1.12a.131.131,0,0,1,.258.043c-.064.386-.133.765-.2,1.127a.131.131,0,0,1-.128.105M54.544,92.058a.13.13,0,0,1-.129-.112c-.053-.366-.1-.748-.15-1.135a.131.131,0,0,1,.259-.031c.047.385.1.765.149,1.13a.131.131,0,0,1-.111.148h-.019m15.591-.032h-.018a.131.131,0,0,1-.111-.148c.052-.363.1-.744.149-1.13a.131.131,0,1,1,.259.032c-.047.388-.1.77-.149,1.135a.131.131,0,0,1-.129.112M54.266,89.791a.131.131,0,0,1-.13-.117c-.038-.366-.075-.749-.11-1.139a.131.131,0,1,1,.26-.023c.035.389.072.77.11,1.135a.13.13,0,0,1-.116.143h-.014m16.146-.032H70.4a.13.13,0,0,1-.116-.143c.038-.366.075-.748.109-1.135a.131.131,0,1,1,.26.023c-.035.389-.071.772-.11,1.139a.131.131,0,0,1-.13.117m-16.35-2.244a.131.131,0,0,1-.13-.121q-.044-.57-.082-1.141a.131.131,0,0,1,.261-.018q.038.569.081,1.138a.13.13,0,0,1-.12.14h-.01m16.554-.031H70.6a.131.131,0,0,1-.12-.14q.044-.57.081-1.14a.129.129,0,0,1,.139-.122.131.131,0,0,1,.122.139q-.038.571-.082,1.143a.131.131,0,0,1-.13.121M53.909,85.236a.131.131,0,0,1-.13-.123q-.033-.573-.063-1.142a.131.131,0,1,1,.261-.013q.03.567.063,1.14a.13.13,0,0,1-.123.138h-.008M70.767,85.2h-.008a.131.131,0,0,1-.123-.138q.033-.572.063-1.14a.129.129,0,0,1,.137-.124.13.13,0,0,1,.124.137q-.029.568-.063,1.141a.131.131,0,0,1-.13.123m-16.978-2.25a.131.131,0,0,1-.13-.124q-.027-.576-.053-1.142a.131.131,0,0,1,.125-.137.135.135,0,0,1,.136.125q.025.565.053,1.141a.13.13,0,0,1-.124.137h-.006m17.1-.032H70.88a.131.131,0,0,1-.124-.137q.027-.576.053-1.141a.131.131,0,0,1,.261.012q-.026.566-.053,1.142a.13.13,0,0,1-.13.124m-17.2-2.251a.131.131,0,0,1-.13-.125q-.026-.579-.053-1.141a.131.131,0,0,1,.261-.013q.027.562.053,1.142a.131.131,0,0,1-.125.136h-.006m17.305-.032h-.006a.131.131,0,0,1-.125-.136q.026-.579.053-1.142a.131.131,0,1,1,.261.012q-.027.562-.053,1.141a.131.131,0,0,1-.131.125M53.576,78.388a.13.13,0,0,1-.13-.124q-.031-.584-.065-1.14a.131.131,0,0,1,.261-.016q.035.557.065,1.142a.131.131,0,0,1-.124.138h-.007M71.1,78.356h-.007a.13.13,0,0,1-.124-.137q.031-.585.065-1.143a.131.131,0,0,1,.261.016q-.035.556-.065,1.14a.13.13,0,0,1-.13.124m-17.669-2.25a.131.131,0,0,1-.13-.121c-.031-.4-.065-.787-.1-1.136a.131.131,0,1,1,.26-.026c.035.351.069.735.1,1.142a.13.13,0,0,1-.12.14h-.01m17.813-.032h-.01a.131.131,0,0,1-.12-.14c.032-.414.065-.788.1-1.142a.131.131,0,1,1,.26.026c-.036.352-.069.724-.1,1.136a.131.131,0,0,1-.13.12M53.2,73.832a.131.131,0,0,1-.129-.113c-.057-.41-.12-.787-.188-1.119a.131.131,0,1,1,.256-.052c.069.338.133.72.191,1.136a.13.13,0,0,1-.111.147l-.018,0M71.481,73.8l-.018,0a.131.131,0,0,1-.111-.147c.058-.416.123-.8.193-1.136a.131.131,0,1,1,.256.053c-.069.332-.133.708-.19,1.119a.131.131,0,0,1-.129.113M52.718,71.6a.131.131,0,0,1-.124-.088,3.006,3.006,0,0,0-.494-.957.131.131,0,0,1,.2-.169,3.2,3.2,0,0,1,.542,1.041.13.13,0,0,1-.081.166.125.125,0,0,1-.042.007m19.249-.032a.131.131,0,0,1-.123-.174A3.09,3.09,0,0,1,72.4,70.36a.131.131,0,1,1,.2.173,2.887,2.887,0,0,0-.5.949.13.13,0,0,1-.123.087" transform="translate(-42.048 -56.783)" fill="#001192"/>
          <path id="Tracé_1130" data-name="Tracé 1130" d="M165.951,140.7c0,.173,0,.344,0,.514-.028,4.874-.388,8.482-.958,9.137-.819.941-2.478,1.59-4.69,2.022-1.222-15.846,2.4-31.182,3.388-34.973a113.173,113.173,0,0,1,2.261,23.3" transform="translate(-129.25 -94.803)" fill="#001192"/>
          <path id="Tracé_1132" data-name="Tracé 1132" d="M20.145,140.7c0,.173,0,.344,0,.514.028,4.874.388,8.482.958,9.137.819.941,2.478,1.59,4.69,2.022,1.222-15.846-2.4-31.182-3.388-34.973a113.175,113.175,0,0,0-2.261,23.3" transform="translate(-16.267 -94.803)" fill="#001192"/>
          <path id="Tracé_1135" data-name="Tracé 1135" d="M49.786,94.333l-.031,0a.174.174,0,0,1-.14-.2c.056-.31.108-.666.156-1.06a.174.174,0,1,1,.346.042c-.049.4-.1.763-.159,1.08a.174.174,0,0,1-.171.143m-33.042-.02a.174.174,0,0,1-.171-.143c-.057-.317-.11-.68-.158-1.08a.174.174,0,0,1,.346-.042c.047.393.1.75.155,1.06a.174.174,0,0,1-.141.2.167.167,0,0,1-.031,0m33.311-2.126h-.015A.174.174,0,0,1,49.881,92c.03-.338.057-.7.081-1.074a.172.172,0,0,1,.185-.162.174.174,0,0,1,.163.185c-.024.378-.052.742-.082,1.082a.174.174,0,0,1-.173.159m-33.578-.02a.174.174,0,0,1-.173-.159c-.03-.339-.057-.7-.082-1.082a.174.174,0,0,1,.163-.185.172.172,0,0,1,.185.162c.024.376.052.738.081,1.075a.174.174,0,0,1-.158.189h-.015M50.2,90.03h-.008a.174.174,0,0,1-.166-.182c.017-.348.031-.711.043-1.078a.174.174,0,1,1,.348.011c-.012.369-.027.733-.043,1.083a.174.174,0,0,1-.174.166m-33.86-.02a.174.174,0,0,1-.174-.166c-.016-.347-.031-.712-.043-1.083a.174.174,0,0,1,.348-.011c.012.37.027.732.043,1.078a.174.174,0,0,1-.166.182h-.008m33.932-2.142h0a.174.174,0,0,1-.171-.178q.011-.528.016-1.079a.174.174,0,0,1,.174-.172h0a.174.174,0,0,1,.172.176q-.005.553-.016,1.083a.174.174,0,0,1-.174.171m-34-.019a.174.174,0,0,1-.174-.171q-.011-.529-.016-1.083a.174.174,0,0,1,.172-.176h0a.174.174,0,0,1,.174.172q.005.551.016,1.079a.174.174,0,0,1-.171.178h0m34.024-2.143a.174.174,0,0,1-.174-.174v-.041q0-.512,0-1.039a.174.174,0,0,1,.173-.176h0a.174.174,0,0,1,.174.173q0,.529,0,1.042v.041a.174.174,0,0,1-.174.174m-34.045-.02a.174.174,0,0,1-.174-.174v-.031q0-.518,0-1.052a.174.174,0,0,1,.174-.173h0a.174.174,0,0,1,.173.176q0,.532,0,1.049v.031a.174.174,0,0,1-.174.174M50.27,83.543a.174.174,0,0,1-.174-.171q-.009-.534-.023-1.08a.174.174,0,0,1,.348-.009q.014.547.023,1.083a.174.174,0,0,1-.171.177h0m-34.007-.021h0a.174.174,0,0,1-.171-.177q.009-.536.023-1.083a.174.174,0,0,1,.174-.17h0a.174.174,0,0,1,.17.179q-.014.546-.023,1.08a.174.174,0,0,1-.174.171M50.215,81.38a.174.174,0,0,1-.174-.168q-.018-.536-.04-1.08a.174.174,0,0,1,.167-.181.172.172,0,0,1,.181.167q.023.545.04,1.082a.174.174,0,0,1-.168.18h-.006m-33.9-.022h-.006a.174.174,0,0,1-.168-.18q.018-.537.041-1.083a.174.174,0,0,1,.348.014q-.023.544-.04,1.08a.174.174,0,0,1-.174.168m33.808-2.139a.174.174,0,0,1-.174-.166q-.026-.536-.057-1.079a.174.174,0,1,1,.348-.02q.031.543.057,1.081a.174.174,0,0,1-.166.182h-.009M16.408,79.2H16.4a.174.174,0,0,1-.166-.182q.027-.538.057-1.082a.174.174,0,0,1,.348.02q-.031.542-.057,1.079a.174.174,0,0,1-.174.166M50,77.059a.174.174,0,0,1-.174-.163q-.035-.538-.074-1.079a.174.174,0,0,1,.347-.025q.039.542.074,1.082a.174.174,0,0,1-.163.185H50M16.53,77.035h-.011a.174.174,0,0,1-.163-.185q.035-.539.074-1.081a.174.174,0,0,1,.347.025q-.039.541-.074,1.078a.174.174,0,0,1-.174.163M49.848,74.9a.174.174,0,0,1-.173-.16q-.043-.538-.091-1.077a.174.174,0,0,1,.347-.031q.048.54.091,1.08a.174.174,0,0,1-.16.187h-.014m-33.162-.02h-.014a.174.174,0,0,1-.16-.187q.043-.539.091-1.079a.174.174,0,0,1,.347.031q-.048.539-.091,1.076a.174.174,0,0,1-.173.16m32.971-2.136a.174.174,0,0,1-.173-.157q-.052-.538-.109-1.074a.174.174,0,1,1,.346-.037q.057.538.11,1.077a.174.174,0,0,1-.156.19h-.017m-32.78-.02H16.86a.174.174,0,0,1-.156-.19q.053-.541.11-1.08a.174.174,0,1,1,.346.037q-.057.538-.11,1.077a.174.174,0,0,1-.173.157m32.551-2.13a.174.174,0,0,1-.173-.154q-.062-.537-.129-1.071a.174.174,0,0,1,.345-.043q.067.535.129,1.075a.174.174,0,0,1-.153.193h-.02m-32.322-.024h-.02a.174.174,0,0,1-.153-.193q.063-.54.13-1.076a.174.174,0,1,1,.345.043q-.067.534-.129,1.073a.174.174,0,0,1-.173.154m32.053-2.121a.174.174,0,0,1-.172-.151q-.073-.538-.151-1.069a.174.174,0,0,1,.345-.051q.079.533.152,1.073a.174.174,0,0,1-.149.2l-.024,0m-31.783-.027-.024,0a.174.174,0,0,1-.149-.2q.074-.539.152-1.073a.174.174,0,0,1,.345.051q-.079.532-.152,1.069a.174.174,0,0,1-.172.151m31.467-2.113a.174.174,0,0,1-.172-.147q-.086-.537-.177-1.065a.174.174,0,1,1,.343-.059q.092.53.178,1.069a.174.174,0,0,1-.145.2l-.028,0m-31.15-.028-.028,0a.174.174,0,0,1-.144-.2q.086-.54.178-1.07a.174.174,0,1,1,.343.059q-.092.528-.177,1.065a.174.174,0,0,1-.172.147m30.781-2.1a.174.174,0,0,1-.171-.142c-.068-.36-.137-.716-.207-1.059a.174.174,0,0,1,.341-.07c.07.345.14.7.208,1.064a.174.174,0,0,1-.139.2.169.169,0,0,1-.032,0m-30.41-.028-.032,0a.174.174,0,0,1-.139-.2c.068-.36.138-.718.209-1.065a.174.174,0,0,1,.341.07c-.07.345-.14.7-.208,1.059a.174.174,0,0,1-.171.142M48.04,62.057a.174.174,0,0,1-.17-.136q-.048-.214-.1-.425-.073-.315-.148-.625a.174.174,0,1,1,.339-.082q.076.311.149.628.049.213.1.428a.174.174,0,0,1-.132.208.171.171,0,0,1-.038,0M18.5,62.028a.183.183,0,0,1-.038,0,.174.174,0,0,1-.132-.208c.08-.359.163-.714.246-1.057a.174.174,0,0,1,.338.083c-.083.341-.166.694-.245,1.05a.174.174,0,0,1-.17.136m29.031-2.072a.174.174,0,0,1-.168-.129c-.095-.355-.193-.7-.291-1.037a.174.174,0,1,1,.334-.1c.1.336.2.687.293,1.045a.174.174,0,0,1-.168.219m-28.517-.03a.174.174,0,0,1-.168-.219c.1-.359.2-.711.295-1.046a.174.174,0,1,1,.334.1c-.1.332-.2.681-.292,1.037a.174.174,0,0,1-.168.129m27.9-2.043a.174.174,0,0,1-.165-.12c-.115-.35-.234-.692-.354-1.015a.174.174,0,1,1,.327-.121c.121.327.242.672.358,1.027a.175.175,0,0,1-.166.229m-27.288-.031a.174.174,0,0,1-.165-.229c.117-.355.238-.7.36-1.027a.174.174,0,0,1,.326.121c-.12.323-.24.665-.355,1.015a.174.174,0,0,1-.165.12m26.534-2A.174.174,0,0,1,46,55.75c-.145-.342-.294-.669-.445-.974a.174.174,0,0,1,.312-.154c.153.311.306.645.453.993a.174.174,0,0,1-.16.242m-25.777-.031a.174.174,0,0,1-.16-.242c.148-.347.3-.681.455-.992a.174.174,0,1,1,.312.155c-.151.305-.3.633-.447.974a.174.174,0,0,1-.16.106m24.815-1.9a.174.174,0,0,1-.15-.085,10.006,10.006,0,0,0-.587-.885.174.174,0,0,1,.279-.208,10.38,10.38,0,0,1,.607.916.174.174,0,0,1-.15.263m-23.848-.03a.174.174,0,0,1-.149-.263,10.318,10.318,0,0,1,.61-.914.174.174,0,0,1,.278.209,10.012,10.012,0,0,0-.589.883.174.174,0,0,1-.15.085M43.9,52.2a.173.173,0,0,1-.122-.05c-.1-.1-.2-.191-.305-.276-.166-.138-.336-.272-.507-.4a.174.174,0,1,1,.207-.28c.176.13.352.268.523.411.109.091.219.19.326.3a.174.174,0,0,1-.122.3M22.66,52.182a.174.174,0,0,1-.121-.3c.1-.1.2-.188.3-.272.179-.149.364-.294.549-.43a.174.174,0,1,1,.206.281c-.18.132-.359.272-.532.416-.094.079-.19.165-.283.255a.174.174,0,0,1-.121.049m19.5-1.263a.174.174,0,0,1-.088-.024,10.619,10.619,0,0,0-.942-.493.174.174,0,0,1,.146-.316,10.963,10.963,0,0,1,.973.509.174.174,0,0,1-.089.324M24.4,50.9a.174.174,0,0,1-.088-.324,10.953,10.953,0,0,1,.974-.506.174.174,0,1,1,.145.316c-.324.149-.642.314-.943.49a.174.174,0,0,1-.088.024m15.809-.891a.176.176,0,0,1-.058-.01c-.325-.115-.668-.222-1.019-.316a.174.174,0,1,1,.09-.336c.36.1.711.206,1.045.324a.174.174,0,0,1-.058.338M26.357,50a.174.174,0,0,1-.058-.338c.334-.118.685-.226,1.046-.322a.174.174,0,0,1,.089.337c-.352.094-.695.2-1.02.313a.174.174,0,0,1-.058.01m11.764-.553a.186.186,0,0,1-.034,0c-.339-.067-.694-.126-1.056-.176a.174.174,0,1,1,.048-.345c.369.051.73.112,1.076.18a.174.174,0,0,1-.033.345m-9.678-.006a.174.174,0,0,1-.033-.345c.345-.067.707-.127,1.076-.178a.174.174,0,0,1,.047.345c-.363.05-.718.109-1.056.175a.183.183,0,0,1-.034,0m7.539-.294h-.016c-.346-.031-.706-.056-1.071-.074a.174.174,0,0,1,.017-.348c.37.018.735.044,1.085.076a.174.174,0,0,1-.015.348m-5.4,0a.174.174,0,0,1-.015-.348c.351-.031.716-.056,1.085-.074a.174.174,0,0,1,.017.348c-.365.018-.725.042-1.071.073h-.016m3.24-.107h0c-.353-.005-.722-.006-1.075,0h0a.174.174,0,0,1,0-.348c.357-.005.73-.005,1.086,0a.174.174,0,0,1,0,.348" transform="translate(-12.977 -39.315)" fill="#001192"/>
          <path id="Tracé_1137" data-name="Tracé 1137" d="M77.278,6.7c-1.336,0-2.161-1.06-3.035-2.182-1.1-1.41-2.232-2.867-4.546-2.867-2.465,0-3.872,1.645-5.115,3.1C63.686,5.8,62.911,6.7,61.839,6.7a.827.827,0,0,1,0-1.654c.311,0,.962-.762,1.487-1.374C64.653,2.125,66.471,0,69.7,0c3.123,0,4.7,2.026,5.852,3.506.645.829,1.2,1.544,1.73,1.544a.827.827,0,0,1,0,1.654" transform="translate(-49.27 -0.001)" fill="#e20006"/>
          <path id="Tracé_1138" data-name="Tracé 1138" d="M94.643,173.07a2.568,2.568,0,0,1-2.568-2.568v-3.853l2.568-.218,2.568.218V170.5a2.568,2.568,0,0,1-2.568,2.568" transform="translate(-74.354 -134.4)" fill="#001192"/>
          <path id="Tracé_1139" data-name="Tracé 1139" d="M97.385,175.769a1.915,1.915,0,0,1-1.915-1.915v-2.873l1.915-.162,1.915.162v2.873a1.915,1.915,0,0,1-1.915,1.915" transform="translate(-77.096 -137.943)" fill="#e20006"/>
        </g>
        <g id="Groupe_556" data-name="Groupe 556" clip-path="url(#clip-path-2)">
          <path id="Tracé_1141" data-name="Tracé 1141" d="M8.208,6.715c-1.8,1.1-.859,10.042.79,15.356l3.792-1.146S10,9.08,11.1,7.427a10.016,10.016,0,0,1,1.934-2.282Z" transform="translate(-5.84 -4.155)" fill="#fff"/>
          <path id="Tracé_1142" data-name="Tracé 1142" d="M21.124,9.936a26.621,26.621,0,0,0-1.689-6.12c-1.229-2.467-4.786-.981-7.133.774,0,0,2.474-.2,3.147,1.693a30.166,30.166,0,0,1,1.313,5.7Z" transform="translate(-9.934 -2.03)" fill="#fff"/>
          <path id="Tracé_1143" data-name="Tracé 1143" d="M179.121,6.715c1.8,1.1.859,10.042-.79,15.356l-3.792-1.146s2.791-11.845,1.688-13.5a10.015,10.015,0,0,0-1.934-2.282Z" transform="translate(-140.748 -4.155)" fill="#fff"/>
          <path id="Tracé_1144" data-name="Tracé 1144" d="M153.54,9.936a26.622,26.622,0,0,1,1.689-6.12c1.229-2.467,4.786-.981,7.133.774,0,0-2.474-.2-3.147,1.693a30.166,30.166,0,0,0-1.313,5.7Z" transform="translate(-123.99 -2.03)" fill="#fff"/>
          <path id="Tracé_1145" data-name="Tracé 1145" d="M40.578,59.789c0,.2,0,.393,0,.587-.035,5.56-.48,9.676-1.184,10.422-2.325,2.466-10.133,3.17-19.1,3.17s-16.777-.7-19.1-3.17C.483,70.052.037,65.935,0,60.375c0-.193,0-.389,0-.587,0-2.658.083-5.619.276-8.685.039-.612.082-1.229.129-1.848C1.261,38.026,3.553,25.954,8,22.542c2.408-1.849,5.814-3.17,12.292-3.17s9.884,1.321,12.292,3.17c4.482,3.441,6.775,15.688,7.613,27q.07.938.126,1.864c.18,2.959.262,5.815.258,8.386" transform="translate(0 -15.644)" fill="#fff"/>
          <path id="Tracé_1146" data-name="Tracé 1146" d="M40.219,173.982c-.321-.182-.639-.37-.961-.547.587,5.726.569,16.112-.926,20.19-2.271,6.2-29.79,4.432-34.514,1.625-4.327-2.571-1.809-22.215-1.809-22.215-.065.057-1.514,1.385-1.69,1.5-.015.218-.03.436-.044.653C.082,178.258,0,181.219,0,183.877c0,.2,0,.394,0,.587.035,5.56.481,9.676,1.185,10.422,2.325,2.466,10.133,3.17,19.1,3.17s16.777-.7,19.1-3.17c.7-.746,1.149-4.863,1.184-10.422,0-.193,0-.389,0-.587,0-2.571-.077-5.427-.258-8.386q-.045-.75-.1-1.509" transform="translate(0.001 -139.732)" fill="#fff"/>
          <path id="Tracé_1147" data-name="Tracé 1147" d="M44.315,59.343A97.358,97.358,0,0,0,42.439,47.27c-1.241-5.387-2.867-9.043-4.7-10.572-1.735-1.445-4.576-3.1-11.194-3.1s-9.459,1.659-11.195,3.1c-3.032,2.526-5.364,10.515-6.565,22.5l-1.04-.1a89.223,89.223,0,0,1,2.4-14.135c1.229-4.529,2.755-7.577,4.534-9.059,2.779-2.315,6.438-3.347,11.863-3.347S35.625,33.581,38.4,35.9c2.042,1.7,3.742,5.449,5.053,11.14a98.435,98.435,0,0,1,1.9,12.2Z" transform="translate(-6.252 -26.285)" fill="#fff"/>
          <path id="Tracé_1148" data-name="Tracé 1148" d="M186.913,162.7a19.319,19.319,0,0,0-5.209-4.067l-.174-1.437a13.669,13.669,0,0,1,5.257,3.64q.07.938.126,1.864" transform="translate(-146.593 -126.946)" fill="#fff"/>
          <path id="Tracé_1149" data-name="Tracé 1149" d="M6.542,157.2l-.174,1.436A19.286,19.286,0,0,0,1.435,162.4q.059-.918.129-1.849A13.186,13.186,0,0,1,6.542,157.2" transform="translate(-1.159 -126.945)" fill="#fff"/>
          <path id="Tracé_1150" data-name="Tracé 1150" d="M52.969,89.79c0,.173,0,.344,0,.514-.028,4.874-.388,8.482-.958,9.137-.819.941-2.478,1.59-4.69,2.022a59.826,59.826,0,0,1-10.763.757c-7.257,0-13.572-.617-15.453-2.779-.57-.655-.93-4.263-.959-9.137,0-.171,0-.341,0-.514-.017-11.237,1.682-28.671,6.468-32.653,1.948-1.621,4.7-2.779,9.944-2.779s8,1.158,9.944,2.779c1.827,1.52,3.2,5,4.208,9.353a113.174,113.174,0,0,1,2.261,23.3" transform="translate(-16.267 -43.896)" fill="#fff"/>
          <path id="Tracé_1151" data-name="Tracé 1151" d="M52.97,106.3c0,.173,0,.344,0,.514-.028,4.874-.388,8.482-.958,9.137-.819.941-2.478,1.59-4.69,2.022a59.826,59.826,0,0,1-10.763.757,59.822,59.822,0,0,1-10.763-.757c-.633-.124-1.221-.265-1.756-.426-.1-.03-.194-.059-.288-.09l-.2-.067-.159-.057-.156-.057-.01,0-.148-.058-.151-.062c-.1-.041-.2-.084-.289-.128-.051-.023-.1-.048-.151-.072l-.093-.047-.051-.027-.107-.057c-.085-.046-.167-.094-.247-.144-.04-.024-.079-.049-.117-.074-.072-.047-.143-.1-.21-.146l-.014-.01c-.03-.022-.058-.044-.086-.066a.137.137,0,0,1-.018-.014c-.025-.02-.05-.04-.075-.061l-.032-.027c-.027-.023-.053-.045-.078-.069l0,0c-.029-.025-.056-.051-.083-.077-.059-.058-.115-.117-.167-.177a.961.961,0,0,1-.13-.207c-.017-.035-.033-.072-.05-.112s-.032-.083-.048-.128-.032-.093-.047-.145-.03-.1-.046-.159c-.03-.111-.059-.233-.087-.365l-.021-.1c-.028-.137-.055-.283-.08-.438s-.05-.32-.074-.494c-.011-.087-.023-.176-.035-.267-.029-.227-.055-.468-.08-.723-.016-.152-.03-.31-.044-.471-.037-.431-.069-.892-.1-1.382-.007-.123-.013-.247-.02-.373s-.012-.253-.018-.383c-.009-.193-.017-.391-.024-.592s-.015-.406-.02-.614c-.021-.693-.033-1.423-.038-2.185,0-.085,0-.171,0-.256s0-.172,0-.258c0-.159,0-.318,0-.479,0-.095,0-.19,0-.286,0-.235,0-.473.006-.713,0-.112,0-.225,0-.339l.005-.342c0-.114,0-.229.006-.344,0-.147.006-.294.01-.442q.006-.261.013-.525t.016-.53c0-.089.005-.178.009-.267,0-.117.008-.236.012-.354q.013-.359.028-.723.017-.409.037-.822c.011-.214.021-.43.032-.646.007-.124.013-.247.02-.371q.031-.556.066-1.12.012-.187.024-.375.061-.94.139-1.887C21.252,87.3,22.8,78.606,25.559,74.8a27.238,27.238,0,0,0-2.051,7.8c-.139.976-.273,2.1-.4,3.318-1.019,9.84-1.544,26.357.231,28.449a6.088,6.088,0,0,0,2.576,1.745,17.75,17.75,0,0,0,5.718.775c7.836.168,12.7-.468,15.54-1.272,2.016-.57,3.019-1.224,3.349-1.737,1.683-2.612,1.3-9.794,1.289-11.691-.015-4.088-.253-8.15-.513-12.228-.1-1.5-.05-3.012-.082-4.517q.116.619.225,1.252c.09.528.175,1.063.257,1.6q.049.325.1.651c.031.218.062.437.091.656.015.11.03.219.043.329s.03.22.043.331l.042.325s0,.01,0,.014c.013.108.027.217.04.325q.042.333.079.667c.026.222.051.446.076.669.008.07.016.141.023.211.018.153.034.307.049.461.012.112.023.224.035.336s.023.224.033.336c.014.136.027.272.04.407.008.089.017.177.024.266q.085.917.156,1.833c.01.126.02.253.029.379.012.158.024.318.035.476l.024.334c.016.232.031.464.046.695.012.194.024.387.035.581.021.349.04.7.058,1.043.008.164.017.327.024.491s.015.319.022.479q.04.914.067,1.8c0,.118.007.237.011.354,0,.139.008.278.011.416,0,.2.009.392.013.586,0,.034,0,.069,0,.1,0,.1,0,.192.005.288.013.74.018,1.461.018,2.158" transform="translate(-16.268 -60.405)" fill="#fff"/>
          <path id="Tracé_1152" data-name="Tracé 1152" d="M73.64,57.137c-4.094.7,1.313,32.812-9.944,32.812s-5.851-32.114-9.944-32.812c1.948-1.621,4.7-2.779,9.944-2.779s8,1.158,9.944,2.779" transform="translate(-43.407 -43.896)" fill="#fff"/>
          <path id="Tracé_1153" data-name="Tracé 1153" d="M62.337,103.71c-.189,0-.377-.008-.56-.023a.131.131,0,0,1,.022-.26,6.441,6.441,0,0,0,1.112,0,.131.131,0,1,1,.024.26c-.194.018-.4.027-.6.027m-1.656-.226a.126.126,0,0,1-.036-.005,5.481,5.481,0,0,1-1.068-.435.131.131,0,1,1,.124-.23,5.226,5.226,0,0,0,1.017.415.131.131,0,0,1-.036.256m3.35-.011a.131.131,0,0,1-.037-.256,5.216,5.216,0,0,0,1.013-.422.131.131,0,0,1,.125.229,5.474,5.474,0,0,1-1.064.443.126.126,0,0,1-.037.006M58.7,102.428a.13.13,0,0,1-.083-.03,6.857,6.857,0,0,1-.821-.812.131.131,0,1,1,.2-.17,6.609,6.609,0,0,0,.79.781.131.131,0,0,1-.084.231M66,102.4a.131.131,0,0,1-.084-.231,6.661,6.661,0,0,0,.784-.784.131.131,0,1,1,.2.169,6.926,6.926,0,0,1-.816.815A.131.131,0,0,1,66,102.4m-8.78-1.683a.131.131,0,0,1-.11-.06,11.133,11.133,0,0,1-.573-1,.131.131,0,0,1,.233-.119,10.776,10.776,0,0,0,.559.976.13.13,0,0,1-.038.181.128.128,0,0,1-.071.021m10.254-.03a.131.131,0,0,1-.11-.2,10.9,10.9,0,0,0,.556-.977.131.131,0,1,1,.233.118,11.2,11.2,0,0,1-.569,1,.13.13,0,0,1-.11.06m-11.294-2a.131.131,0,0,1-.121-.081c-.139-.34-.274-.7-.4-1.078a.131.131,0,0,1,.248-.083c.125.37.257.727.394,1.062a.131.131,0,0,1-.071.17.129.129,0,0,1-.049.01m12.327-.031a.13.13,0,0,1-.049-.01.131.131,0,0,1-.072-.17c.136-.335.268-.692.392-1.062a.131.131,0,0,1,.248.083c-.125.375-.259.738-.4,1.078a.131.131,0,0,1-.121.081m-13.058-2.13a.131.131,0,0,1-.126-.1c-.1-.354-.195-.728-.285-1.112a.131.131,0,1,1,.254-.06c.089.38.184.75.282,1.1a.131.131,0,0,1-.126.166M69.235,96.5a.131.131,0,0,1-.126-.166c.1-.352.192-.722.281-1.1a.131.131,0,1,1,.254.059c-.089.382-.184.756-.283,1.111a.131.131,0,0,1-.126.1M54.924,94.311a.13.13,0,0,1-.128-.105c-.072-.362-.141-.741-.206-1.127a.131.131,0,0,1,.258-.043c.064.384.133.76.2,1.12a.13.13,0,0,1-.1.153l-.025,0m14.832-.031-.025,0a.131.131,0,0,1-.1-.154c.071-.36.14-.737.2-1.12a.131.131,0,0,1,.258.043c-.064.386-.133.765-.2,1.127a.131.131,0,0,1-.128.105M54.544,92.058a.13.13,0,0,1-.129-.112c-.053-.366-.1-.748-.15-1.135a.131.131,0,0,1,.259-.031c.047.385.1.765.149,1.13a.131.131,0,0,1-.111.148h-.019m15.591-.032h-.018a.131.131,0,0,1-.111-.148c.052-.363.1-.744.149-1.13a.131.131,0,1,1,.259.032c-.047.388-.1.77-.149,1.135a.131.131,0,0,1-.129.112M54.266,89.791a.131.131,0,0,1-.13-.117c-.038-.366-.075-.749-.11-1.139a.131.131,0,1,1,.26-.023c.035.389.072.77.11,1.135a.13.13,0,0,1-.116.143h-.014m16.146-.032H70.4a.13.13,0,0,1-.116-.143c.038-.366.075-.748.109-1.135a.131.131,0,1,1,.26.023c-.035.389-.071.772-.11,1.139a.131.131,0,0,1-.13.117m-16.35-2.244a.131.131,0,0,1-.13-.121q-.044-.57-.082-1.141a.131.131,0,0,1,.261-.018q.038.569.081,1.138a.13.13,0,0,1-.12.14h-.01m16.554-.031H70.6a.131.131,0,0,1-.12-.14q.044-.57.081-1.14a.129.129,0,0,1,.139-.122.131.131,0,0,1,.122.139q-.038.571-.082,1.143a.131.131,0,0,1-.13.121M53.909,85.236a.131.131,0,0,1-.13-.123q-.033-.573-.063-1.142a.131.131,0,1,1,.261-.013q.03.567.063,1.14a.13.13,0,0,1-.123.138h-.008M70.767,85.2h-.008a.131.131,0,0,1-.123-.138q.033-.572.063-1.14a.129.129,0,0,1,.137-.124.13.13,0,0,1,.124.137q-.029.568-.063,1.141a.131.131,0,0,1-.13.123m-16.978-2.25a.131.131,0,0,1-.13-.124q-.027-.576-.053-1.142a.131.131,0,0,1,.125-.137.135.135,0,0,1,.136.125q.025.565.053,1.141a.13.13,0,0,1-.124.137h-.006m17.1-.032H70.88a.131.131,0,0,1-.124-.137q.027-.576.053-1.141a.131.131,0,0,1,.261.012q-.026.566-.053,1.142a.13.13,0,0,1-.13.124m-17.2-2.251a.131.131,0,0,1-.13-.125q-.026-.579-.053-1.141a.131.131,0,0,1,.261-.013q.027.562.053,1.142a.131.131,0,0,1-.125.136h-.006m17.305-.032h-.006a.131.131,0,0,1-.125-.136q.026-.579.053-1.142a.131.131,0,1,1,.261.012q-.027.562-.053,1.141a.131.131,0,0,1-.131.125M53.576,78.388a.13.13,0,0,1-.13-.124q-.031-.584-.065-1.14a.131.131,0,0,1,.261-.016q.035.557.065,1.142a.131.131,0,0,1-.124.138h-.007M71.1,78.356h-.007a.13.13,0,0,1-.124-.137q.031-.585.065-1.143a.131.131,0,0,1,.261.016q-.035.556-.065,1.14a.13.13,0,0,1-.13.124m-17.669-2.25a.131.131,0,0,1-.13-.121c-.031-.4-.065-.787-.1-1.136a.131.131,0,1,1,.26-.026c.035.351.069.735.1,1.142a.13.13,0,0,1-.12.14h-.01m17.813-.032h-.01a.131.131,0,0,1-.12-.14c.032-.414.065-.788.1-1.142a.131.131,0,1,1,.26.026c-.036.352-.069.724-.1,1.136a.131.131,0,0,1-.13.12M53.2,73.832a.131.131,0,0,1-.129-.113c-.057-.41-.12-.787-.188-1.119a.131.131,0,1,1,.256-.052c.069.338.133.72.191,1.136a.13.13,0,0,1-.111.147l-.018,0M71.481,73.8l-.018,0a.131.131,0,0,1-.111-.147c.058-.416.123-.8.193-1.136a.131.131,0,1,1,.256.053c-.069.332-.133.708-.19,1.119a.131.131,0,0,1-.129.113M52.718,71.6a.131.131,0,0,1-.124-.088,3.006,3.006,0,0,0-.494-.957.131.131,0,0,1,.2-.169,3.2,3.2,0,0,1,.542,1.041.13.13,0,0,1-.081.166.125.125,0,0,1-.042.007m19.249-.032a.131.131,0,0,1-.123-.174A3.09,3.09,0,0,1,72.4,70.36a.131.131,0,1,1,.2.173,2.887,2.887,0,0,0-.5.949.13.13,0,0,1-.123.087" transform="translate(-42.048 -56.783)" fill="#fff"/>
          <path id="Tracé_1154" data-name="Tracé 1154" d="M165.951,140.7c0,.173,0,.344,0,.514-.028,4.874-.388,8.482-.958,9.137-.819.941-2.478,1.59-4.69,2.022-1.222-15.846,2.4-31.182,3.388-34.973a113.173,113.173,0,0,1,2.261,23.3" transform="translate(-129.25 -94.803)" fill="#fff"/>
          <path id="Tracé_1155" data-name="Tracé 1155" d="M20.145,140.7c0,.173,0,.344,0,.514.028,4.874.388,8.482.958,9.137.819.941,2.478,1.59,4.69,2.022,1.222-15.846-2.4-31.182-3.388-34.973a113.175,113.175,0,0,0-2.261,23.3" transform="translate(-16.267 -94.803)" fill="#fff"/>
          <path id="Tracé_1156" data-name="Tracé 1156" d="M49.786,94.333l-.031,0a.174.174,0,0,1-.14-.2c.056-.31.108-.666.156-1.06a.174.174,0,1,1,.346.042c-.049.4-.1.763-.159,1.08a.174.174,0,0,1-.171.143m-33.042-.02a.174.174,0,0,1-.171-.143c-.057-.317-.11-.68-.158-1.08a.174.174,0,0,1,.346-.042c.047.393.1.75.155,1.06a.174.174,0,0,1-.141.2.167.167,0,0,1-.031,0m33.311-2.126h-.015A.174.174,0,0,1,49.881,92c.03-.338.057-.7.081-1.074a.172.172,0,0,1,.185-.162.174.174,0,0,1,.163.185c-.024.378-.052.742-.082,1.082a.174.174,0,0,1-.173.159m-33.578-.02a.174.174,0,0,1-.173-.159c-.03-.339-.057-.7-.082-1.082a.174.174,0,0,1,.163-.185.172.172,0,0,1,.185.162c.024.376.052.738.081,1.075a.174.174,0,0,1-.158.189h-.015M50.2,90.03h-.008a.174.174,0,0,1-.166-.182c.017-.348.031-.711.043-1.078a.174.174,0,1,1,.348.011c-.012.369-.027.733-.043,1.083a.174.174,0,0,1-.174.166m-33.86-.02a.174.174,0,0,1-.174-.166c-.016-.347-.031-.712-.043-1.083a.174.174,0,0,1,.348-.011c.012.37.027.732.043,1.078a.174.174,0,0,1-.166.182h-.008m33.932-2.142h0a.174.174,0,0,1-.171-.178q.011-.528.016-1.079a.174.174,0,0,1,.174-.172h0a.174.174,0,0,1,.172.176q-.005.553-.016,1.083a.174.174,0,0,1-.174.171m-34-.019a.174.174,0,0,1-.174-.171q-.011-.529-.016-1.083a.174.174,0,0,1,.172-.176h0a.174.174,0,0,1,.174.172q.005.551.016,1.079a.174.174,0,0,1-.171.178h0m34.024-2.143a.174.174,0,0,1-.174-.174v-.041q0-.512,0-1.039a.174.174,0,0,1,.173-.176h0a.174.174,0,0,1,.174.173q0,.529,0,1.042v.041a.174.174,0,0,1-.174.174m-34.045-.02a.174.174,0,0,1-.174-.174v-.031q0-.518,0-1.052a.174.174,0,0,1,.174-.173h0a.174.174,0,0,1,.173.176q0,.532,0,1.049v.031a.174.174,0,0,1-.174.174M50.27,83.543a.174.174,0,0,1-.174-.171q-.009-.534-.023-1.08a.174.174,0,0,1,.348-.009q.014.547.023,1.083a.174.174,0,0,1-.171.177h0m-34.007-.021h0a.174.174,0,0,1-.171-.177q.009-.536.023-1.083a.174.174,0,0,1,.174-.17h0a.174.174,0,0,1,.17.179q-.014.546-.023,1.08a.174.174,0,0,1-.174.171M50.215,81.38a.174.174,0,0,1-.174-.168q-.018-.536-.04-1.08a.174.174,0,0,1,.167-.181.172.172,0,0,1,.181.167q.023.545.04,1.082a.174.174,0,0,1-.168.18h-.006m-33.9-.022h-.006a.174.174,0,0,1-.168-.18q.018-.537.041-1.083a.174.174,0,0,1,.348.014q-.023.544-.04,1.08a.174.174,0,0,1-.174.168m33.808-2.139a.174.174,0,0,1-.174-.166q-.026-.536-.057-1.079a.174.174,0,1,1,.348-.02q.031.543.057,1.081a.174.174,0,0,1-.166.182h-.009M16.408,79.2H16.4a.174.174,0,0,1-.166-.182q.027-.538.057-1.082a.174.174,0,0,1,.348.02q-.031.542-.057,1.079a.174.174,0,0,1-.174.166M50,77.059a.174.174,0,0,1-.174-.163q-.035-.538-.074-1.079a.174.174,0,0,1,.347-.025q.039.542.074,1.082a.174.174,0,0,1-.163.185H50M16.53,77.035h-.011a.174.174,0,0,1-.163-.185q.035-.539.074-1.081a.174.174,0,0,1,.347.025q-.039.541-.074,1.078a.174.174,0,0,1-.174.163M49.848,74.9a.174.174,0,0,1-.173-.16q-.043-.538-.091-1.077a.174.174,0,0,1,.347-.031q.048.54.091,1.08a.174.174,0,0,1-.16.187h-.014m-33.162-.02h-.014a.174.174,0,0,1-.16-.187q.043-.539.091-1.079a.174.174,0,0,1,.347.031q-.048.539-.091,1.076a.174.174,0,0,1-.173.16m32.971-2.136a.174.174,0,0,1-.173-.157q-.052-.538-.109-1.074a.174.174,0,1,1,.346-.037q.057.538.11,1.077a.174.174,0,0,1-.156.19h-.017m-32.78-.02H16.86a.174.174,0,0,1-.156-.19q.053-.541.11-1.08a.174.174,0,1,1,.346.037q-.057.538-.11,1.077a.174.174,0,0,1-.173.157m32.551-2.13a.174.174,0,0,1-.173-.154q-.062-.537-.129-1.071a.174.174,0,0,1,.345-.043q.067.535.129,1.075a.174.174,0,0,1-.153.193h-.02m-32.322-.024h-.02a.174.174,0,0,1-.153-.193q.063-.54.13-1.076a.174.174,0,1,1,.345.043q-.067.534-.129,1.073a.174.174,0,0,1-.173.154m32.053-2.121a.174.174,0,0,1-.172-.151q-.073-.538-.151-1.069a.174.174,0,0,1,.345-.051q.079.533.152,1.073a.174.174,0,0,1-.149.2l-.024,0m-31.783-.027-.024,0a.174.174,0,0,1-.149-.2q.074-.539.152-1.073a.174.174,0,0,1,.345.051q-.079.532-.152,1.069a.174.174,0,0,1-.172.151m31.467-2.113a.174.174,0,0,1-.172-.147q-.086-.537-.177-1.065a.174.174,0,1,1,.343-.059q.092.53.178,1.069a.174.174,0,0,1-.145.2l-.028,0m-31.15-.028-.028,0a.174.174,0,0,1-.144-.2q.086-.54.178-1.07a.174.174,0,1,1,.343.059q-.092.528-.177,1.065a.174.174,0,0,1-.172.147m30.781-2.1a.174.174,0,0,1-.171-.142c-.068-.36-.137-.716-.207-1.059a.174.174,0,0,1,.341-.07c.07.345.14.7.208,1.064a.174.174,0,0,1-.139.2.169.169,0,0,1-.032,0m-30.41-.028-.032,0a.174.174,0,0,1-.139-.2c.068-.36.138-.718.209-1.065a.174.174,0,0,1,.341.07c-.07.345-.14.7-.208,1.059a.174.174,0,0,1-.171.142M48.04,62.057a.174.174,0,0,1-.17-.136q-.048-.214-.1-.425-.073-.315-.148-.625a.174.174,0,1,1,.339-.082q.076.311.149.628.049.213.1.428a.174.174,0,0,1-.132.208.171.171,0,0,1-.038,0M18.5,62.028a.183.183,0,0,1-.038,0,.174.174,0,0,1-.132-.208c.08-.359.163-.714.246-1.057a.174.174,0,0,1,.338.083c-.083.341-.166.694-.245,1.05a.174.174,0,0,1-.17.136m29.031-2.072a.174.174,0,0,1-.168-.129c-.095-.355-.193-.7-.291-1.037a.174.174,0,1,1,.334-.1c.1.336.2.687.293,1.045a.174.174,0,0,1-.168.219m-28.517-.03a.174.174,0,0,1-.168-.219c.1-.359.2-.711.295-1.046a.174.174,0,1,1,.334.1c-.1.332-.2.681-.292,1.037a.174.174,0,0,1-.168.129m27.9-2.043a.174.174,0,0,1-.165-.12c-.115-.35-.234-.692-.354-1.015a.174.174,0,1,1,.327-.121c.121.327.242.672.358,1.027a.175.175,0,0,1-.166.229m-27.288-.031a.174.174,0,0,1-.165-.229c.117-.355.238-.7.36-1.027a.174.174,0,0,1,.326.121c-.12.323-.24.665-.355,1.015a.174.174,0,0,1-.165.12m26.534-2A.174.174,0,0,1,46,55.75c-.145-.342-.294-.669-.445-.974a.174.174,0,0,1,.312-.154c.153.311.306.645.453.993a.174.174,0,0,1-.16.242m-25.777-.031a.174.174,0,0,1-.16-.242c.148-.347.3-.681.455-.992a.174.174,0,1,1,.312.155c-.151.305-.3.633-.447.974a.174.174,0,0,1-.16.106m24.815-1.9a.174.174,0,0,1-.15-.085,10.006,10.006,0,0,0-.587-.885.174.174,0,0,1,.279-.208,10.38,10.38,0,0,1,.607.916.174.174,0,0,1-.15.263m-23.848-.03a.174.174,0,0,1-.149-.263,10.318,10.318,0,0,1,.61-.914.174.174,0,0,1,.278.209,10.012,10.012,0,0,0-.589.883.174.174,0,0,1-.15.085M43.9,52.2a.173.173,0,0,1-.122-.05c-.1-.1-.2-.191-.305-.276-.166-.138-.336-.272-.507-.4a.174.174,0,1,1,.207-.28c.176.13.352.268.523.411.109.091.219.19.326.3a.174.174,0,0,1-.122.3M22.66,52.182a.174.174,0,0,1-.121-.3c.1-.1.2-.188.3-.272.179-.149.364-.294.549-.43a.174.174,0,1,1,.206.281c-.18.132-.359.272-.532.416-.094.079-.19.165-.283.255a.174.174,0,0,1-.121.049m19.5-1.263a.174.174,0,0,1-.088-.024,10.619,10.619,0,0,0-.942-.493.174.174,0,0,1,.146-.316,10.963,10.963,0,0,1,.973.509.174.174,0,0,1-.089.324M24.4,50.9a.174.174,0,0,1-.088-.324,10.953,10.953,0,0,1,.974-.506.174.174,0,1,1,.145.316c-.324.149-.642.314-.943.49a.174.174,0,0,1-.088.024m15.809-.891a.176.176,0,0,1-.058-.01c-.325-.115-.668-.222-1.019-.316a.174.174,0,1,1,.09-.336c.36.1.711.206,1.045.324a.174.174,0,0,1-.058.338M26.357,50a.174.174,0,0,1-.058-.338c.334-.118.685-.226,1.046-.322a.174.174,0,0,1,.089.337c-.352.094-.695.2-1.02.313a.174.174,0,0,1-.058.01m11.764-.553a.186.186,0,0,1-.034,0c-.339-.067-.694-.126-1.056-.176a.174.174,0,1,1,.048-.345c.369.051.73.112,1.076.18a.174.174,0,0,1-.033.345m-9.678-.006a.174.174,0,0,1-.033-.345c.345-.067.707-.127,1.076-.178a.174.174,0,0,1,.047.345c-.363.05-.718.109-1.056.175a.183.183,0,0,1-.034,0m7.539-.294h-.016c-.346-.031-.706-.056-1.071-.074a.174.174,0,0,1,.017-.348c.37.018.735.044,1.085.076a.174.174,0,0,1-.015.348m-5.4,0a.174.174,0,0,1-.015-.348c.351-.031.716-.056,1.085-.074a.174.174,0,0,1,.017.348c-.365.018-.725.042-1.071.073h-.016m3.24-.107h0c-.353-.005-.722-.006-1.075,0h0a.174.174,0,0,1,0-.348c.357-.005.73-.005,1.086,0a.174.174,0,0,1,0,.348" transform="translate(-12.977 -39.315)" fill="#fff"/>
          <path id="Tracé_1157" data-name="Tracé 1157" d="M77.278,6.7c-1.336,0-2.161-1.06-3.035-2.182-1.1-1.41-2.232-2.867-4.546-2.867-2.465,0-3.872,1.645-5.115,3.1C63.686,5.8,62.911,6.7,61.839,6.7a.827.827,0,0,1,0-1.654c.311,0,.962-.762,1.487-1.374C64.653,2.125,66.471,0,69.7,0c3.123,0,4.7,2.026,5.852,3.506.645.829,1.2,1.544,1.73,1.544a.827.827,0,0,1,0,1.654" transform="translate(-49.27 -0.001)" fill="#fff"/>
          <path id="Tracé_1158" data-name="Tracé 1158" d="M94.643,173.07a2.568,2.568,0,0,1-2.568-2.568v-3.853l2.568-.218,2.568.218V170.5a2.568,2.568,0,0,1-2.568,2.568" transform="translate(-74.354 -134.4)" fill="#fff"/>
          <path id="Tracé_1159" data-name="Tracé 1159" d="M97.385,175.769a1.915,1.915,0,0,1-1.915-1.915v-2.873l1.915-.162,1.915.162v2.873a1.915,1.915,0,0,1-1.915,1.915" transform="translate(-77.096 -137.943)" fill="#fff"/>
        </g>
      </g>
      <g id="Groupe_557" data-name="Groupe 557" transform="translate(856 156)">
        <g id="Groupe_547-2" data-name="Groupe 547" clip-path="url(#clip-path-3)">
          <path id="Tracé_1117-2" data-name="Tracé 1117" d="M8.165,6.646c-1.719,1.054-.821,9.6.755,14.679l3.625-1.1S9.877,8.907,10.932,7.327A9.574,9.574,0,0,1,12.78,5.145Z" transform="translate(-5.902 -4.198)" fill="#001192"/>
          <path id="Tracé_1118-2" data-name="Tracé 1118" d="M20.734,9.609a25.447,25.447,0,0,0-1.615-5.85C17.944,1.4,14.545,2.821,12.3,4.5c0,0,2.365-.189,3.009,1.618a28.836,28.836,0,0,1,1.255,5.449Z" transform="translate(-10.038 -2.052)" fill="#686eec"/>
          <path id="Tracé_1119-2" data-name="Tracé 1119" d="M178.908,6.646c1.719,1.054.821,9.6-.755,14.679l-3.625-1.1s2.668-11.323,1.613-12.9a9.574,9.574,0,0,0-1.849-2.182Z" transform="translate(-142.227 -4.198)" fill="#001192"/>
          <path id="Tracé_1120-2" data-name="Tracé 1120" d="M153.54,9.609a25.447,25.447,0,0,1,1.615-5.85c1.175-2.359,4.575-.938,6.819.74,0,0-2.365-.189-3.009,1.618a28.836,28.836,0,0,0-1.255,5.449Z" transform="translate(-125.293 -2.052)" fill="#686eec"/>
          <path id="Tracé_1121-2" data-name="Tracé 1121" d="M38.789,58.006c0,.189,0,.376,0,.561-.033,5.315-.459,9.25-1.132,9.963-2.223,2.357-9.687,3.03-18.26,3.03s-16.037-.673-18.26-3.03C.461,67.817.035,63.882,0,58.567c0-.185,0-.372,0-.561,0-2.541.079-5.371.264-8.3.038-.585.078-1.175.123-1.767C1.206,37.2,3.4,25.664,7.645,22.4c2.3-1.768,5.558-3.03,11.75-3.03s9.448,1.262,11.75,3.03c4.285,3.289,6.476,15,7.277,25.806q.067.9.121,1.782c.172,2.829.251,5.559.246,8.016" transform="translate(0 -15.808)" fill="#686eec"/>
          <path id="Tracé_1122-2" data-name="Tracé 1122" d="M38.445,173.94c-.307-.174-.611-.353-.919-.523.561,5.474.544,15.4-.885,19.3-2.171,5.924-28.477,4.236-32.992,1.553-4.136-2.457-1.729-21.236-1.729-21.236-.062.054-1.447,1.324-1.615,1.438-.014.208-.028.417-.042.624C.079,178.027,0,180.858,0,183.4c0,.189,0,.376,0,.561.033,5.315.46,9.25,1.133,9.963,2.223,2.357,9.686,3.03,18.26,3.03s16.037-.673,18.26-3.03c.673-.713,1.1-4.648,1.132-9.963,0-.185,0-.372,0-.561,0-2.458-.074-5.187-.246-8.016q-.043-.717-.1-1.442" transform="translate(0.001 -141.2)" fill="#001192"/>
          <path id="Tracé_1123-2" data-name="Tracé 1123" d="M42.7,58.162a93.065,93.065,0,0,0-1.794-11.54c-1.186-5.15-2.741-8.644-4.5-10.106-1.659-1.381-4.374-2.967-10.7-2.967s-9.042,1.586-10.7,2.967c-2.9,2.414-5.127,10.051-6.276,21.5l-.994-.1a85.288,85.288,0,0,1,2.3-13.512c1.175-4.329,2.633-7.243,4.334-8.66,2.656-2.213,6.154-3.2,11.34-3.2s8.683.986,11.339,3.2C39,37.374,40.629,40.957,41.882,46.4A94.094,94.094,0,0,1,43.7,58.063Z" transform="translate(-6.318 -26.561)" fill="#001192"/>
          <path id="Tracé_1124-2" data-name="Tracé 1124" d="M186.676,162.462a18.467,18.467,0,0,0-4.979-3.888l-.167-1.373a13.066,13.066,0,0,1,5.025,3.479q.067.9.121,1.782" transform="translate(-148.133 -128.28)" fill="#001192"/>
          <path id="Tracé_1125-2" data-name="Tracé 1125" d="M6.317,157.2l-.166,1.373a18.435,18.435,0,0,0-4.715,3.6q.056-.878.123-1.767A12.6,12.6,0,0,1,6.317,157.2" transform="translate(-1.171 -128.279)" fill="#001192"/>
          <path id="Tracé_1126-2" data-name="Tracé 1126" d="M51.522,88.228c0,.166,0,.329,0,.492-.027,4.659-.371,8.108-.915,8.734-.783.9-2.369,1.52-4.483,1.932a57.188,57.188,0,0,1-10.288.724c-6.937,0-12.974-.59-14.772-2.656-.545-.626-.889-4.075-.916-8.734,0-.163,0-.326,0-.492-.016-10.741,1.608-27.407,6.183-31.213,1.863-1.55,4.5-2.657,9.506-2.657s7.643,1.107,9.505,2.657c1.747,1.453,3.064,4.783,4.022,8.941a108.185,108.185,0,0,1,2.161,22.272" transform="translate(-16.438 -44.358)" fill="#686eec"/>
          <path id="Tracé_1127-2" data-name="Tracé 1127" d="M51.522,104.91c0,.166,0,.329,0,.492-.027,4.659-.371,8.108-.915,8.734-.783.9-2.369,1.52-4.483,1.932a57.188,57.188,0,0,1-10.288.724,57.184,57.184,0,0,1-10.288-.724c-.605-.118-1.167-.253-1.679-.407-.093-.028-.186-.057-.275-.086l-.191-.064-.152-.054L23.1,115.4l-.01,0-.141-.056-.144-.059c-.095-.039-.187-.08-.276-.122-.049-.022-.1-.046-.144-.069l-.089-.045-.049-.026-.1-.055c-.082-.044-.16-.09-.236-.137-.038-.023-.076-.047-.112-.071-.069-.045-.137-.092-.2-.14l-.013-.01c-.028-.021-.056-.042-.082-.063a.132.132,0,0,1-.017-.013c-.024-.019-.048-.038-.071-.058l-.031-.026c-.026-.022-.051-.043-.075-.066l0,0c-.028-.024-.053-.049-.079-.074-.057-.056-.11-.111-.16-.169a.919.919,0,0,1-.124-.2c-.016-.033-.032-.069-.047-.107s-.031-.079-.046-.122-.031-.089-.045-.138-.029-.1-.044-.152c-.028-.107-.056-.223-.083-.349l-.02-.1c-.026-.131-.052-.27-.077-.419s-.048-.306-.071-.472c-.011-.083-.022-.168-.033-.256-.027-.217-.052-.448-.077-.691-.015-.146-.028-.3-.042-.45-.036-.412-.066-.853-.093-1.321-.007-.117-.013-.236-.019-.356s-.012-.242-.017-.366c-.008-.185-.016-.374-.023-.566s-.014-.388-.019-.587c-.02-.662-.032-1.361-.036-2.089,0-.082,0-.163,0-.245s0-.165,0-.247c0-.152,0-.3,0-.458,0-.091,0-.181,0-.273,0-.225,0-.452.006-.682,0-.107,0-.215,0-.324l0-.327c0-.109,0-.219.006-.329,0-.141.006-.281.009-.423q.006-.25.013-.5t.015-.507c0-.085,0-.17.008-.256,0-.112.008-.226.012-.339q.012-.343.026-.692.016-.391.035-.786c.01-.2.02-.411.031-.617.007-.118.013-.236.019-.355q.03-.532.063-1.07.011-.179.023-.359.059-.9.132-1.8C21.2,86.75,22.678,78.438,25.32,74.8a26.037,26.037,0,0,0-1.961,7.454c-.132.933-.261,2-.381,3.172-.974,9.406-1.476,25.195.22,27.194a5.82,5.82,0,0,0,2.463,1.668,16.967,16.967,0,0,0,5.466.741c7.49.161,12.137-.448,14.855-1.216,1.927-.545,2.885-1.17,3.2-1.661,1.609-2.5,1.239-9.362,1.232-11.175-.014-3.907-.242-7.791-.49-11.689-.092-1.437-.047-2.879-.078-4.318q.111.592.215,1.2c.086.5.167,1.016.245,1.532q.046.311.092.623c.03.208.059.418.087.628.014.1.028.21.042.314s.028.211.042.316l.04.311s0,.009,0,.013c.013.1.026.207.038.31q.04.318.076.637c.025.212.049.426.072.639.007.067.015.135.022.2.017.146.033.294.047.44.012.107.022.214.033.321s.022.214.032.321c.013.13.026.26.038.389.007.085.016.169.023.254q.081.876.149,1.752c.009.12.019.241.027.362.012.151.023.3.033.455l.023.32c.016.222.03.444.044.664.012.186.023.37.033.555.02.334.038.667.056,1,.008.156.016.313.023.469s.014.305.021.458q.039.874.064,1.725c0,.113.007.226.01.339,0,.133.007.266.011.4,0,.188.008.375.012.56,0,.032,0,.066,0,.1,0,.092,0,.184,0,.276.013.707.018,1.4.017,2.063" transform="translate(-16.439 -61.04)" fill="#686eec"/>
          <path id="Tracé_1128-2" data-name="Tracé 1128" d="M72.763,57.015c-3.913.667,1.255,31.365-9.505,31.365s-5.593-30.7-9.506-31.365c1.863-1.55,4.5-2.657,9.506-2.657s7.643,1.107,9.505,2.657" transform="translate(-43.863 -44.358)" fill="#9da1fa"/>
          <path id="Tracé_1129-2" data-name="Tracé 1129" d="M61.885,102.238c-.181,0-.361-.008-.535-.022a.125.125,0,0,1,.021-.249,6.156,6.156,0,0,0,1.063,0,.125.125,0,1,1,.023.249c-.186.017-.378.026-.571.026m-1.583-.216a.121.121,0,0,1-.035,0,5.24,5.24,0,0,1-1.021-.416.125.125,0,0,1,.118-.22,5,5,0,0,0,.972.4.125.125,0,0,1-.035.245m3.2-.011a.125.125,0,0,1-.036-.245,4.986,4.986,0,0,0,.968-.4.125.125,0,0,1,.12.219,5.233,5.233,0,0,1-1.017.423.12.12,0,0,1-.036.005m-5.093-1a.124.124,0,0,1-.079-.029,6.555,6.555,0,0,1-.785-.776.125.125,0,0,1,.189-.163,6.316,6.316,0,0,0,.755.747.125.125,0,0,1-.08.221m6.975-.024a.125.125,0,0,1-.08-.221,6.368,6.368,0,0,0,.75-.75.125.125,0,1,1,.19.162,6.62,6.62,0,0,1-.78.779.125.125,0,0,1-.08.029m-8.393-1.609a.125.125,0,0,1-.105-.057,10.641,10.641,0,0,1-.548-.956.125.125,0,1,1,.223-.113,10.3,10.3,0,0,0,.535.933.125.125,0,0,1-.037.173.123.123,0,0,1-.068.02m9.8-.029a.125.125,0,0,1-.1-.192,10.422,10.422,0,0,0,.532-.934.125.125,0,1,1,.223.113,10.7,10.7,0,0,1-.544.956.124.124,0,0,1-.105.057M56,97.443a.125.125,0,0,1-.116-.077c-.133-.325-.262-.671-.382-1.03a.125.125,0,0,1,.237-.08c.119.354.246.7.377,1.015a.125.125,0,0,1-.068.163.123.123,0,0,1-.047.009m11.783-.03a.124.124,0,0,1-.047-.009.125.125,0,0,1-.069-.163c.13-.32.256-.662.375-1.015a.125.125,0,0,1,.237.079c-.12.359-.248.706-.38,1.03a.125.125,0,0,1-.116.078M55.3,95.377a.125.125,0,0,1-.12-.091c-.095-.339-.186-.7-.272-1.063a.125.125,0,1,1,.243-.057c.085.363.176.717.27,1.052a.125.125,0,0,1-.12.158m13.178-.03a.125.125,0,0,1-.12-.158c.093-.336.184-.69.268-1.052a.125.125,0,1,1,.243.057c-.085.365-.176.723-.271,1.062a.125.125,0,0,1-.12.091M54.8,93.253a.125.125,0,0,1-.122-.1c-.069-.346-.135-.709-.2-1.078a.125.125,0,0,1,.246-.041c.062.367.127.727.2,1.071a.125.125,0,0,1-.1.147l-.024,0m14.178-.03-.024,0a.125.125,0,0,1-.1-.147c.068-.344.133-.7.195-1.071a.125.125,0,0,1,.246.041c-.062.369-.127.731-.2,1.078a.125.125,0,0,1-.122.1M54.435,91.1a.125.125,0,0,1-.123-.107c-.05-.35-.1-.715-.144-1.085a.125.125,0,0,1,.248-.03c.045.368.093.731.143,1.08a.125.125,0,0,1-.106.141h-.018m14.9-.03h-.018a.125.125,0,0,1-.106-.141c.049-.347.1-.711.142-1.08a.125.125,0,1,1,.248.03c-.045.371-.093.736-.143,1.085a.125.125,0,0,1-.123.107M54.169,88.932a.125.125,0,0,1-.124-.112c-.036-.35-.072-.716-.105-1.089a.125.125,0,1,1,.249-.022c.033.371.068.736.1,1.085a.125.125,0,0,1-.111.137h-.013M69.6,88.9H69.59a.125.125,0,0,1-.111-.137c.036-.35.071-.715.1-1.085a.125.125,0,1,1,.249.022c-.033.371-.068.738-.1,1.089a.125.125,0,0,1-.124.112M53.974,86.757a.125.125,0,0,1-.124-.115q-.042-.545-.078-1.09a.125.125,0,0,1,.249-.017q.036.544.078,1.088a.125.125,0,0,1-.115.134h-.01m15.824-.03h-.01a.125.125,0,0,1-.115-.134q.042-.545.078-1.09a.123.123,0,0,1,.133-.116.125.125,0,0,1,.116.133q-.036.546-.078,1.092a.125.125,0,0,1-.124.115m-15.97-2.149a.125.125,0,0,1-.125-.118q-.032-.548-.06-1.091a.125.125,0,1,1,.249-.013q.028.542.06,1.09a.125.125,0,0,1-.117.132h-.007m16.115-.031h-.008a.125.125,0,0,1-.117-.132q.032-.547.06-1.09a.123.123,0,0,1,.131-.118.125.125,0,0,1,.118.131q-.028.543-.06,1.091a.125.125,0,0,1-.124.118M53.714,82.4a.125.125,0,0,1-.125-.119q-.026-.551-.05-1.092a.125.125,0,0,1,.119-.131.129.129,0,0,1,.13.119q.024.54.05,1.091a.125.125,0,0,1-.119.131h-.006m16.343-.031h-.006a.125.125,0,0,1-.119-.131q.026-.55.05-1.091a.126.126,0,0,1,.13-.119.125.125,0,0,1,.119.13q-.025.541-.05,1.092a.125.125,0,0,1-.125.119M53.614,80.214a.125.125,0,0,1-.125-.119q-.025-.554-.05-1.091a.125.125,0,0,1,.249-.012q.025.537.05,1.092a.125.125,0,0,1-.119.13h-.006m16.542-.03H70.15a.125.125,0,0,1-.119-.13q.025-.554.05-1.091a.125.125,0,1,1,.249.012q-.025.537-.05,1.091a.125.125,0,0,1-.125.119M53.509,78.032a.125.125,0,0,1-.125-.118q-.029-.558-.062-1.09a.125.125,0,0,1,.249-.016q.033.533.062,1.092a.125.125,0,0,1-.118.132h-.007M70.261,78h-.007a.124.124,0,0,1-.118-.131q.03-.559.063-1.092a.124.124,0,0,1,.132-.117.125.125,0,0,1,.117.132q-.033.531-.063,1.09a.125.125,0,0,1-.125.118m-16.889-2.15a.125.125,0,0,1-.124-.115c-.03-.387-.062-.752-.1-1.086a.125.125,0,1,1,.248-.025c.034.335.066.7.1,1.092a.125.125,0,0,1-.115.134h-.01M70.4,75.82h-.01a.125.125,0,0,1-.115-.134c.031-.4.063-.753.1-1.092a.125.125,0,1,1,.249.025c-.034.337-.066.692-.1,1.086a.125.125,0,0,1-.124.115M53.148,73.677a.125.125,0,0,1-.123-.108c-.054-.392-.115-.752-.18-1.07a.125.125,0,1,1,.245-.05c.066.323.127.688.182,1.086a.125.125,0,0,1-.107.141h-.017m17.478-.031h-.017A.125.125,0,0,1,70.5,73.5c.055-.4.117-.763.184-1.086a.125.125,0,1,1,.244.051c-.066.317-.127.677-.181,1.069a.125.125,0,0,1-.124.108m-17.936-2.1a.125.125,0,0,1-.118-.084,2.873,2.873,0,0,0-.472-.915.125.125,0,0,1,.19-.161,3.062,3.062,0,0,1,.518,1,.124.124,0,0,1-.077.159.119.119,0,0,1-.04.007m18.4-.03a.125.125,0,0,1-.118-.166,2.954,2.954,0,0,1,.53-.99.125.125,0,1,1,.187.165,2.759,2.759,0,0,0-.481.907.125.125,0,0,1-.118.084" transform="translate(-42.49 -57.38)" fill="#001192"/>
          <path id="Tracé_1130-2" data-name="Tracé 1130" d="M165.691,139.669c0,.166,0,.329,0,.492-.027,4.659-.371,8.108-.915,8.734-.783.9-2.369,1.52-4.483,1.932-1.168-15.147,2.3-29.807,3.239-33.43a108.184,108.184,0,0,1,2.161,22.272" transform="translate(-130.608 -95.799)" fill="#001192"/>
          <path id="Tracé_1132-2" data-name="Tracé 1132" d="M20.145,139.669c0,.166,0,.329,0,.492.027,4.659.371,8.108.915,8.734.783.9,2.369,1.52,4.483,1.932,1.168-15.147-2.3-29.807-3.239-33.43a108.184,108.184,0,0,0-2.161,22.272" transform="translate(-16.438 -95.799)" fill="#001192"/>
          <path id="Tracé_1135-2" data-name="Tracé 1135" d="M48.3,92.32l-.03,0a.166.166,0,0,1-.134-.193c.053-.3.1-.637.149-1.013a.166.166,0,1,1,.33.04c-.046.382-.1.73-.152,1.032a.167.167,0,0,1-.164.137M16.714,92.3a.166.166,0,0,1-.164-.137c-.054-.3-.1-.65-.151-1.032a.166.166,0,1,1,.331-.04c.045.376.1.717.148,1.013a.167.167,0,0,1-.135.193l-.029,0m31.842-2.032h-.015a.167.167,0,0,1-.151-.18c.029-.323.055-.668.078-1.027a.164.164,0,0,1,.177-.155.166.166,0,0,1,.155.177c-.023.361-.05.709-.078,1.034a.166.166,0,0,1-.166.152m-32.1-.019a.166.166,0,0,1-.166-.152c-.028-.324-.054-.672-.078-1.034a.166.166,0,0,1,.155-.177.164.164,0,0,1,.177.155c.023.36.049.705.077,1.027a.167.167,0,0,1-.151.18h-.015m32.232-2.044h-.008a.166.166,0,0,1-.158-.174c.016-.333.029-.679.041-1.03a.166.166,0,1,1,.333.011c-.012.353-.026.7-.041,1.035a.167.167,0,0,1-.166.159m-32.367-.019a.167.167,0,0,1-.166-.159c-.016-.332-.029-.68-.041-1.035a.166.166,0,0,1,.333-.011c.012.353.025.7.041,1.03a.166.166,0,0,1-.159.174h-.008M48.76,86.14h0a.166.166,0,0,1-.163-.17q.01-.5.015-1.032a.166.166,0,0,1,.166-.165h0a.166.166,0,0,1,.165.168q0,.528-.015,1.035a.166.166,0,0,1-.166.163m-32.5-.019a.166.166,0,0,1-.166-.163q-.01-.506-.015-1.035a.167.167,0,0,1,.165-.168h0a.167.167,0,0,1,.166.165q0,.527.015,1.032a.166.166,0,0,1-.163.17h0M48.78,84.073a.166.166,0,0,1-.166-.166v-.039q0-.489,0-.993a.167.167,0,0,1,.165-.168h0a.167.167,0,0,1,.166.165q0,.505,0,1v.039a.166.166,0,0,1-.166.166m-32.544-.019a.166.166,0,0,1-.166-.166v-.03q0-.5,0-1.006a.166.166,0,0,1,.166-.165h0a.167.167,0,0,1,.165.168q0,.509,0,1v.03a.166.166,0,0,1-.166.166m32.526-2.049a.167.167,0,0,1-.166-.164q-.009-.51-.022-1.032a.166.166,0,0,1,.333-.008q.014.523.022,1.035a.167.167,0,0,1-.164.169h0m-32.508-.02h0a.166.166,0,0,1-.164-.169q.009-.512.022-1.036a.167.167,0,0,1,.166-.162h0a.166.166,0,0,1,.162.171q-.013.522-.022,1.033a.166.166,0,0,1-.166.164M48.71,79.938a.167.167,0,0,1-.166-.161q-.017-.512-.038-1.032a.167.167,0,0,1,.16-.173.165.165,0,0,1,.173.16q.022.521.039,1.034a.167.167,0,0,1-.161.172H48.71m-32.4-.021H16.3a.167.167,0,0,1-.161-.172q.017-.513.039-1.035a.166.166,0,0,1,.333.014q-.022.52-.039,1.032a.167.167,0,0,1-.166.161m32.317-2.045a.166.166,0,0,1-.166-.158q-.025-.513-.054-1.031a.166.166,0,1,1,.332-.019q.03.519.055,1.034a.166.166,0,0,1-.158.174h-.008M16.393,77.85h-.008a.167.167,0,0,1-.158-.174q.025-.514.055-1.034a.166.166,0,0,1,.332.019q-.029.519-.054,1.032a.167.167,0,0,1-.166.158m32.115-2.042a.167.167,0,0,1-.166-.156q-.033-.514-.07-1.032A.166.166,0,0,1,48.6,74.6q.038.519.071,1.034a.166.166,0,0,1-.155.177h-.011m-32-.023H16.5a.166.166,0,0,1-.155-.177q.033-.515.071-1.033a.166.166,0,0,1,.332.024q-.037.517-.07,1.031a.166.166,0,0,1-.166.156m31.849-2.042a.166.166,0,0,1-.166-.153q-.041-.515-.087-1.03a.166.166,0,0,1,.332-.029q.046.516.087,1.032a.167.167,0,0,1-.153.179h-.013m-31.7-.019h-.013a.166.166,0,0,1-.153-.179q.041-.515.087-1.031a.166.166,0,0,1,.332.029q-.046.515-.087,1.029a.166.166,0,0,1-.166.153m31.517-2.041a.166.166,0,0,1-.165-.15q-.05-.514-.1-1.027a.166.166,0,1,1,.331-.035q.055.514.1,1.03a.166.166,0,0,1-.15.182h-.016m-31.334-.019h-.016a.167.167,0,0,1-.15-.182q.05-.517.105-1.033a.166.166,0,1,1,.331.035q-.055.514-.1,1.03a.166.166,0,0,1-.165.15m31.116-2.036a.166.166,0,0,1-.165-.147q-.059-.514-.123-1.024a.166.166,0,0,1,.33-.041q.064.512.124,1.027a.166.166,0,0,1-.146.184h-.019m-30.9-.023h-.019a.167.167,0,0,1-.146-.185q.06-.516.124-1.028a.166.166,0,1,1,.33.042q-.064.511-.124,1.025a.166.166,0,0,1-.165.147M47.7,67.576a.167.167,0,0,1-.165-.144q-.07-.514-.145-1.022a.166.166,0,0,1,.329-.049q.075.51.145,1.026a.166.166,0,0,1-.142.187l-.023,0m-30.381-.026H17.3a.166.166,0,0,1-.142-.187q.07-.515.146-1.026a.166.166,0,1,1,.329.049q-.075.508-.145,1.022a.167.167,0,0,1-.165.144M47.4,65.531a.166.166,0,0,1-.164-.14q-.082-.513-.169-1.018a.166.166,0,0,1,.328-.057q.088.507.17,1.022a.166.166,0,0,1-.138.191l-.026,0M17.621,65.5l-.026,0a.166.166,0,0,1-.138-.191q.083-.516.17-1.023a.166.166,0,1,1,.328.057q-.088.5-.17,1.018a.167.167,0,0,1-.164.14m29.424-2.011a.167.167,0,0,1-.163-.136c-.065-.344-.131-.684-.2-1.012a.166.166,0,0,1,.326-.067c.067.329.134.672.2,1.017a.166.166,0,0,1-.133.194.161.161,0,0,1-.031,0m-29.07-.027-.031,0a.167.167,0,0,1-.133-.194c.065-.344.132-.687.2-1.018a.166.166,0,0,1,.326.067c-.067.329-.134.67-.2,1.013a.166.166,0,0,1-.163.136m28.655-2a.166.166,0,0,1-.162-.13q-.046-.2-.092-.407-.07-.3-.141-.6a.167.167,0,1,1,.324-.079q.072.3.142.6.047.2.093.409a.166.166,0,0,1-.126.2.163.163,0,0,1-.036,0m-28.24-.028a.175.175,0,0,1-.036,0,.166.166,0,0,1-.126-.2c.076-.343.156-.683.235-1.011a.166.166,0,0,1,.323.079c-.079.326-.158.663-.234,1a.167.167,0,0,1-.162.13m27.751-1.981a.166.166,0,0,1-.161-.123c-.091-.339-.184-.673-.278-.991a.166.166,0,0,1,.319-.094c.095.321.189.657.281,1a.167.167,0,0,1-.161.209m-27.26-.029a.167.167,0,0,1-.161-.209c.092-.343.187-.679.282-1a.166.166,0,1,1,.319.095c-.094.318-.188.651-.279.991a.166.166,0,0,1-.161.123m26.673-1.953a.167.167,0,0,1-.158-.115c-.11-.335-.224-.661-.338-.97a.166.166,0,1,1,.312-.116c.116.313.231.643.342.982a.167.167,0,0,1-.158.219m-26.084-.03a.166.166,0,0,1-.158-.219c.112-.339.228-.669.344-.982a.166.166,0,0,1,.312.116c-.115.309-.229.635-.34.97a.166.166,0,0,1-.158.114M44.834,55.54a.166.166,0,0,1-.153-.1c-.138-.327-.281-.64-.425-.931a.166.166,0,1,1,.3-.148c.147.3.292.617.433.949a.167.167,0,0,1-.153.231m-24.64-.03a.167.167,0,0,1-.153-.232c.141-.332.287-.651.435-.949a.166.166,0,1,1,.3.148c-.145.292-.288.605-.427.931a.167.167,0,0,1-.153.1M43.915,53.69a.166.166,0,0,1-.143-.082,9.565,9.565,0,0,0-.561-.846.166.166,0,0,1,.267-.2,9.923,9.923,0,0,1,.58.876.167.167,0,0,1-.143.251m-22.8-.029a.166.166,0,0,1-.143-.252,9.863,9.863,0,0,1,.583-.874.166.166,0,0,1,.266.2,9.572,9.572,0,0,0-.563.844.166.166,0,0,1-.143.081m21.55-1.613A.165.165,0,0,1,42.552,52c-.1-.094-.194-.183-.292-.264-.159-.132-.322-.26-.485-.38a.166.166,0,1,1,.2-.268c.168.124.337.256.5.392.1.087.209.182.312.282a.166.166,0,0,1-.116.285m-20.3-.021a.166.166,0,0,1-.116-.286c.1-.092.192-.18.289-.26.171-.143.348-.281.525-.411a.167.167,0,1,1,.2.269c-.172.126-.343.26-.509.4-.09.075-.181.157-.271.244a.166.166,0,0,1-.116.047M41.012,50.82a.167.167,0,0,1-.084-.023,10.154,10.154,0,0,0-.9-.471.166.166,0,0,1,.139-.3,10.48,10.48,0,0,1,.93.487.166.166,0,0,1-.085.31M24.029,50.8a.166.166,0,0,1-.084-.31,10.471,10.471,0,0,1,.931-.484.166.166,0,1,1,.139.3c-.31.142-.613.3-.9.468a.166.166,0,0,1-.084.023m15.112-.852a.168.168,0,0,1-.056-.01c-.311-.11-.638-.212-.974-.3a.166.166,0,1,1,.086-.322c.344.092.68.2,1,.31a.166.166,0,0,1-.056.323M25.9,49.942a.166.166,0,0,1-.055-.323c.319-.112.655-.216,1-.307a.166.166,0,0,1,.086.322c-.336.089-.664.19-.975.3a.166.166,0,0,1-.055.01m11.245-.529a.177.177,0,0,1-.032,0c-.324-.064-.663-.121-1.01-.169a.166.166,0,1,1,.046-.33c.352.049.7.107,1.028.172a.167.167,0,0,1-.032.33M27.9,49.408a.166.166,0,0,1-.032-.33c.329-.064.675-.121,1.028-.17a.166.166,0,0,1,.045.33c-.347.048-.687.1-1.01.167a.175.175,0,0,1-.032,0m7.206-.281h-.015c-.331-.03-.675-.054-1.024-.071a.167.167,0,0,1,.017-.333c.353.018.7.042,1.037.072a.166.166,0,0,1-.015.332m-5.16,0a.166.166,0,0,1-.015-.332c.335-.03.684-.054,1.037-.071a.167.167,0,0,1,.016.333c-.349.017-.693.04-1.024.07h-.015m3.1-.1h0c-.337-.005-.691-.005-1.028,0h0a.167.167,0,0,1,0-.333c.341-.005.7-.005,1.038,0a.166.166,0,0,1,0,.333" transform="translate(-13.114 -39.728)" fill="#001192"/>
          <path id="Tracé_1137-2" data-name="Tracé 1137" d="M76.561,6.409c-1.277,0-2.066-1.013-2.9-2.086-1.049-1.348-2.134-2.741-4.346-2.741-2.356,0-3.7,1.573-4.889,2.96-.857,1-1.6,1.867-2.622,1.867a.791.791,0,0,1,0-1.581c.3,0,.92-.728,1.421-1.314C64.492,2.032,66.23,0,69.314,0c2.985,0,4.493,1.937,5.594,3.351.616.792,1.149,1.476,1.653,1.476a.791.791,0,0,1,0,1.581" transform="translate(-49.787 -0.001)" fill="#e20006"/>
          <g id="Groupe_561" data-name="Groupe 561">
            <path id="Tracé_1138-2" data-name="Tracé 1138" d="M94.53,172.777a2.455,2.455,0,0,1-2.455-2.455v-3.683l2.455-.208,2.455.208v3.683a2.455,2.455,0,0,1-2.455,2.455" transform="translate(-75.136 -135.812)" fill="#001192"/>
            <path id="Tracé_1139-2" data-name="Tracé 1139" d="M97.3,175.55a1.83,1.83,0,0,1-1.831-1.83v-2.746l1.831-.155,1.831.155v2.746a1.83,1.83,0,0,1-1.831,1.83" transform="translate(-77.906 -139.393)" fill="#e20006"/>
          </g>
        </g>
      </g>
    </g>
    <g id="Groupe_560" data-name="Groupe 560" transform="translate(-0.812 4.236)">
      <path id="Tracé_1162" data-name="Tracé 1162" d="M20.392,12.361S10.406,23.5,18.148,35.144,21.9,50.6,21.9,50.6" transform="translate(1197.605 621.403)" fill="none" stroke="#fefdff" stroke-width="0.5"/>
      <g id="Groupe_559" data-name="Groupe 559" transform="matrix(0.809, -0.588, 0.588, 0.809, 1191.333, 664.216)" style="isolation: isolate">
        <path id="wired-mouse" d="M4.944,19.25H6.28a4.285,4.285,0,0,0,4.272-4.272V10.409H.672v4.568A4.285,4.285,0,0,0,4.944,19.25Zm.21-16.6H6.28a4.957,4.957,0,0,1,4.944,4.944v7.383A4.957,4.957,0,0,1,6.28,19.921H4.944A4.957,4.957,0,0,1,0,14.978V7.595A4.957,4.957,0,0,1,4.944,2.651Zm5.4,7.086V7.595A4.285,4.285,0,0,0,6.28,3.323H6.017V5.374a.9.9,0,0,1,.495.8V7.615a.9.9,0,0,1-.495.8V9.737Zm-5.345,0V8.417a.9.9,0,0,1-.495-.8V6.176a.9.9,0,0,1,.495-.8V3.323H4.944A4.285,4.285,0,0,0,.672,7.595V9.737Z" transform="translate(12.398 19.749)" fill="#fefeff"/>
        <path id="Tracé_1163" data-name="Tracé 1163" d="M5.522,0a5.522,5.522,0,0,1,5.522,5.522v6.393c0,3.049-2.472,4.94-5.522,4.94S0,14.964,0,11.915V5.522A5.522,5.522,0,0,1,5.522,0Z" transform="translate(12.201 22.672)" fill="#fefeff"/>
        <path id="Tracé_1160" data-name="Tracé 1160" d="M5.522,0a5.522,5.522,0,0,1,5.522,5.522v6.393c0,3.049-2.472,4.94-5.522,4.94S0,14.964,0,11.915V5.522A5.522,5.522,0,0,1,5.522,0Z" transform="translate(13.285 22.881)" fill="#d5d7fd"/>
        <path id="wired-mouse-2" data-name="wired-mouse" d="M4.944,19.25H6.28a4.285,4.285,0,0,0,4.272-4.272V10.409H.672v4.568A4.285,4.285,0,0,0,4.944,19.25Zm.21-16.6H6.28a4.957,4.957,0,0,1,4.944,4.944v7.383A4.957,4.957,0,0,1,6.28,19.921H4.944A4.957,4.957,0,0,1,0,14.978V7.595A4.957,4.957,0,0,1,4.944,2.651Zm5.4,7.086V7.595A4.285,4.285,0,0,0,6.28,3.323H6.017V5.374a.9.9,0,0,1,.495.8V7.615a.9.9,0,0,1-.495.8V9.737Zm-5.345,0V8.417a.9.9,0,0,1-.495-.8V6.176a.9.9,0,0,1,.495-.8V3.323H4.944A4.285,4.285,0,0,0,.672,7.595V9.737Z" transform="translate(13.134 20.283)" fill="#001192"/>
      </g>
      <path id="Tracé_1161" data-name="Tracé 1161" d="M20.392,12.361S10.406,23.5,18.148,35.144,21.9,50.6,21.9,50.6" transform="translate(1198.605 621.403)" fill="none" stroke="#001192" stroke-width="0.5"/>
    </g>
  </g>
</svg>
